{
.appVersion = "1057";
classes = (
{
code = "sterling fi v ae ebreve less asciitilde periodcentered hyphen psi afii10075 uni040D caron ffl comma Psi ffi asciicircum E quotesingle Phi Pi degree Odieresis uni04B7 six three Ebreve germandbls r uni018F slash A C B AE greater G uni04B6 H K J M O N P S IJ T Tcommaaccent V Y X Z fl uni03BC a c b e d f i h OE j l o n p s ij u t oe y x tcommaaccent k uni02C9";
name = default;
},
{
code = "sterling.calt0 fi.calt0 v.calt0 ae.calt0 ebreve.calt0 less.calt0 asciitilde.calt0 periodcentered.calt0 hyphen.calt0 psi.calt0 afii10075.calt0 uni040D.calt0 caron.calt0 ffl.calt0 comma.calt0 Psi.calt0 ffi.calt0 asciicircum.calt0 E.calt0 quotesingle.calt0 Phi.calt0 Pi.calt0 degree.calt0 Odieresis.calt0 uni04B7.calt0 six.calt0 three.calt0 Ebreve.calt0 germandbls.calt0 r.calt0 uni018F.calt0 slash.calt0 A.calt0 C.calt0 B.calt0 AE.calt0 greater.calt0 G.calt0 uni04B6.calt0 H.calt0 K.calt0 J.calt0 M.calt0 O.calt0 N.calt0 P.calt0 S.calt0 IJ.calt0 T.calt0 Tcommaaccent.calt0 V.calt0 Y.calt0 X.calt0 Z.calt0 fl.calt0 uni03BC.calt0 a.calt0 c.calt0 b.calt0 e.calt0 d.calt0 f.calt0 i.calt0 h.calt0 OE.calt0 j.calt0 l.calt0 o.calt0 n.calt0 p.calt0 s.calt0 ij.calt0 u.calt0 t.calt0 oe.calt0 y.calt0 x.calt0 tcommaaccent.calt0 k.calt0 uni02C9.calt0";
name = calt0;
},
{

glyphs = (
{
glyphname = .notdef;
lastChange = "2019-02-04 10:03:05 +0000";
layers = (
{
layerId = "BC02B84D-1250-4FEC-829E-45FBAB526404";
paths = (
{
closed = 1;
nodes = (
"100 1456 LINE",
"100 0 LINE",
"808 0 LINE",
"808 1456 LINE"
);
},
{
closed = 1;
nodes = (
"754 1371 LINE",
"754 84 LINE",
"480 728 LINE"
);
},
{
closed = 1;
nodes = (
"154 96 LINE",
"154 1359 LINE",
"422 728 LINE"
);
},
{
closed = 1;
nodes = (
"709 54 LINE",
"194 54 LINE",
"451 660 LINE"
);
},
{
closed = 1;
nodes = (
"709 1402 LINE",
"451 796 LINE",
"194 1402 LINE"
);
}
);
width = 908;
}
);
note = .notdef;
},
{
glyphname = exclam;
lastChange = "2019-02-04 10:03:05 +0000";
layers = (
{
layerId = "BC02B84D-1250-4FEC-829E-45FBAB526404";
paths = (
{
closed = 1;
nodes = (
"150 1456 LINE",
"173 429 LINE",
"382 429 LINE",
"406 1456 LINE"
);
},
{
closed = 1;
nodes = (
"143 42 OFFCURVE",
"193 -14 OFFCURVE",
"281 -14 CURVE SMOOTH",
"369 -14 OFFCURVE",
"419 42 OFFCURVE",
"419 115 CURVE SMOOTH",
"419 191 OFFCURVE",
"366 247 OFFCURVE",
"281 247 CURVE SMOOTH",
"196 247 OFFCURVE",
"143 191 OFFCURVE",
"143 115 CURVE SMOOTH"
);
}
);
width = 549;
}
);
note = exclam;
unicode = 0021;
},
{
glyphname = quotedbl;
lastChange = "2019-02-04 10:03:05 +0000";
layers = (
{
layerId = "BC02B84D-1250-4FEC-829E-45FBAB526404";
paths = (
{
closed = 1;
nodes = (
"101 1536 LINE",
"101 1012 LINE",
"240 1012 LINE",
"275 1399 LINE",
"275 1536 LINE"
);
},
{
closed = 1;
nodes = (
"402 1536 LINE",
"402 1012 LINE",
"541 1012 LINE",
"576 1399 LINE",
"576 1536 LINE"
);
}
);
width = 664;
}
);
leftKerningGroup = quotedbl;
note = quotedbl;
rightKerningGroup = quotedbl;
unicode = 0022;
},
{
glyphname = numbersign;
lastChange = "2019-02-04 10:03:05 +0000";
layers = (
{
layerId = "BC02B84D-1250-4FEC-829E-45FBAB526404";
paths = (
{
closed = 1;
nodes = (
"810 0 LINE",
"886 410 LINE",
"1137 410 LINE",
"1137 568 LINE",
"916 568 LINE",
"974 881 LINE",
"1212 881 LINE",
"1212 1040 LINE",
"1004 1040 LINE",
"1082 1456 LINE",
"915 1456 LINE",
"837 1040 LINE",
"612 1040 LINE",
"690 1456 LINE",
"523 1456 LINE",
"445 1040 LINE",
"172 1040 LINE",
"172 881 LINE",
"415 881 LINE",
"357 568 LINE",
"96 568 LINE",
"96 410 LINE",
"327 410 LINE",
"251 0 LINE",
"419 0 LINE",
"495 410 LINE",
"719 410 LINE",
"643 0 LINE"
);
},
{
closed = 1;
nodes = (
"807 881 LINE",
"749 568 LINE",
"525 568 LINE",
"583 881 LINE"
);
}
);
width = 1250;
}
);
note = numbersign;
unicode = 0023;
},
{
glyphname = dollar;
lastChange = "2019-02-04 10:03:05 +0000";
layers = (
{
layerId = "BC02B84D-1250-4FEC-829E-45FBAB526404";
paths = (
{
closed = 1;
nodes = (
"819 259 OFFCURVE",
"738 179 OFFCURVE",
"586 179 CURVE SMOOTH",
"431 179 OFFCURVE",
"343 275 OFFCURVE",
"343 443 CURVE",
"100 443 LINE",
"100 179 OFFCURVE",
"247 12 OFFCURVE",
"511 -17 CURVE",
"511 -211 LINE",
"670 -211 LINE",
"670 -16 LINE",
"917 9 OFFCURVE",
"1062 157 OFFCURVE",
"1062 382 CURVE SMOOTH",
"1062 502 OFFCURVE",
"1025 589 OFFCURVE",
"958 658 CURVE SMOOTH",
"891 726 OFFCURVE",
"805 773 OFFCURVE",
"634 836 CURVE SMOOTH",
"463 899 OFFCURVE",
"399 959 OFFCURVE",
"399 1075 CURVE SMOOTH",
"399 1204 OFFCURVE",
"475 1276 OFFCURVE",
"603 1276 CURVE SMOOTH",
"732 1276 OFFCURVE",
"813 1173 OFFCURVE",
"813 1005 CURVE",
"1055 1005 LINE",
"1055 1266 OFFCURVE",
"923 1438 OFFCURVE",
"691 1471 CURVE",
"691 1691 LINE",
"531 1691 LINE",
"531 1473 LINE",
"300 1446 OFFCURVE",
"156 1294 OFFCURVE",
"156 1073 CURVE SMOOTH",
"156 910 OFFCURVE",
"234 786 OFFCURVE",
"389 703 CURVE SMOOTH",
"436 678 OFFCURVE",
"501 650 OFFCURVE",
"585 621 CURVE SMOOTH",
"753 561 OFFCURVE",
"819 493 OFFCURVE",
"819 380 CURVE SMOOTH"
);
}
);
width = 1164;
}
);
note = dollar;
unicode = 0024;
},
{
glyphname = percent;
lastChange = "2019-02-04 10:03:05 +0000";
layers = (
{
layerId = "BC02B84D-1250-4FEC-829E-45FBAB526404";
paths = (
{
closed = 1;
nodes = (
"99 918 OFFCURVE",
"229 800 OFFCURVE",
"409 800 CURVE SMOOTH",
"593 800 OFFCURVE",
"716 924 OFFCURVE",
"716 1099 CURVE SMOOTH",
"716 1171 LINE SMOOTH",
"716 1354 OFFCURVE",
"594 1477 OFFCURVE",
"407 1477 CURVE SMOOTH",
"223 1477 OFFCURVE",
"99 1352 OFFCURVE",
"99 1176 CURVE SMOOTH",
"99 1105 LINE SMOOTH"
);
},
{
closed = 1;
nodes = (
"269 1268 OFFCURVE",
"323 1331 OFFCURVE",
"407 1331 CURVE SMOOTH",
"491 1331 OFFCURVE",
"547 1268 OFFCURVE",
"547 1176 CURVE SMOOTH",
"547 1103 LINE SMOOTH",
"547 1006 OFFCURVE",
"492 945 OFFCURVE",
"409 945 CURVE SMOOTH",
"325 945 OFFCURVE",
"269 1007 OFFCURVE",
"269 1099 CURVE SMOOTH",
"269 1173 LINE SMOOTH"
);
},
{
closed = 1;
nodes = (
"799 101 OFFCURVE",
"923 -20 OFFCURVE",
"1110 -20 CURVE SMOOTH",
"1297 -20 OFFCURVE",
"1417 106 OFFCURVE",
"1417 279 CURVE SMOOTH",
"1417 350 LINE SMOOTH",
"1417 538 OFFCURVE",
"1289 657 OFFCURVE",
"1108 657 CURVE SMOOTH",
"928 657 OFFCURVE",
"799 536 OFFCURVE",
"799 357 CURVE SMOOTH",
"799 284 LINE SMOOTH"
);
},
{
closed = 1;
nodes = (
"969 452 OFFCURVE",
"1025 511 OFFCURVE",
"1108 511 CURVE SMOOTH",
"1189 511 OFFCURVE",
"1247 450 OFFCURVE",
"1247 357 CURVE SMOOTH",
"1247 282 LINE SMOOTH",
"1247 182 OFFCURVE",
"1195 124 OFFCURVE",
"1110 124 CURVE SMOOTH",
"1027 124 OFFCURVE",
"969 188 OFFCURVE",
"969 279 CURVE SMOOTH",
"969 353 LINE SMOOTH"
);
},
{
closed = 1;
nodes = (
"1045 1319 LINE",
"334 181 LINE",
"459 109 LINE",
"1170 1247 LINE"
);
}
);
width = 1504;
}
);
note = percent;
unicode = 0025;
},
{
glyphname = ampersand;
lastChange = "2019-02-04 10:03:05 +0000";
layers = (
{
layerId = "BC02B84D-1250-4FEC-829E-45FBAB526404";
paths = (
{
closed = 1;
nodes = (
"86 148 OFFCURVE",
"273 -20 OFFCURVE",
"561 -20 CURVE SMOOTH",
"705 -20 OFFCURVE",
"829 19 OFFCURVE",
"933 97 CURVE",
"1015 0 LINE",
"1297 0 LINE",
"1083 253 LINE",
"1167 368 OFFCURVE",
"1209 515 OFFCURVE",
"1209 694 CURVE",
"998 694 LINE",
"998 596 OFFCURVE",
"978 507 OFFCURVE",
"937 427 CURVE",
"656 759 LINE",
"755 831 LINE SMOOTH",
"895 932 OFFCURVE",
"952 1030 OFFCURVE",
"952 1151 CURVE SMOOTH",
"952 1335 OFFCURVE",
"802 1476 OFFCURVE",
"590 1476 CURVE SMOOTH",
"355 1476 OFFCURVE",
"206 1334 OFFCURVE",
"206 1106 CURVE SMOOTH",
"206 1013 OFFCURVE",
"245 922 OFFCURVE",
"358 779 CURVE",
"142 624 OFFCURVE",
"86 528 OFFCURVE",
"86 393 CURVE SMOOTH"
);
},
{
closed = 1;
nodes = (
"423 174 OFFCURVE",
"329 266 OFFCURVE",
"329 401 CURVE SMOOTH",
"329 479 OFFCURVE",
"369 548 OFFCURVE",
"449 609 CURVE SMOOTH",
"480 631 LINE",
"798 256 LINE",
"727 201 OFFCURVE",
"650 174 OFFCURVE",
"568 174 CURVE SMOOTH"
);
},
{
closed = 1;
nodes = (
"434 1209 OFFCURVE",
"494 1281 OFFCURVE",
"589 1281 CURVE SMOOTH",
"677 1281 OFFCURVE",
"741 1219 OFFCURVE",
"741 1143 CURVE SMOOTH",
"741 1086 OFFCURVE",
"720 1039 OFFCURVE",
"679 1002 CURVE",
"648 977 LINE",
"537 901 LINE",
"468 986 OFFCURVE",
"434 1056 OFFCURVE",
"434 1112 CURVE SMOOTH"
);
}
);
width = 1309;
}
);
note = ampersand;
unicode = 0026;
},
{
glyphname = quotesingle;
lastChange = "2019-02-04 10:03:05 +0000";
layers = (
{
layerId = "BC02B84D-1250-4FEC-829E-45FBAB526404";
paths = (
{
closed = 1;
nodes = (
"82 1536 LINE",
"82 1020 LINE",
"241 1020 LINE",
"267 1411 LINE",
"267 1536 LINE"
);
}
);
width = 346;
}
);
leftKerningGroup = quotedbl;
note = quotesingle;
rightKerningGroup = quotedbl;
unicode = 0027;
},
{
glyphname = parenleft;
lastChange = "2019-02-04 10:03:05 +0000";
layers = (
{
layerId = "BC02B84D-1250-4FEC-829E-45FBAB526404";
paths = (
{
closed = 1;
nodes = (
"128 427 OFFCURVE",
"149 276 OFFCURVE",
"190 139 CURVE SMOOTH",
"272 -137 OFFCURVE",
"447 -375 OFFCURVE",
"626 -463 CURVE",
"674 -328 LINE",
"469 -163 OFFCURVE",
"349 170 OFFCURVE",
"349 574 CURVE SMOOTH",
"350 660 LINE SMOOTH",
"361 1037 OFFCURVE",
"486 1346 OFFCURVE",
"674 1489 CURVE",
"626 1631 LINE",
"537 1587 OFFCURVE",
"452 1511 OFFCURVE",
"372 1402 CURVE SMOOTH",
"212 1184 OFFCURVE",
"128 900 OFFCURVE",
"128 592 CURVE SMOOTH"
);
}
);
width = 714;
}
);
note = parenleft;
unicode = 0028;
},
{
glyphname = parenright;
lastChange = "2019-02-04 10:03:05 +0000";
layers = (
{
layerId = "BC02B84D-1250-4FEC-829E-45FBAB526404";
paths = (
{
closed = 1;
nodes = (
"587 793 OFFCURVE",
"563 927 OFFCURVE",
"520 1058 CURVE SMOOTH",
"435 1318 OFFCURVE",
"259 1548 OFFCURVE",
"88 1631 CURVE",
"40 1495 LINE",
"71 1467 LINE",
"260 1283 OFFCURVE",
"365 965 OFFCURVE",
"365 594 CURVE SMOOTH",
"365 571 LINE SMOOTH",
"365 163 OFFCURVE",
"240 -173 OFFCURVE",
"40 -328 CURVE",
"88 -463 LINE",
"178 -420 OFFCURVE",
"264 -341 OFFCURVE",
"347 -228 CURVE SMOOTH",
"512 -2 OFFCURVE",
"593 280 OFFCURVE",
"593 576 CURVE",
"592 654 LINE SMOOTH"
);
}
);
width = 722;
}
);
note = parenright;
unicode = 0029;
},
{
glyphname = asterisk;
lastChange = "2019-02-04 10:03:05 +0000";
layers = (
{
layerId = "BC02B84D-1250-4FEC-829E-45FBAB526404";
paths = (
{
closed = 1;
nodes = (
"271 598 LINE",
"449 877 LINE",
"629 589 LINE",
"774 695 LINE",
"574 961 LINE",
"884 1049 LINE",
"830 1221 LINE",
"533 1106 LINE",
"548 1456 LINE",
"369 1456 LINE",
"384 1112 LINE",
"82 1229 LINE",
"27 1060 LINE",
"332 972 LINE",
"125 700 LINE"
);
}
);
width = 905;
}
);
note = asterisk;
unicode = 002A;
},
{
glyphname = plus;
lastChange = "2019-02-04 10:03:05 +0000";
layers = (
{
layerId = "BC02B84D-1250-4FEC-829E-45FBAB526404";
paths = (
{
closed = 1;
nodes = (
"450 1206 LINE",
"450 801 LINE",
"68 801 LINE",
"68 579 LINE",
"450 579 LINE",
"450 146 LINE",
"686 146 LINE",
"686 579 LINE",
"1066 579 LINE",
"1066 801 LINE",
"686 801 LINE",
"686 1206 LINE"
);
}
);
width = 1141;
}
);
note = plus;
unicode = 002B;
},
{
glyphname = comma;
lastChange = "2019-02-04 10:03:05 +0000";
layers = (
{
layerId = "BC02B84D-1250-4FEC-829E-45FBAB526404";
paths = (
{
closed = 1;
nodes = (
"270 -236 OFFCURVE",
"347 -81 OFFCURVE",
"348 60 CURVE SMOOTH",
"349 235 LINE",
"130 235 LINE",
"130 46 LINE SMOOTH",
"129 -47 OFFCURVE",
"105 -129 OFFCURVE",
"28 -250 CURVE",
"159 -328 LINE"
);
}
);
width = 450;
}
);
leftKerningGroup = comma;
note = comma;
rightKerningGroup = comma;
unicode = 002C;
},
{
glyphname = hyphen;
lastChange = "2019-02-04 10:03:05 +0000";
layers = (
{
layerId = "BC02B84D-1250-4FEC-829E-45FBAB526404";
paths = (
{
closed = 1;
nodes = (
"71 717 LINE",
"71 521 LINE",
"596 521 LINE",
"596 717 LINE"
);
}
);
width = 672;
}
);
leftKerningGroup = hyphen;
note = hyphen;
unicode = 002D;
},
{
glyphname = period;
lastChange = "2019-02-04 10:03:05 +0000";
layers = (
{
layerId = "BC02B84D-1250-4FEC-829E-45FBAB526404";
paths = (
{
closed = 1;
nodes = (
"187 256 OFFCURVE",
"135 198 OFFCURVE",
"135 121 CURVE SMOOTH",
"135 44 OFFCURVE",
"189 -11 OFFCURVE",
"276 -11 CURVE SMOOTH",
"367 -11 OFFCURVE",
"418 45 OFFCURVE",
"418 121 CURVE SMOOTH",
"418 198 OFFCURVE",
"367 256 OFFCURVE",
"276 256 CURVE SMOOTH"
);
}
);
width = 572;
}
);
leftKerningGroup = comma;
note = period;
rightKerningGroup = comma;
unicode = 002E;
},
{
glyphname = slash;
lastChange = "2019-02-04 10:03:05 +0000";
layers = (
{
layerId = "BC02B84D-1250-4FEC-829E-45FBAB526404";
paths = (
{
closed = 1;
nodes = (
"575 1456 LINE",
"2 -125 LINE",
"193 -125 LINE",
"766 1456 LINE"
);
}
);
width = 810;
}
);
note = slash;
unicode = 002F;
},
{
glyphname = zero;
lastChange = "2019-02-04 10:03:05 +0000";
layers = (
{
layerId = "BC02B84D-1250-4FEC-829E-45FBAB526404";
paths = (
{
closed = 1;
nodes = (
"1054 1272 OFFCURVE",
"900 1476 OFFCURVE",
"581 1476 CURVE SMOOTH",
"260 1476 OFFCURVE",
"105 1267 OFFCURVE",
"105 848 CURVE SMOOTH",
"105 596 LINE SMOOTH",
"109 189 OFFCURVE",
"268 -20 OFFCURVE",
"583 -20 CURVE SMOOTH",
"903 -20 OFFCURVE",
"1058 194 OFFCURVE",
"1058 613 CURVE SMOOTH",
"1058 865 LINE"
);
},
{
closed = 1;
nodes = (
"811 293 OFFCURVE",
"739 174 OFFCURVE",
"583 174 CURVE SMOOTH",
"420 174 OFFCURVE",
"347 306 OFFCURVE",
"347 578 CURVE SMOOTH",
"347 908 LINE SMOOTH",
"351 1164 OFFCURVE",
"422 1281 OFFCURVE",
"581 1281 CURVE SMOOTH",
"744 1281 OFFCURVE",
"815 1158 OFFCURVE",
"815 885 CURVE SMOOTH",
"815 556 LINE SMOOTH"
);
}
);
width = 1164;
}
);
note = zero;
unicode = 0030;
},
{
glyphname = one;
lastChange = "2019-02-04 10:03:05 +0000";
layers = (
{
layerId = "BC02B84D-1250-4FEC-829E-45FBAB526404";
paths = (
{
closed = 1;
nodes = (
"736 1461 LINE",
"168 1252 LINE",
"168 1047 LINE",
"525 1169 LINE",
"525 0 LINE",
"767 0 LINE",
"767 1461 LINE"
);
}
);
width = 1164;
}
);
note = one;
unicode = 0031;
},
{
glyphname = two;
lastChange = "2019-02-04 10:03:05 +0000";
layers = (
{
layerId = "BC02B84D-1250-4FEC-829E-45FBAB526404";
paths = (
{
closed = 1;
nodes = (
"412 194 LINE",
"768 575 LINE SMOOTH",
"955 778 OFFCURVE",
"1031 930 OFFCURVE",
"1031 1075 CURVE SMOOTH",
"1031 1326 OFFCURVE",
"857 1476 OFFCURVE",
"574 1476 CURVE SMOOTH",
"476 1476 OFFCURVE",
"390 1456 OFFCURVE",
"315 1417 CURVE SMOOTH",
"165 1338 OFFCURVE",
"81 1189 OFFCURVE",
"81 1012 CURVE",
"324 1012 LINE",
"324 1179 OFFCURVE",
"415 1281 OFFCURVE",
"572 1281 CURVE SMOOTH",
"704 1281 OFFCURVE",
"788 1188 OFFCURVE",
"788 1049 CURVE SMOOTH",
"788 944 OFFCURVE",
"734 852 OFFCURVE",
"594 696 CURVE SMOOTH",
"109 167 LINE",
"109 0 LINE",
"1088 0 LINE",
"1088 194 LINE"
);
}
);
width = 1164;
}
);
note = two;
unicode = 0032;
},
{
glyphname = three;
lastChange = "2019-02-04 10:03:05 +0000";
layers = (
{
layerId = "BC02B84D-1250-4FEC-829E-45FBAB526404";
paths = (
{
closed = 1;
nodes = (
"533 647 LINE SMOOTH",
"712 647 OFFCURVE",
"803 561 OFFCURVE",
"803 408 CURVE SMOOTH",
"803 256 OFFCURVE",
"711 174 OFFCURVE",
"560 174 CURVE SMOOTH",
"415 174 OFFCURVE",
"322 262 OFFCURVE",
"322 390 CURVE",
"79 390 LINE",
"79 142 OFFCURVE",
"277 -20 OFFCURVE",
"557 -20 CURVE SMOOTH",
"849 -20 OFFCURVE",
"1045 147 OFFCURVE",
"1045 408 CURVE SMOOTH",
"1045 571 OFFCURVE",
"960 692 OFFCURVE",
"800 747 CURVE",
"932 806 OFFCURVE",
"1024 931 OFFCURVE",
"1024 1062 CURVE SMOOTH",
"1024 1322 OFFCURVE",
"848 1476 OFFCURVE",
"557 1476 CURVE SMOOTH",
"469 1476 OFFCURVE",
"390 1459 OFFCURVE",
"319 1425 CURVE SMOOTH",
"177 1356 OFFCURVE",
"93 1226 OFFCURVE",
"93 1077 CURVE",
"336 1077 LINE",
"336 1198 OFFCURVE",
"429 1281 OFFCURVE",
"560 1281 CURVE SMOOTH",
"709 1281 OFFCURVE",
"781 1201 OFFCURVE",
"781 1062 CURVE SMOOTH",
"781 918 OFFCURVE",
"687 840 OFFCURVE",
"538 839 CURVE SMOOTH",
"390 839 LINE",
"390 647 LINE"
);
}
);
width = 1164;
}
);
note = three;
unicode = 0033;
},
{
glyphname = four;
lastChange = "2019-02-04 10:03:05 +0000";
layers = (
{
layerId = "BC02B84D-1250-4FEC-829E-45FBAB526404";
paths = (
{
closed = 1;
nodes = (
"680 1456 LINE",
"52 472 LINE",
"59 324 LINE",
"688 324 LINE",
"688 0 LINE",
"931 0 LINE",
"931 324 LINE",
"1112 324 LINE",
"1112 519 LINE",
"931 519 LINE",
"931 1456 LINE"
);
},
{
closed = 1;
nodes = (
"688 1127 LINE",
"688 519 LINE",
"307 519 LINE",
"670 1095 LINE"
);
}
);
width = 1164;
}
);
note = four;
unicode = 0034;
},
{
glyphname = five;
lastChange = "2019-02-04 10:03:05 +0000";
layers = (
{
layerId = "BC02B84D-1250-4FEC-829E-45FBAB526404";
paths = (
{
closed = 1;
nodes = (
"440 742 OFFCURVE",
"492 760 OFFCURVE",
"580 760 CURVE SMOOTH",
"741 760 OFFCURVE",
"839 649 OFFCURVE",
"839 472 CURVE SMOOTH",
"839 288 OFFCURVE",
"751 174 OFFCURVE",
"602 174 CURVE SMOOTH",
"469 174 OFFCURVE",
"383 252 OFFCURVE",
"364 393 CURVE",
"129 393 LINE",
"144 145 OFFCURVE",
"336 -20 OFFCURVE",
"603 -20 CURVE SMOOTH",
"900 -20 OFFCURVE",
"1082 169 OFFCURVE",
"1082 465 CURVE SMOOTH",
"1082 765 OFFCURVE",
"920 956 OFFCURVE",
"643 956 CURVE SMOOTH",
"558 956 OFFCURVE",
"482 937 OFFCURVE",
"415 898 CURVE",
"455 1246 LINE",
"1035 1246 LINE",
"1035 1456 LINE",
"253 1456 LINE",
"174 722 LINE",
"368 674 LINE"
);
}
);
width = 1164;
}
);
note = five;
unicode = 0035;
},
{
glyphname = six;
lastChange = "2019-02-04 10:03:05 +0000";
layers = (
{
layerId = "BC02B84D-1250-4FEC-829E-45FBAB526404";
paths = (
{
closed = 1;
nodes = (
"373 1463 OFFCURVE",
"117 1157 OFFCURVE",
"117 646 CURVE SMOOTH",
"117 563 LINE SMOOTH",
"117 215 OFFCURVE",
"315 -20 OFFCURVE",
"606 -20 CURVE SMOOTH",
"889 -20 OFFCURVE",
"1079 181 OFFCURVE",
"1079 477 CURVE SMOOTH",
"1079 764 OFFCURVE",
"920 964 OFFCURVE",
"663 964 CURVE SMOOTH",
"542 964 OFFCURVE",
"442 923 OFFCURVE",
"364 841 CURVE",
"395 1108 OFFCURVE",
"563 1258 OFFCURVE",
"835 1262 CURVE SMOOTH",
"865 1262 LINE",
"865 1463 LINE",
"840 1463 LINE SMOOTH"
);
},
{
closed = 1;
nodes = (
"745 768 OFFCURVE",
"838 646 OFFCURVE",
"838 470 CURVE SMOOTH",
"838 294 OFFCURVE",
"748 176 OFFCURVE",
"604 176 CURVE SMOOTH",
"460 176 OFFCURVE",
"360 313 OFFCURVE",
"360 529 CURVE SMOOTH",
"360 603 LINE",
"401 703 OFFCURVE",
"497 768 OFFCURVE",
"604 768 CURVE SMOOTH"
);
}
);
width = 1164;
}
);
note = six;
unicode = 0036;
},
{
glyphname = seven;
lastChange = "2019-02-04 10:03:05 +0000";
layers = (
{
layerId = "BC02B84D-1250-4FEC-829E-45FBAB526404";
paths = (
{
closed = 1;
nodes = (
"69 1456 LINE",
"69 1261 LINE",
"822 1261 LINE",
"241 0 LINE",
"496 0 LINE",
"1078 1321 LINE",
"1078 1456 LINE"
);
}
);
width = 1164;
}
);
note = seven;
unicode = 0037;
},
{
glyphname = eight;
lastChange = "2019-02-04 10:03:05 +0000";
layers = (
{
layerId = "BC02B84D-1250-4FEC-829E-45FBAB526404";
paths = (
{
closed = 1;
nodes = (
"1026 1320 OFFCURVE",
"854 1476 OFFCURVE",
"581 1476 CURVE SMOOTH",
"309 1476 OFFCURVE",
"137 1320 OFFCURVE",
"137 1072 CURVE SMOOTH",
"137 929 OFFCURVE",
"215 814 OFFCURVE",
"340 750 CURVE",
"191 683 OFFCURVE",
"104 553 OFFCURVE",
"104 397 CURVE SMOOTH",
"104 142 OFFCURVE",
"293 -20 OFFCURVE",
"582 -20 CURVE SMOOTH",
"870 -20 OFFCURVE",
"1058 141 OFFCURVE",
"1058 397 CURVE SMOOTH",
"1058 552 OFFCURVE",
"973 679 OFFCURVE",
"821 750 CURVE",
"948 814 OFFCURVE",
"1026 929 OFFCURVE",
"1026 1072 CURVE SMOOTH"
);
},
{
closed = 1;
nodes = (
"815 261 OFFCURVE",
"729 174 OFFCURVE",
"582 174 CURVE SMOOTH",
"435 174 OFFCURVE",
"347 266 OFFCURVE",
"347 409 CURVE SMOOTH",
"347 554 OFFCURVE",
"439 650 OFFCURVE",
"580 650 CURVE SMOOTH",
"721 650 OFFCURVE",
"815 553 OFFCURVE",
"815 409 CURVE SMOOTH"
);
},
{
closed = 1;
nodes = (
"784 930 OFFCURVE",
"706 845 OFFCURVE",
"582 845 CURVE SMOOTH",
"458 845 OFFCURVE",
"380 930 OFFCURVE",
"380 1063 CURVE SMOOTH",
"380 1198 OFFCURVE",
"457 1281 OFFCURVE",
"581 1281 CURVE SMOOTH",
"705 1281 OFFCURVE",
"784 1190 OFFCURVE",
"784 1063 CURVE SMOOTH"
);
}
);
width = 1164;
}
);
note = eight;
unicode = 0038;
},
{
glyphname = nine;
lastChange = "2019-02-04 10:03:05 +0000";
layers = (
{
layerId = "BC02B84D-1250-4FEC-829E-45FBAB526404";
paths = (
{
closed = 1;
nodes = (
"779 329 OFFCURVE",
"626 199 OFFCURVE",
"339 195 CURVE SMOOTH",
"304 195 LINE",
"304 -6 LINE",
"333 -6 LINE SMOOTH",
"804 -2 OFFCURVE",
"1042 280 OFFCURVE",
"1042 805 CURVE SMOOTH",
"1042 873 LINE SMOOTH",
"1042 1240 OFFCURVE",
"857 1476 OFFCURVE",
"564 1476 CURVE SMOOTH",
"470 1476 OFFCURVE",
"387 1454 OFFCURVE",
"316 1411 CURVE SMOOTH",
"173 1324 OFFCURVE",
"93 1160 OFFCURVE",
"93 968 CURVE SMOOTH",
"93 676 OFFCURVE",
"257 480 OFFCURVE",
"513 480 CURVE SMOOTH",
"622 480 OFFCURVE",
"717 523 OFFCURVE",
"798 609 CURVE"
);
},
{
closed = 1;
nodes = (
"424 670 OFFCURVE",
"333 792 OFFCURVE",
"333 975 CURVE SMOOTH",
"333 1151 OFFCURVE",
"423 1280 OFFCURVE",
"563 1280 CURVE SMOOTH",
"703 1280 OFFCURVE",
"800 1138 OFFCURVE",
"800 923 CURVE SMOOTH",
"800 828 LINE",
"753 729 OFFCURVE",
"661 670 OFFCURVE",
"564 670 CURVE SMOOTH"
);
}
);
width = 1164;
}
);
note = nine;
unicode = 0039;
},
{
glyphname = colon;
lastChange = "2019-02-04 10:03:05 +0000";
layers = (
{
layerId = "BC02B84D-1250-4FEC-829E-45FBAB526404";
paths = (
{
closed = 1;
nodes = (
"182 256 OFFCURVE",
"130 198 OFFCURVE",
"130 121 CURVE SMOOTH",
"130 44 OFFCURVE",
"184 -11 OFFCURVE",
"271 -11 CURVE SMOOTH",
"362 -11 OFFCURVE",
"413 45 OFFCURVE",
"413 121 CURVE SMOOTH",
"413 198 OFFCURVE",
"362 256 OFFCURVE",
"271 256 CURVE SMOOTH"
);
},
{
closed = 1;
nodes = (
"182 1105 OFFCURVE",
"130 1047 OFFCURVE",
"130 970 CURVE SMOOTH",
"130 893 OFFCURVE",
"184 838 OFFCURVE",
"271 838 CURVE SMOOTH",
"362 838 OFFCURVE",
"413 894 OFFCURVE",
"413 970 CURVE SMOOTH",
"413 1047 OFFCURVE",
"362 1105 OFFCURVE",
"271 1105 CURVE SMOOTH"
);
}
);
width = 543;
}
);
note = colon;
unicode = 003A;
},
{
glyphname = semicolon;
lastChange = "2019-02-04 10:03:05 +0000";
layers = (
{
layerId = "BC02B84D-1250-4FEC-829E-45FBAB526404";
paths = (
{
closed = 1;
nodes = (
"161 1105 OFFCURVE",
"109 1047 OFFCURVE",
"109 970 CURVE SMOOTH",
"109 893 OFFCURVE",
"163 838 OFFCURVE",
"250 838 CURVE SMOOTH",
"341 838 OFFCURVE",
"392 894 OFFCURVE",
"392 970 CURVE SMOOTH",
"392 1047 OFFCURVE",
"341 1105 OFFCURVE",
"250 1105 CURVE SMOOTH"
);
},
{
closed = 1;
nodes = (
"288 -236 OFFCURVE",
"365 -81 OFFCURVE",
"366 60 CURVE SMOOTH",
"367 235 LINE",
"148 235 LINE",
"148 46 LINE SMOOTH",
"147 -47 OFFCURVE",
"123 -129 OFFCURVE",
"46 -250 CURVE",
"177 -328 LINE"
);
}
);
width = 487;
}
);
note = semicolon;
unicode = 003B;
},
{
glyphname = less;
lastChange = "2019-02-04 10:03:05 +0000";
layers = (
{
layerId = "BC02B84D-1250-4FEC-829E-45FBAB526404";
paths = (
{
closed = 1;
nodes = (
"900 1102 LINE",
"63 730 LINE",
"63 537 LINE",
"900 164 LINE",
"900 407 LINE",
"310 631 LINE",
"900 859 LINE"
);
}
);
width = 1041;
}
);
note = less;
unicode = 003C;
},
{
glyphname = equal;
lastChange = "2019-02-04 10:03:05 +0000";
layers = (
{
layerId = "BC02B84D-1250-4FEC-829E-45FBAB526404";
paths = (
{
closed = 1;
nodes = (
"145 982 LINE",
"145 780 LINE",
"1007 780 LINE",
"1007 982 LINE"
);
},
{
closed = 1;
nodes = (
"145 557 LINE",
"145 356 LINE",
"1007 356 LINE",
"1007 557 LINE"
);
}
);
width = 1146;
}
);
note = equal;
unicode = 003D;
},
{
glyphname = greater;
lastChange = "2019-02-04 10:03:05 +0000";
layers = (
{
layerId = "BC02B84D-1250-4FEC-829E-45FBAB526404";
paths = (
{
closed = 1;
nodes = (
"128 165 LINE",
"992 537 LINE",
"992 730 LINE",
"128 1102 LINE",
"128 863 LINE",
"746 636 LINE",
"128 404 LINE"
);
}
);
width = 1066;
}
);
note = greater;
unicode = 003E;
},
{
glyphname = question;
lastChange = "2019-02-04 10:03:05 +0000";
layers = (
{
layerId = "BC02B84D-1250-4FEC-829E-45FBAB526404";
paths = (
{
closed = 1;
nodes = (
"578 524 OFFCURVE",
"601 597 OFFCURVE",
"645 647 CURVE",
"768 768 LINE SMOOTH",
"869 873 OFFCURVE",
"920 980 OFFCURVE",
"920 1089 CURVE SMOOTH",
"920 1333 OFFCURVE",
"762 1476 OFFCURVE",
"494 1476 CURVE SMOOTH",
"234 1476 OFFCURVE",
"63 1329 OFFCURVE",
"60 1093 CURVE",
"303 1093 LINE",
"303 1204 OFFCURVE",
"379 1273 OFFCURVE",
"494 1273 CURVE SMOOTH",
"614 1273 OFFCURVE",
"677 1205 OFFCURVE",
"677 1080 CURVE SMOOTH",
"677 985 OFFCURVE",
"644 940 OFFCURVE",
"514 814 CURVE SMOOTH",
"384 688 OFFCURVE",
"350 605 OFFCURVE",
"350 428 CURVE",
"577 428 LINE"
);
},
{
closed = 1;
nodes = (
"333 44 OFFCURVE",
"382 -12 OFFCURVE",
"470 -12 CURVE SMOOTH",
"558 -12 OFFCURVE",
"608 44 OFFCURVE",
"608 117 CURVE SMOOTH",
"608 193 OFFCURVE",
"555 249 OFFCURVE",
"470 249 CURVE SMOOTH",
"386 249 OFFCURVE",
"333 196 OFFCURVE",
"333 117 CURVE SMOOTH"
);
}
);
width = 996;
}
);
note = question;
unicode = 003F;
},
{
glyphname = at;
lastChange = "2019-02-04 10:03:05 +0000";
layers = (
{
layerId = "BC02B84D-1250-4FEC-829E-45FBAB526404";
paths = (
{
closed = 1;
nodes = (
"1749 702 OFFCURVE",
"1723 863 OFFCURVE",
"1664 1000 CURVE SMOOTH",
"1545 1274 OFFCURVE",
"1299 1424 OFFCURVE",
"967 1424 CURVE SMOOTH",
"639 1424 OFFCURVE",
"373 1255 OFFCURVE",
"225 964 CURVE SMOOTH",
"77 672 OFFCURVE",
"60 247 OFFCURVE",
"185 -34 CURVE SMOOTH",
"306 -306 OFFCURVE",
"555 -453 OFFCURVE",
"894 -453 CURVE SMOOTH",
"1034 -453 OFFCURVE",
"1186 -417 OFFCURVE",
"1267 -364 CURVE",
"1229 -227 LINE",
"1144 -272 OFFCURVE",
"1010 -301 OFFCURVE",
"898 -301 CURVE SMOOTH",
"760 -301 OFFCURVE",
"643 -271 OFFCURVE",
"548 -210 CURVE SMOOTH",
"356 -89 OFFCURVE",
"261 150 OFFCURVE",
"277 471 CURVE SMOOTH",
"283 629 OFFCURVE",
"316 770 OFFCURVE",
"375 894 CURVE SMOOTH",
"494 1141 OFFCURVE",
"702 1275 OFFCURVE",
"963 1275 CURVE SMOOTH",
"1390 1275 OFFCURVE",
"1608 1006 OFFCURVE",
"1585 514 CURVE SMOOTH",
"1577 282 OFFCURVE",
"1482 121 OFFCURVE",
"1346 121 CURVE SMOOTH",
"1257 121 OFFCURVE",
"1219 187 OFFCURVE",
"1232 319 CURVE SMOOTH",
"1284 882 LINE",
"1168 970 OFFCURVE",
"1096 990 OFFCURVE",
"984 990 CURVE SMOOTH",
"911 990 OFFCURVE",
"842 966 OFFCURVE",
"777 919 CURVE SMOOTH",
"647 823 OFFCURVE",
"557 639 OFFCURVE",
"536 422 CURVE SMOOTH",
"512 154 OFFCURVE",
"620 -19 OFFCURVE",
"815 -19 CURVE SMOOTH",
"914 -19 OFFCURVE",
"1007 32 OFFCURVE",
"1075 133 CURVE",
"1116 30 OFFCURVE",
"1196 -21 OFFCURVE",
"1317 -21 CURVE SMOOTH",
"1570 -21 OFFCURVE",
"1725 185 OFFCURVE",
"1741 518 CURVE SMOOTH"
);
},
{
closed = 1;
nodes = (
"757 694 OFFCURVE",
"854 835 OFFCURVE",
"1002 835 CURVE SMOOTH",
"1033 835 OFFCURVE",
"1066 829 OFFCURVE",
"1099 816 CURVE",
"1054 323 LINE",
"1014 212 OFFCURVE",
"946 145 OFFCURVE",
"874 145 CURVE SMOOTH",
"766 145 OFFCURVE",
"715 241 OFFCURVE",
"732 422 CURVE SMOOTH"
);
}
);
width = 1832;
}
);
note = at;
unicode = 0040;
},
{
glyphname = A;
lastChange = "2019-02-04 10:03:05 +0000";
layers = (
{
layerId = "BC02B84D-1250-4FEC-829E-45FBAB526404";
paths = (
{
closed = 1;
nodes = (
"1346 0 LINE",
"795 1456 LINE",
"568 1456 LINE",
"18 0 LINE",
"281 0 LINE",
"399 339 LINE",
"963 339 LINE",
"1082 0 LINE"
);
},
{
closed = 1;
nodes = (
"892 543 LINE",
"470 543 LINE",
"681 1147 LINE"
);
}
);
width = 1363;
}
);
leftKerningGroup = A;
note = A;
rightKerningGroup = A;
unicode = 0041;
},
{
glyphname = B;
lastChange = "2019-02-04 10:03:05 +0000";
layers = (
{
layerId = "BC02B84D-1250-4FEC-829E-45FBAB526404";
paths = (
{
closed = 1;
nodes = (
"1006 0 OFFCURVE",
"1187 152 OFFCURVE",
"1187 425 CURVE SMOOTH",
"1187 590 OFFCURVE",
"1097 715 OFFCURVE",
"940 758 CURVE",
"1079 817 OFFCURVE",
"1152 929 OFFCURVE",
"1152 1062 CURVE SMOOTH",
"1152 1323 OFFCURVE",
"976 1456 OFFCURVE",
"647 1456 CURVE SMOOTH",
"148 1456 LINE",
"148 0 LINE",
"679 0 LINE SMOOTH"
);
},
{
closed = 1;
nodes = (
"858 654 OFFCURVE",
"935 576 OFFCURVE",
"935 425 CURVE SMOOTH",
"935 285 OFFCURVE",
"841 202 OFFCURVE",
"682 202 CURVE SMOOTH",
"401 202 LINE",
"401 657 LINE",
"703 657 LINE SMOOTH"
);
},
{
closed = 1;
nodes = (
"647 1252 LINE SMOOTH",
"820 1252 OFFCURVE",
"900 1192 OFFCURVE",
"900 1048 CURVE SMOOTH",
"900 917 OFFCURVE",
"806 843 OFFCURVE",
"649 843 CURVE SMOOTH",
"401 843 LINE",
"401 1252 LINE"
);
}
);
width = 1292;
}
);
note = B;
rightKerningGroup = B;
unicode = 0042;
},
{
glyphname = C;
lastChange = "2019-02-04 10:03:05 +0000";
layers = (
{
layerId = "BC02B84D-1250-4FEC-829E-45FBAB526404";
paths = (
{
closed = 1;
nodes = (
"980 266 OFFCURVE",
"887 184 OFFCURVE",
"688 184 CURVE SMOOTH",
"471 184 OFFCURVE",
"356 353 OFFCURVE",
"356 668 CURVE SMOOTH",
"356 797 LINE SMOOTH",
"359 1108 OFFCURVE",
"480 1271 OFFCURVE",
"700 1271 CURVE SMOOTH",
"889 1271 OFFCURVE",
"983 1184 OFFCURVE",
"1007 975 CURVE",
"1259 975 LINE",
"1227 1294 OFFCURVE",
"1021 1476 OFFCURVE",
"700 1476 CURVE SMOOTH",
"581 1476 OFFCURVE",
"476 1448 OFFCURVE",
"385 1391 CURVE SMOOTH",
"203 1278 OFFCURVE",
"102 1061 OFFCURVE",
"102 786 CURVE SMOOTH",
"102 650 LINE SMOOTH",
"104 516 OFFCURVE",
"129 398 OFFCURVE",
"177 297 CURVE SMOOTH",
"273 94 OFFCURVE",
"456 -20 OFFCURVE",
"688 -20 CURVE SMOOTH",
"1020 -20 OFFCURVE",
"1230 163 OFFCURVE",
"1259 474 CURVE",
"1007 474 LINE"
);
}
);
width = 1337;
}
);
leftKerningGroup = C;
note = C;
rightKerningGroup = C;
unicode = 0043;
},
{
glyphname = D;
lastChange = "2019-02-04 10:03:05 +0000";
layers = (
{
layerId = "BC02B84D-1250-4FEC-829E-45FBAB526404";
paths = (
{
closed = 1;
nodes = (
"698 0 OFFCURVE",
"815 28 OFFCURVE",
"917 85 CURVE SMOOTH",
"1120 198 OFFCURVE",
"1234 415 OFFCURVE",
"1234 691 CURVE SMOOTH",
"1234 764 LINE SMOOTH",
"1234 900 OFFCURVE",
"1207 1021 OFFCURVE",
"1152 1126 CURVE SMOOTH",
"1043 1337 OFFCURVE",
"835 1456 OFFCURVE",
"578 1456 CURVE SMOOTH",
"148 1456 LINE",
"148 0 LINE",
"567 0 LINE SMOOTH"
);
},
{
closed = 1;
nodes = (
"839 1252 OFFCURVE",
"980 1081 OFFCURVE",
"980 765 CURVE SMOOTH",
"980 684 LINE SMOOTH",
"977 373 OFFCURVE",
"831 202 OFFCURVE",
"566 202 CURVE SMOOTH",
"401 202 LINE",
"401 1252 LINE",
"578 1252 LINE SMOOTH"
);
}
);
width = 1338;
}
);
note = D;
rightKerningGroup = D;
unicode = 0044;
},
{
glyphname = E;
lastChange = "2019-02-04 10:03:05 +0000";
layers = (
{
layerId = "BC02B84D-1250-4FEC-829E-45FBAB526404";
paths = (
{
closed = 1;
nodes = (
"401 850 LINE",
"401 1252 LINE",
"1093 1252 LINE",
"1093 1456 LINE",
"148 1456 LINE",
"148 0 LINE",
"1100 0 LINE",
"1100 202 LINE",
"401 202 LINE",
"401 650 LINE",
"999 650 LINE",
"999 850 LINE"
);
}
);
width = 1158;
}
);
note = E;
rightKerningGroup = E;
unicode = 0045;
},
{
glyphname = F;
lastChange = "2019-02-04 10:03:05 +0000";
layers = (
{
layerId = "BC02B84D-1250-4FEC-829E-45FBAB526404";
paths = (
{
closed = 1;
nodes = (
"401 819 LINE",
"401 1252 LINE",
"1073 1252 LINE",
"1073 1456 LINE",
"148 1456 LINE",
"148 0 LINE",
"401 0 LINE",
"401 617 LINE",
"987 617 LINE",
"987 819 LINE"
);
}
);
width = 1125;
}
);
note = F;
unicode = 0046;
},
{
glyphname = G;
lastChange = "2019-02-04 10:03:05 +0000";
layers = (
{
layerId = "BC02B84D-1250-4FEC-829E-45FBAB526404";
paths = (
{
closed = 1;
nodes = (
"712 747 LINE",
"712 555 LINE",
"1012 555 LINE",
"1012 270 LINE",
"957 211 OFFCURVE",
"865 182 OFFCURVE",
"736 182 CURVE SMOOTH",
"500 182 OFFCURVE",
"360 364 OFFCURVE",
"360 679 CURVE SMOOTH",
"360 791 LINE SMOOTH",
"364 1107 OFFCURVE",
"483 1273 OFFCURVE",
"710 1273 CURVE SMOOTH",
"885 1273 OFFCURVE",
"987 1185 OFFCURVE",
"1015 1010 CURVE",
"1263 1010 LINE",
"1224 1311 OFFCURVE",
"1029 1476 OFFCURVE",
"705 1476 CURVE SMOOTH",
"328 1476 OFFCURVE",
"106 1215 OFFCURVE",
"106 775 CURVE SMOOTH",
"106 661 LINE SMOOTH",
"108 524 OFFCURVE",
"135 404 OFFCURVE",
"186 301 CURVE SMOOTH",
"288 95 OFFCURVE",
"483 -20 OFFCURVE",
"727 -20 CURVE SMOOTH",
"964 -20 OFFCURVE",
"1159 52 OFFCURVE",
"1264 189 CURVE",
"1264 747 LINE"
);
}
);
width = 1394;
}
);
leftKerningGroup = C;
note = G;
unicode = 0047;
},
{
glyphname = H;
lastChange = "2019-02-04 10:03:05 +0000";
layers = (
{
layerId = "BC02B84D-1250-4FEC-829E-45FBAB526404";
paths = (
{
closed = 1;
nodes = (
"1052 1456 LINE",
"1052 850 LINE",
"401 850 LINE",
"401 1456 LINE",
"148 1456 LINE",
"148 0 LINE",
"401 0 LINE",
"401 647 LINE",
"1052 647 LINE",
"1052 0 LINE",
"1304 0 LINE",
"1304 1456 LINE"
);
}
);
width = 1455;
}
);
note = H;
rightKerningGroup = H;
unicode = 0048;
},
{
glyphname = I;
lastChange = "2019-02-04 10:03:05 +0000";
layers = (
{
layerId = "BC02B84D-1250-4FEC-829E-45FBAB526404";
paths = (
{
closed = 1;
nodes = (
"163 1456 LINE",
"163 0 LINE",
"415 0 LINE",
"415 1456 LINE"
);
}
);
width = 578;
}
);
note = I;
rightKerningGroup = H;
unicode = 0049;
},
{
glyphname = J;
lastChange = "2019-02-04 10:03:05 +0000";
layers = (
{
layerId = "BC02B84D-1250-4FEC-829E-45FBAB526404";
paths = (
{
closed = 1;
nodes = (
"744 277 OFFCURVE",
"657 182 OFFCURVE",
"521 182 CURVE SMOOTH",
"376 182 OFFCURVE",
"297 260 OFFCURVE",
"297 415 CURVE",
"45 415 LINE",
"45 142 OFFCURVE",
"217 -20 OFFCURVE",
"521 -20 CURVE SMOOTH",
"806 -20 OFFCURVE",
"996 156 OFFCURVE",
"996 435 CURVE SMOOTH",
"996 1456 LINE",
"744 1456 LINE",
"744 436 LINE SMOOTH"
);
}
);
width = 1137;
}
);
leftKerningGroup = J;
note = J;
rightKerningGroup = J;
unicode = 004A;
},
{
glyphname = K;
lastChange = "2019-02-04 10:03:05 +0000";
layers = (
{
layerId = "BC02B84D-1250-4FEC-829E-45FBAB526404";
paths = (
{
closed = 1;
nodes = (
"1304 0 LINE",
"732 811 LINE",
"1273 1456 LINE",
"967 1456 LINE",
"541 946 LINE",
"401 773 LINE",
"401 1456 LINE",
"148 1456 LINE",
"148 0 LINE",
"401 0 LINE",
"401 454 LINE",
"566 629 LINE",
"1004 0 LINE"
);
}
);
width = 1291;
}
);
note = K;
rightKerningGroup = K;
unicode = 004B;
},
{
glyphname = L;
lastChange = "2019-02-04 10:03:05 +0000";
layers = (
{
layerId = "BC02B84D-1250-4FEC-829E-45FBAB526404";
paths = (
{
closed = 1;
nodes = (
"148 1456 LINE",
"148 0 LINE",
"1062 0 LINE",
"1062 202 LINE",
"401 202 LINE",
"401 1456 LINE"
);
}
);
width = 1108;
}
);
note = L;
rightKerningGroup = L;
unicode = 004C;
},
{
glyphname = M;
lastChange = "2019-02-04 10:03:05 +0000";
layers = (
{
layerId = "BC02B84D-1250-4FEC-829E-45FBAB526404";
paths = (
{
closed = 1;
nodes = (
"148 0 LINE",
"400 0 LINE",
"400 480 LINE",
"375 1121 LINE",
"804 0 LINE",
"985 0 LINE",
"1415 1122 LINE",
"1390 480 LINE",
"1390 0 LINE",
"1642 0 LINE",
"1642 1456 LINE",
"1315 1456 LINE",
"896 340 LINE",
"476 1456 LINE",
"148 1456 LINE"
);
}
);
width = 1793;
}
);
note = M;
rightKerningGroup = H;
unicode = 004D;
},
{
glyphname = N;
lastChange = "2019-02-04 10:03:05 +0000";
layers = (
{
layerId = "BC02B84D-1250-4FEC-829E-45FBAB526404";
paths = (
{
closed = 1;
nodes = (
"1052 1456 LINE",
"1052 419 LINE",
"401 1456 LINE",
"148 1456 LINE",
"148 0 LINE",
"401 0 LINE",
"401 1033 LINE",
"1050 0 LINE",
"1303 0 LINE",
"1303 1456 LINE"
);
}
);
width = 1454;
}
);
note = N;
rightKerningGroup = H;
unicode = 004E;
},
{
glyphname = O;
lastChange = "2019-02-04 10:03:05 +0000";
layers = (
{
layerId = "BC02B84D-1250-4FEC-829E-45FBAB526404";
paths = (
{
closed = 1;
nodes = (
"1309 913 OFFCURVE",
"1284 1038 OFFCURVE",
"1234 1145 CURVE SMOOTH",
"1134 1359 OFFCURVE",
"943 1476 OFFCURVE",
"706 1476 CURVE SMOOTH",
"587 1476 OFFCURVE",
"482 1447 OFFCURVE",
"391 1390 CURVE SMOOTH",
"207 1274 OFFCURVE",
"102 1048 OFFCURVE",
"102 764 CURVE SMOOTH",
"102 682 LINE SMOOTH",
"103 543 OFFCURVE",
"128 420 OFFCURVE",
"179 313 CURVE SMOOTH",
"279 100 OFFCURVE",
"472 -20 OFFCURVE",
"708 -20 CURVE SMOOTH",
"827 -20 OFFCURVE",
"933 9 OFFCURVE",
"1025 67 CURVE SMOOTH",
"1208 182 OFFCURVE",
"1310 405 OFFCURVE",
"1310 690 CURVE SMOOTH",
"1310 771 LINE"
);
},
{
closed = 1;
nodes = (
"1057 362 OFFCURVE",
"932 188 OFFCURVE",
"708 188 CURVE SMOOTH",
"487 188 OFFCURVE",
"355 370 OFFCURVE",
"355 690 CURVE SMOOTH",
"355 774 LINE SMOOTH",
"358 1087 OFFCURVE",
"487 1266 OFFCURVE",
"706 1266 CURVE SMOOTH",
"930 1266 OFFCURVE",
"1057 1089 OFFCURVE",
"1057 766 CURVE SMOOTH",
"1057 690 LINE SMOOTH"
);
}
);
width = 1414;
}
);
leftKerningGroup = C;
note = O;
rightKerningGroup = D;
unicode = 004F;
},
{
glyphname = P;
lastChange = "2019-02-04 10:03:05 +0000";
layers = (
{
layerId = "BC02B84D-1250-4FEC-829E-45FBAB526404";
paths = (
{
closed = 1;
nodes = (
"1039 541 OFFCURVE",
"1236 708 OFFCURVE",
"1236 993 CURVE SMOOTH",
"1236 1272 OFFCURVE",
"1030 1456 OFFCURVE",
"705 1456 CURVE SMOOTH",
"148 1456 LINE",
"148 0 LINE",
"401 0 LINE",
"401 541 LINE",
"702 541 LINE SMOOTH"
);
},
{
closed = 1;
nodes = (
"712 1252 LINE SMOOTH",
"880 1249 OFFCURVE",
"982 1148 OFFCURVE",
"982 991 CURVE SMOOTH",
"982 831 OFFCURVE",
"885 744 OFFCURVE",
"705 744 CURVE SMOOTH",
"401 744 LINE",
"401 1252 LINE"
);
}
);
width = 1309;
}
);
note = P;
rightKerningGroup = P;
unicode = 0050;
},
{
glyphname = Q;
lastChange = "2019-02-04 10:03:05 +0000";
layers = (
{
layerId = "BC02B84D-1250-4FEC-829E-45FBAB526404";
paths = (
{
closed = 1;
nodes = (
"1304 913 OFFCURVE",
"1279 1038 OFFCURVE",
"1229 1145 CURVE SMOOTH",
"1129 1359 OFFCURVE",
"939 1476 OFFCURVE",
"699 1476 CURVE SMOOTH",
"581 1476 OFFCURVE",
"476 1447 OFFCURVE",
"385 1390 CURVE SMOOTH",
"201 1274 OFFCURVE",
"96 1048 OFFCURVE",
"96 764 CURVE SMOOTH",
"96 682 LINE SMOOTH",
"97 543 OFFCURVE",
"122 420 OFFCURVE",
"173 313 CURVE SMOOTH",
"273 100 OFFCURVE",
"466 -20 OFFCURVE",
"701 -20 CURVE SMOOTH",
"748 -20 OFFCURVE",
"791 -16 OFFCURVE",
"832 -7 CURVE",
"1142 -252 LINE",
"1306 -104 LINE",
"1056 91 LINE",
"1213 210 OFFCURVE",
"1305 414 OFFCURVE",
"1305 690 CURVE SMOOTH",
"1305 771 LINE"
);
},
{
closed = 1;
nodes = (
"1051 362 OFFCURVE",
"926 188 OFFCURVE",
"701 188 CURVE SMOOTH",
"478 188 OFFCURVE",
"349 375 OFFCURVE",
"349 690 CURVE SMOOTH",
"349 775 LINE SMOOTH",
"352 1087 OFFCURVE",
"482 1266 OFFCURVE",
"699 1266 CURVE SMOOTH",
"923 1266 OFFCURVE",
"1051 1094 OFFCURVE",
"1051 766 CURVE SMOOTH",
"1051 690 LINE SMOOTH"
);
}
);
width = 1414;
}
);
leftKerningGroup = C;
note = Q;
unicode = 0051;
},
{
glyphname = R;
lastChange = "2019-02-04 10:03:05 +0000";
layers = (
{
layerId = "BC02B84D-1250-4FEC-829E-45FBAB526404";
paths = (
{
closed = 1;
nodes = (
"1246 0 LINE",
"1246 13 LINE",
"919 620 LINE",
"1087 691 OFFCURVE",
"1186 821 OFFCURVE",
"1186 1016 CURVE SMOOTH",
"1186 1301 OFFCURVE",
"996 1456 OFFCURVE",
"660 1456 CURVE SMOOTH",
"148 1456 LINE",
"148 0 LINE",
"401 0 LINE",
"401 561 LINE",
"683 561 LINE",
"975 0 LINE"
);
},
{
closed = 1;
nodes = (
"668 1252 LINE SMOOTH",
"844 1249 OFFCURVE",
"933 1161 OFFCURVE",
"933 1005 CURVE SMOOTH",
"933 856 OFFCURVE",
"832 764 OFFCURVE",
"661 764 CURVE SMOOTH",
"401 764 LINE",
"401 1252 LINE"
);
}
);
width = 1278;
}
);
note = R;
unicode = 0052;
},
{
glyphname = S;
lastChange = "2019-02-04 10:03:05 +0000";
layers = (
{
layerId = "BC02B84D-1250-4FEC-829E-45FBAB526404";
paths = (
{
closed = 1;
nodes = (
"909 258 OFFCURVE",
"820 180 OFFCURVE",
"644 180 CURVE SMOOTH",
"440 180 OFFCURVE",
"327 275 OFFCURVE",
"327 440 CURVE",
"74 440 LINE",
"74 349 OFFCURVE",
"99 269 OFFCURVE",
"148 200 CURVE SMOOTH",
"246 63 OFFCURVE",
"433 -20 OFFCURVE",
"644 -20 CURVE SMOOTH",
"963 -20 OFFCURVE",
"1162 134 OFFCURVE",
"1162 377 CURVE SMOOTH",
"1162 452 OFFCURVE",
"1146 517 OFFCURVE",
"1114 573 CURVE SMOOTH",
"1050 684 OFFCURVE",
"917 768 OFFCURVE",
"690 836 CURVE SMOOTH",
"577 869 OFFCURVE",
"495 904 OFFCURVE",
"446 940 CURVE SMOOTH",
"397 975 OFFCURVE",
"372 1020 OFFCURVE",
"372 1073 CURVE SMOOTH",
"372 1200 OFFCURVE",
"468 1274 OFFCURVE",
"633 1274 CURVE SMOOTH",
"810 1274 OFFCURVE",
"909 1183 OFFCURVE",
"909 1031 CURVE",
"1161 1031 LINE",
"1161 1115 OFFCURVE",
"1138 1192 OFFCURVE",
"1093 1261 CURVE SMOOTH",
"1002 1399 OFFCURVE",
"838 1476 OFFCURVE",
"635 1476 CURVE SMOOTH",
"330 1476 OFFCURVE",
"119 1307 OFFCURVE",
"119 1072 CURVE SMOOTH",
"119 804 OFFCURVE",
"363 699 OFFCURVE",
"598 628 CURVE SMOOTH",
"833 557 OFFCURVE",
"909 503 OFFCURVE",
"909 375 CURVE SMOOTH"
);
}
);
width = 1236;
}
);
leftKerningGroup = S;
note = S;
unicode = 0053;
},
{
glyphname = T;
lastChange = "2019-02-04 10:03:05 +0000";
layers = (
{
layerId = "BC02B84D-1250-4FEC-829E-45FBAB526404";
paths = (
{
closed = 1;
nodes = (
"45 1456 LINE",
"45 1252 LINE",
"495 1252 LINE",
"495 0 LINE",
"746 0 LINE",
"746 1252 LINE",
"1200 1252 LINE",
"1200 1456 LINE"
);
}
);
width = 1243;
}
);
leftKerningGroup = T;
note = T;
rightKerningGroup = T;
unicode = 0054;
},
{
glyphname = U;
lastChange = "2019-02-04 10:03:05 +0000";
layers = (
{
layerId = "BC02B84D-1250-4FEC-829E-45FBAB526404";
paths = (
{
closed = 1;
nodes = (
"961 490 LINE SMOOTH",
"961 285 OFFCURVE",
"864 182 OFFCURVE",
"669 182 CURVE SMOOTH",
"477 182 OFFCURVE",
"377 287 OFFCURVE",
"377 482 CURVE SMOOTH",
"377 1456 LINE",
"125 1456 LINE",
"125 484 LINE SMOOTH",
"125 168 OFFCURVE",
"336 -20 OFFCURVE",
"669 -20 CURVE SMOOTH",
"998 -20 OFFCURVE",
"1213 174 OFFCURVE",
"1213 483 CURVE SMOOTH",
"1213 1456 LINE",
"961 1456 LINE"
);
}
);
width = 1335;
}
);
leftKerningGroup = U;
note = U;
rightKerningGroup = J;
unicode = 0055;
},
{
glyphname = V;
lastChange = "2019-02-04 10:03:05 +0000";
layers = (
{
layerId = "BC02B84D-1250-4FEC-829E-45FBAB526404";
paths = (
{
closed = 1;
nodes = (
"18 1456 LINE",
"540 0 LINE",
"785 0 LINE",
"1309 1456 LINE",
"1031 1456 LINE",
"661 317 LINE",
"295 1456 LINE"
);
}
);
width = 1325;
}
);
leftKerningGroup = V;
note = V;
rightKerningGroup = V;
unicode = 0056;
},
{
glyphname = W;
lastChange = "2019-02-04 10:03:05 +0000";
layers = (
{
layerId = "BC02B84D-1250-4FEC-829E-45FBAB526404";
paths = (
{
closed = 1;
nodes = (
"803 1456 LINE",
"525 362 LINE",
"299 1456 LINE",
"48 1456 LINE",
"384 0 LINE",
"627 0 LINE",
"910 1063 LINE",
"1187 0 LINE",
"1429 0 LINE",
"1765 1456 LINE",
"1514 1456 LINE",
"1290 360 LINE",
"1015 1456 LINE"
);
}
);
width = 1802;
}
);
leftKerningGroup = W;
note = W;
rightKerningGroup = W;
unicode = 0057;
},
{
glyphname = X;
lastChange = "2019-02-04 10:03:05 +0000";
layers = (
{
layerId = "BC02B84D-1250-4FEC-829E-45FBAB526404";
paths = (
{
closed = 1;
nodes = (
"51 1456 LINE",
"492 734 LINE",
"41 0 LINE",
"335 0 LINE",
"649 534 LINE",
"962 0 LINE",
"1257 0 LINE",
"807 734 LINE",
"1247 1456 LINE",
"955 1456 LINE",
"649 930 LINE",
"343 1456 LINE"
);
}
);
width = 1296;
}
);
leftKerningGroup = X;
note = X;
rightKerningGroup = X;
unicode = 0058;
},
{
glyphname = Y;
lastChange = "2019-02-04 10:03:05 +0000";
layers = (
{
layerId = "BC02B84D-1250-4FEC-829E-45FBAB526404";
paths = (
{
closed = 1;
nodes = (
"7 1456 LINE",
"496 536 LINE",
"496 0 LINE",
"750 0 LINE",
"750 536 LINE",
"1238 1456 LINE",
"958 1456 LINE",
"623 766 LINE",
"288 1456 LINE"
);
}
);
width = 1248;
}
);
leftKerningGroup = Y;
note = Y;
rightKerningGroup = Y;
unicode = 0059;
},
{
glyphname = Z;
lastChange = "2019-02-04 10:03:05 +0000";
layers = (
{
layerId = "BC02B84D-1250-4FEC-829E-45FBAB526404";
paths = (
{
closed = 1;
nodes = (
"1140 1456 LINE",
"85 1456 LINE",
"85 1252 LINE",
"833 1252 LINE",
"80 164 LINE",
"80 0 LINE",
"1164 0 LINE",
"1164 202 LINE",
"386 202 LINE",
"1140 1296 LINE"
);
}
);
width = 1233;
}
);
leftKerningGroup = Z;
note = Z;
rightKerningGroup = Z;
unicode = 005A;
},
{
glyphname = bracketleft;
lastChange = "2019-02-04 10:03:05 +0000";
layers = (
{
layerId = "BC02B84D-1250-4FEC-829E-45FBAB526404";
paths = (
{
closed = 1;
nodes = (
"132 1678 LINE",
"132 -324 LINE",
"540 -324 LINE",
"540 -135 LINE",
"375 -135 LINE",
"375 1488 LINE",
"540 1488 LINE",
"540 1678 LINE"
);
}
);
width = 561;
}
);
note = bracketleft;
unicode = 005B;
},
{
glyphname = backslash;
lastChange = "2019-02-04 10:03:05 +0000";
layers = (
{
layerId = "BC02B84D-1250-4FEC-829E-45FBAB526404";
paths = (
{
closed = 1;
nodes = (
"868 -125 LINE",
"260 1456 LINE",
"20 1456 LINE",
"628 -125 LINE"
);
}
);
width = 856;
}
);
note = backslash;
unicode = 005C;
},
{
glyphname = bracketright;
lastChange = "2019-02-04 10:03:05 +0000";
layers = (
{
layerId = "BC02B84D-1250-4FEC-829E-45FBAB526404";
paths = (
{
closed = 1;
nodes = (
"179 1488 LINE",
"179 -135 LINE",
"12 -135 LINE",
"12 -324 LINE",
"422 -324 LINE",
"422 1678 LINE",
"12 1678 LINE",
"12 1488 LINE"
);
}
);
width = 561;
}
);
note = bracketright;
unicode = 005D;
},
{
glyphname = asciicircum;
lastChange = "2019-02-04 10:03:05 +0000";
layers = (
{
layerId = "BC02B84D-1250-4FEC-829E-45FBAB526404";
paths = (
{
closed = 1;
nodes = (
"821 729 LINE",
"523 1456 LINE",
"352 1456 LINE",
"53 729 LINE",
"259 729 LINE",
"437 1190 LINE",
"616 729 LINE"
);
}
);
width = 875;
}
);
note = asciicircum;
unicode = 005E;
},
{
glyphname = underscore;
lastChange = "2019-02-04 10:03:05 +0000";
layers = (
{
layerId = "BC02B84D-1250-4FEC-829E-45FBAB526404";
paths = (
{
closed = 1;
nodes = (
"3 0 LINE",
"3 -191 LINE",
"920 -191 LINE",
"920 0 LINE"
);
}
);
width = 924;
}
);
note = underscore;
unicode = 005F;
},
{
glyphname = grave;
lastChange = "2019-02-04 10:03:05 +0000";
layers = (
{
layerId = "BC02B84D-1250-4FEC-829E-45FBAB526404";
paths = (
{
closed = 1;
nodes = (
"49 1536 LINE",
"319 1233 LINE",
"521 1233 LINE",
"326 1536 LINE"
);
}
);
width = 660;
}
);
note = grave;
unicode = 0060;
},
{
glyphname = a;
lastChange = "2019-02-04 10:03:05 +0000";
layers = (
{
layerId = "BC02B84D-1250-4FEC-829E-45FBAB526404";
paths = (
{
closed = 1;
nodes = (
"1019 17 LINE",
"992 75 OFFCURVE",
"978 153 OFFCURVE",
"978 250 CURVE SMOOTH",
"978 738 LINE",
"974 969 OFFCURVE",
"812 1102 OFFCURVE",
"559 1102 CURVE SMOOTH",
"476 1102 OFFCURVE",
"400 1087 OFFCURVE",
"333 1058 CURVE SMOOTH",
"197 999 OFFCURVE",
"113 889 OFFCURVE",
"113 770 CURVE",
"356 770 LINE",
"356 855 OFFCURVE",
"434 917 OFFCURVE",
"545 917 CURVE SMOOTH",
"673 917 OFFCURVE",
"735 844 OFFCURVE",
"735 732 CURVE SMOOTH",
"735 661 LINE",
"586 661 LINE SMOOTH",
"267 661 OFFCURVE",
"90 534 OFFCURVE",
"90 303 CURVE SMOOTH",
"90 120 OFFCURVE",
"242 -20 OFFCURVE",
"459 -20 CURVE SMOOTH",
"571 -20 OFFCURVE",
"666 20 OFFCURVE",
"743 101 CURVE",
"751 54 OFFCURVE",
"760 21 OFFCURVE",
"771 0 CURVE",
"1019 0 LINE"
);
},
{
closed = 1;
nodes = (
"400 175 OFFCURVE",
"333 235 OFFCURVE",
"333 328 CURVE SMOOTH",
"333 443 OFFCURVE",
"424 508 OFFCURVE",
"604 508 CURVE SMOOTH",
"735 508 LINE",
"735 304 LINE",
"692 225 OFFCURVE",
"600 175 OFFCURVE",
"504 175 CURVE SMOOTH"
);
}
);
width = 1108;
}
);
leftKerningGroup = a;
note = a;
rightKerningGroup = a;
unicode = 0061;
},
{
glyphname = b;
lastChange = "2019-02-04 10:03:05 +0000";
layers = (
{
layerId = "BC02B84D-1250-4FEC-829E-45FBAB526404";
paths = (
{
closed = 1;
nodes = (
"1074 896 OFFCURVE",
"914 1102 OFFCURVE",
"650 1102 CURVE SMOOTH",
"531 1102 OFFCURVE",
"437 1061 OFFCURVE",
"367 978 CURVE",
"367 1536 LINE",
"124 1536 LINE",
"124 0 LINE",
"344 0 LINE",
"356 117 LINE",
"427 26 OFFCURVE",
"525 -20 OFFCURVE",
"652 -20 CURVE SMOOTH",
"915 -20 OFFCURVE",
"1074 194 OFFCURVE",
"1074 530 CURVE SMOOTH",
"1074 544 LINE SMOOTH"
);
},
{
closed = 1;
nodes = (
"828 291 OFFCURVE",
"743 178 OFFCURVE",
"591 178 CURVE SMOOTH",
"485 178 OFFCURVE",
"410 225 OFFCURVE",
"367 319 CURVE",
"367 765 LINE",
"410 857 OFFCURVE",
"484 903 OFFCURVE",
"589 903 CURVE SMOOTH",
"746 903 OFFCURVE",
"831 786 OFFCURVE",
"831 551 CURVE SMOOTH",
"831 520 LINE SMOOTH"
);
}
);
width = 1153;
}
);
note = b;
rightKerningGroup = b;
unicode = 0062;
},
{
glyphname = c;
lastChange = "2019-02-04 10:03:05 +0000";
layers = (
{
layerId = "BC02B84D-1250-4FEC-829E-45FBAB526404";
paths = (
{
closed = 1;
nodes = (
"409 174 OFFCURVE",
"322 288 OFFCURVE",
"322 523 CURVE SMOOTH",
"322 562 LINE SMOOTH",
"323 794 OFFCURVE",
"412 907 OFFCURVE",
"569 907 CURVE SMOOTH",
"692 907 OFFCURVE",
"779 818 OFFCURVE",
"784 694 CURVE",
"1013 694 LINE",
"1005 938 OFFCURVE",
"828 1102 OFFCURVE",
"571 1102 CURVE SMOOTH",
"267 1102 OFFCURVE",
"79 887 OFFCURVE",
"79 558 CURVE SMOOTH",
"79 533 LINE SMOOTH",
"79 188 OFFCURVE",
"269 -20 OFFCURVE",
"572 -20 CURVE SMOOTH",
"650 -20 OFFCURVE",
"723 -3 OFFCURVE",
"790 31 CURVE SMOOTH",
"925 99 OFFCURVE",
"1008 223 OFFCURVE",
"1013 358 CURVE",
"784 358 LINE",
"779 254 OFFCURVE",
"690 174 OFFCURVE",
"569 174 CURVE SMOOTH"
);
}
);
width = 1072;
}
);
leftKerningGroup = c;
note = c;
rightKerningGroup = c;
unicode = 0063;
},
{
glyphname = d;
lastChange = "2019-02-04 10:03:05 +0000";
layers = (
{
layerId = "BC02B84D-1250-4FEC-829E-45FBAB526404";
paths = (
{
closed = 1;
nodes = (
"79 198 OFFCURVE",
"251 -20 OFFCURVE",
"504 -20 CURVE SMOOTH",
"625 -20 OFFCURVE",
"722 24 OFFCURVE",
"795 112 CURVE",
"807 0 LINE",
"1027 0 LINE",
"1027 1536 LINE",
"784 1536 LINE",
"784 982 LINE",
"713 1062 OFFCURVE",
"621 1102 OFFCURVE",
"506 1102 CURVE SMOOTH",
"246 1102 OFFCURVE",
"79 882 OFFCURVE",
"79 549 CURVE SMOOTH"
);
},
{
closed = 1;
nodes = (
"322 779 OFFCURVE",
"411 903 OFFCURVE",
"568 903 CURVE SMOOTH",
"667 903 OFFCURVE",
"739 860 OFFCURVE",
"784 773 CURVE",
"784 311 LINE",
"738 222 OFFCURVE",
"665 178 OFFCURVE",
"566 178 CURVE SMOOTH",
"410 178 OFFCURVE",
"322 308 OFFCURVE",
"322 528 CURVE SMOOTH"
);
}
);
width = 1156;
}
);
leftKerningGroup = c;
note = d;
unicode = 0064;
},
{
glyphname = e;
lastChange = "2019-02-04 10:03:05 +0000";
layers = (
{
layerId = "BC02B84D-1250-4FEC-829E-45FBAB526404";
paths = (
{
closed = 1;
nodes = (
"781 -20 OFFCURVE",
"931 55 OFFCURVE",
"1018 184 CURVE",
"887 309 LINE",
"817 219 OFFCURVE",
"726 174 OFFCURVE",
"615 174 CURVE SMOOTH",
"456 174 OFFCURVE",
"343 285 OFFCURVE",
"328 464 CURVE",
"1035 464 LINE",
"1035 562 LINE SMOOTH",
"1035 906 OFFCURVE",
"868 1102 OFFCURVE",
"573 1102 CURVE SMOOTH",
"480 1102 OFFCURVE",
"396 1078 OFFCURVE",
"321 1031 CURVE SMOOTH",
"170 936 OFFCURVE",
"83 759 OFFCURVE",
"83 543 CURVE SMOOTH",
"83 513 LINE SMOOTH",
"83 190 OFFCURVE",
"293 -20 OFFCURVE",
"601 -20 CURVE SMOOTH"
);
},
{
closed = 1;
nodes = (
"707 907 OFFCURVE",
"784 823 OFFCURVE",
"795 660 CURVE",
"795 642 LINE",
"332 642 LINE",
"355 809 OFFCURVE",
"439 907 OFFCURVE",
"572 907 CURVE SMOOTH"
);
}
);
width = 1099;
}
);
leftKerningGroup = c;
note = e;
rightKerningGroup = e;
unicode = 0065;
},
{
glyphname = f;
lastChange = "2019-02-04 10:03:05 +0000";
layers = (
{
layerId = "BC02B84D-1250-4FEC-829E-45FBAB526404";
paths = (
{
closed = 1;
nodes = (
"453 902 LINE",
"673 902 LINE",
"673 1082 LINE",
"453 1082 LINE",
"453 1178 LINE SMOOTH",
"453 1297 OFFCURVE",
"511 1357 OFFCURVE",
"627 1357 CURVE SMOOTH",
"662 1357 OFFCURVE",
"693 1354 OFFCURVE",
"720 1349 CURVE",
"726 1539 LINE",
"678 1551 OFFCURVE",
"633 1557 OFFCURVE",
"590 1557 CURVE SMOOTH",
"350 1557 OFFCURVE",
"210 1421 OFFCURVE",
"210 1181 CURVE SMOOTH",
"210 1082 LINE",
"45 1082 LINE",
"45 902 LINE",
"210 902 LINE",
"210 0 LINE",
"453 0 LINE"
);
}
);
width = 726;
}
);
note = f;
unicode = 0066;
},
{
glyphname = g;
lastChange = "2019-02-04 10:03:05 +0000";
layers = (
{
layerId = "BC02B84D-1250-4FEC-829E-45FBAB526404";
paths = (
{
closed = 1;
nodes = (
"82 193 OFFCURVE",
"260 -20 OFFCURVE",
"513 -20 CURVE SMOOTH",
"630 -20 OFFCURVE",
"723 19 OFFCURVE",
"793 97 CURVE",
"793 24 LINE SMOOTH",
"793 -145 OFFCURVE",
"693 -234 OFFCURVE",
"532 -234 CURVE SMOOTH",
"423 -234 OFFCURVE",
"331 -190 OFFCURVE",
"256 -101 CURVE",
"141 -247 LINE",
"220 -354 OFFCURVE",
"387 -426 OFFCURVE",
"546 -426 CURVE SMOOTH",
"846 -426 OFFCURVE",
"1036 -251 OFFCURVE",
"1036 33 CURVE SMOOTH",
"1036 1082 LINE",
"817 1082 LINE",
"806 973 LINE",
"735 1059 OFFCURVE",
"638 1102 OFFCURVE",
"515 1102 CURVE SMOOTH",
"254 1102 OFFCURVE",
"82 885 OFFCURVE",
"82 549 CURVE SMOOTH"
);
},
{
closed = 1;
nodes = (
"324 775 OFFCURVE",
"417 903 OFFCURVE",
"577 903 CURVE SMOOTH",
"675 903 OFFCURVE",
"747 862 OFFCURVE",
"793 780 CURVE",
"793 304 LINE",
"746 220 OFFCURVE",
"673 178 OFFCURVE",
"575 178 CURVE SMOOTH",
"418 178 OFFCURVE",
"324 311 OFFCURVE",
"324 528 CURVE SMOOTH"
);
}
);
width = 1161;
}
);
leftKerningGroup = c;
note = g;
unicode = 0067;
},
{
glyphname = h;
lastChange = "2019-02-04 10:03:05 +0000";
layers = (
{
layerId = "BC02B84D-1250-4FEC-829E-45FBAB526404";
paths = (
{
closed = 1;
nodes = (
"121 1536 LINE",
"121 0 LINE",
"364 0 LINE",
"364 773 LINE",
"412 860 OFFCURVE",
"485 903 OFFCURVE",
"582 903 CURVE SMOOTH",
"707 903 OFFCURVE",
"773 847 OFFCURVE",
"773 698 CURVE SMOOTH",
"773 0 LINE",
"1016 0 LINE",
"1016 707 LINE",
"1013 970 OFFCURVE",
"896 1102 OFFCURVE",
"665 1102 CURVE SMOOTH",
"544 1102 OFFCURVE",
"443 1056 OFFCURVE",
"364 964 CURVE",
"364 1536 LINE"
);
}
);
width = 1137;
}
);
note = h;
rightKerningGroup = h;
unicode = 0068;
},
{
glyphname = i;
lastChange = "2019-02-04 10:03:05 +0000";
layers = (
{
layerId = "BC02B84D-1250-4FEC-829E-45FBAB526404";
paths = (
{
closed = 1;
nodes = (
"140 1082 LINE",
"140 0 LINE",
"383 0 LINE",
"383 1082 LINE"
);
},
{
closed = 1;
nodes = (
"125 1290 OFFCURVE",
"174 1235 OFFCURVE",
"262 1235 CURVE SMOOTH",
"350 1235 OFFCURVE",
"400 1290 OFFCURVE",
"400 1363 CURVE SMOOTH",
"400 1438 OFFCURVE",
"350 1493 OFFCURVE",
"262 1493 CURVE SMOOTH",
"174 1493 OFFCURVE",
"125 1438 OFFCURVE",
"125 1363 CURVE SMOOTH"
);
}
);
width = 523;
}
);
note = i;
unicode = 0069;
},
{
glyphname = j;
lastChange = "2019-02-04 10:03:05 +0000";
layers = (
{
layerId = "BC02B84D-1250-4FEC-829E-45FBAB526404";
paths = (
{
closed = 1;
nodes = (
"135 -105 LINE SMOOTH",
"133 -193 OFFCURVE",
"92 -237 OFFCURVE",
"11 -237 CURVE SMOOTH",
"-21 -237 OFFCURVE",
"-50 -234 OFFCURVE",
"-75 -228 CURVE",
"-75 -420 LINE",
"-34 -431 OFFCURVE",
"9 -437 OFFCURVE",
"54 -437 CURVE SMOOTH",
"266 -437 OFFCURVE",
"378 -317 OFFCURVE",
"378 -96 CURVE SMOOTH",
"378 1082 LINE",
"135 1082 LINE"
);
},
{
closed = 1;
nodes = (
"114 1290 OFFCURVE",
"163 1235 OFFCURVE",
"251 1235 CURVE SMOOTH",
"339 1235 OFFCURVE",
"389 1290 OFFCURVE",
"389 1363 CURVE SMOOTH",
"389 1438 OFFCURVE",
"339 1493 OFFCURVE",
"251 1493 CURVE SMOOTH",
"163 1493 OFFCURVE",
"114 1438 OFFCURVE",
"114 1363 CURVE SMOOTH"
);
}
);
width = 513;
}
);
note = j;
unicode = 006A;
},
{
glyphname = k;
lastChange = "2019-02-04 10:03:05 +0000";
layers = (
{
layerId = "BC02B84D-1250-4FEC-829E-45FBAB526404";
paths = (
{
closed = 1;
nodes = (
"1078 0 LINE",
"633 631 LINE",
"1035 1082 LINE",
"743 1082 LINE",
"444 745 LINE",
"368 650 LINE",
"368 1536 LINE",
"125 1536 LINE",
"125 0 LINE",
"368 0 LINE",
"368 353 LINE",
"476 464 LINE",
"797 0 LINE"
);
}
);
width = 1069;
}
);
note = k;
unicode = 006B;
},
{
glyphname = l;
lastChange = "2019-02-04 10:03:05 +0000";
layers = (
{
layerId = "BC02B84D-1250-4FEC-829E-45FBAB526404";
paths = (
{
closed = 1;
nodes = (
"140 1536 LINE",
"140 0 LINE",
"383 0 LINE",
"383 1536 LINE"
);
}
);
width = 523;
}
);
note = l;
unicode = 006C;
},
{
glyphname = m;
lastChange = "2019-02-04 10:03:05 +0000";
layers = (
{
layerId = "BC02B84D-1250-4FEC-829E-45FBAB526404";
paths = (
{
closed = 1;
nodes = (
"124 0 LINE",
"367 0 LINE",
"367 784 LINE",
"408 863 OFFCURVE",
"477 903 OFFCURVE",
"574 903 CURVE SMOOTH",
"701 903 OFFCURVE",
"766 839 OFFCURVE",
"769 712 CURVE SMOOTH",
"769 0 LINE",
"1012 0 LINE",
"1011 742 LINE",
"1039 838 OFFCURVE",
"1109 903 OFFCURVE",
"1220 903 CURVE SMOOTH",
"1359 903 OFFCURVE",
"1414 841 OFFCURVE",
"1414 704 CURVE SMOOTH",
"1414 0 LINE",
"1657 0 LINE",
"1657 711 LINE",
"1654 968 OFFCURVE",
"1540 1102 OFFCURVE",
"1301 1102 CURVE SMOOTH",
"1158 1102 OFFCURVE",
"1048 1047 OFFCURVE",
"969 936 CURVE",
"916 1047 OFFCURVE",
"817 1102 OFFCURVE",
"672 1102 CURVE SMOOTH",
"540 1102 OFFCURVE",
"436 1058 OFFCURVE",
"360 969 CURVE",
"353 1082 LINE",
"124 1082 LINE"
);
}
);
width = 1782;
}
);
leftKerningGroup = m;
note = m;
rightKerningGroup = h;
unicode = 006D;
},
{
glyphname = n;
lastChange = "2019-02-04 10:03:05 +0000";
layers = (
{
layerId = "BC02B84D-1250-4FEC-829E-45FBAB526404";
paths = (
{
closed = 1;
nodes = (
"121 0 LINE",
"364 0 LINE",
"364 770 LINE",
"412 859 OFFCURVE",
"485 903 OFFCURVE",
"583 903 CURVE SMOOTH",
"718 903 OFFCURVE",
"773 838 OFFCURVE",
"773 701 CURVE SMOOTH",
"773 0 LINE",
"1016 0 LINE",
"1016 715 LINE",
"1012 973 OFFCURVE",
"897 1102 OFFCURVE",
"672 1102 CURVE SMOOTH",
"542 1102 OFFCURVE",
"437 1054 OFFCURVE",
"357 957 CURVE",
"350 1082 LINE",
"121 1082 LINE"
);
}
);
width = 1139;
}
);
leftKerningGroup = m;
note = n;
rightKerningGroup = h;
unicode = 006E;
},
{
glyphname = o;
lastChange = "2019-02-04 10:03:05 +0000";
layers = (
{
layerId = "BC02B84D-1250-4FEC-829E-45FBAB526404";
paths = (
{
closed = 1;
nodes = (
"79 200 OFFCURVE",
"278 -20 OFFCURVE",
"583 -20 CURVE SMOOTH",
"683 -20 OFFCURVE",
"771 3 OFFCURVE",
"848 49 CURVE SMOOTH",
"1000 141 OFFCURVE",
"1085 317 OFFCURVE",
"1085 530 CURVE",
"1084 587 LINE SMOOTH",
"1069 898 OFFCURVE",
"873 1102 OFFCURVE",
"581 1102 CURVE SMOOTH",
"482 1102 OFFCURVE",
"395 1079 OFFCURVE",
"319 1034 CURVE SMOOTH",
"167 942 OFFCURVE",
"79 763 OFFCURVE",
"79 551 CURVE SMOOTH",
"79 539 LINE SMOOTH"
);
},
{
closed = 1;
nodes = (
"322 781 OFFCURVE",
"422 907 OFFCURVE",
"581 907 CURVE SMOOTH",
"742 907 OFFCURVE",
"843 770 OFFCURVE",
"843 551 CURVE SMOOTH",
"843 304 OFFCURVE",
"747 174 OFFCURVE",
"583 174 CURVE SMOOTH",
"419 174 OFFCURVE",
"322 307 OFFCURVE",
"322 530 CURVE SMOOTH"
);
}
);
width = 1166;
}
);
leftKerningGroup = o;
note = o;
rightKerningGroup = o;
unicode = 006F;
},
{
glyphname = p;
lastChange = "2019-02-04 10:03:05 +0000";
layers = (
{
layerId = "BC02B84D-1250-4FEC-829E-45FBAB526404";
paths = (
{
closed = 1;
nodes = (
"1072 894 OFFCURVE",
"913 1102 OFFCURVE",
"649 1102 CURVE SMOOTH",
"526 1102 OFFCURVE",
"429 1059 OFFCURVE",
"358 972 CURVE",
"348 1082 LINE",
"124 1082 LINE",
"124 -416 LINE",
"367 -416 LINE",
"367 97 LINE",
"438 19 OFFCURVE",
"533 -20 OFFCURVE",
"652 -20 CURVE SMOOTH",
"908 -20 OFFCURVE",
"1072 195 OFFCURVE",
"1072 530 CURVE SMOOTH",
"1072 545 LINE SMOOTH"
);
},
{
closed = 1;
nodes = (
"830 298 OFFCURVE",
"738 174 OFFCURVE",
"583 174 CURVE SMOOTH",
"483 174 OFFCURVE",
"411 216 OFFCURVE",
"367 300 CURVE",
"367 780 LINE",
"410 862 OFFCURVE",
"482 903 OFFCURVE",
"581 903 CURVE SMOOTH",
"741 903 OFFCURVE",
"830 767 OFFCURVE",
"830 551 CURVE SMOOTH"
);
}
);
width = 1153;
}
);
leftKerningGroup = m;
note = p;
rightKerningGroup = b;
unicode = 0070;
},
{
glyphname = q;
lastChange = "2019-02-04 10:03:05 +0000";
layers = (
{
layerId = "BC02B84D-1250-4FEC-829E-45FBAB526404";
paths = (
{
closed = 1;
nodes = (
"79 194 OFFCURVE",
"248 -20 OFFCURVE",
"507 -20 CURVE SMOOTH",
"620 -20 OFFCURVE",
"712 17 OFFCURVE",
"783 92 CURVE",
"783 -416 LINE",
"1026 -416 LINE",
"1026 1082 LINE",
"810 1082 LINE",
"796 975 LINE",
"725 1060 OFFCURVE",
"630 1102 OFFCURVE",
"509 1102 CURVE SMOOTH",
"245 1102 OFFCURVE",
"79 889 OFFCURVE",
"79 550 CURVE SMOOTH"
);
},
{
closed = 1;
nodes = (
"322 785 OFFCURVE",
"416 907 OFFCURVE",
"571 907 CURVE SMOOTH",
"666 907 OFFCURVE",
"736 868 OFFCURVE",
"783 789 CURVE",
"783 297 LINE",
"736 215 OFFCURVE",
"665 174 OFFCURVE",
"569 174 CURVE SMOOTH",
"414 174 OFFCURVE",
"322 308 OFFCURVE",
"322 529 CURVE SMOOTH"
);
}
);
width = 1163;
}
);
leftKerningGroup = c;
note = q;
unicode = 0071;
},
{
glyphname = r;
lastChange = "2019-02-04 10:03:05 +0000";
layers = (
{
layerId = "BC02B84D-1250-4FEC-829E-45FBAB526404";
paths = (
{
closed = 1;
nodes = (
"669 1097 OFFCURVE",
"641 1102 OFFCURVE",
"606 1102 CURVE SMOOTH",
"502 1102 OFFCURVE",
"421 1055 OFFCURVE",
"362 961 CURVE",
"356 1082 LINE",
"124 1082 LINE",
"124 0 LINE",
"367 0 LINE",
"367 740 LINE",
"406 825 OFFCURVE",
"481 868 OFFCURVE",
"592 868 CURVE SMOOTH",
"626 868 OFFCURVE",
"659 865 OFFCURVE",
"691 860 CURVE",
"692 1088 LINE"
);
}
);
width = 720;
}
);
note = r;
rightKerningGroup = r;
unicode = 0072;
},
{
glyphname = s;
lastChange = "2019-02-04 10:03:05 +0000";
layers = (
{
layerId = "BC02B84D-1250-4FEC-829E-45FBAB526404";
paths = (
{
closed = 1;
nodes = (
"731 215 OFFCURVE",
"663 162 OFFCURVE",
"535 162 CURVE SMOOTH",
"403 162 OFFCURVE",
"318 226 OFFCURVE",
"311 341 CURVE",
"75 341 LINE",
"75 276 OFFCURVE",
"94 216 OFFCURVE",
"133 160 CURVE SMOOTH",
"210 48 OFFCURVE",
"355 -20 OFFCURVE",
"532 -20 CURVE SMOOTH",
"793 -20 OFFCURVE",
"970 112 OFFCURVE",
"970 307 CURVE SMOOTH",
"970 365 OFFCURVE",
"957 414 OFFCURVE",
"931 455 CURVE SMOOTH",
"878 536 OFFCURVE",
"776 593 OFFCURVE",
"585 635 CURVE SMOOTH",
"490 656 OFFCURVE",
"426 676 OFFCURVE",
"395 697 CURVE SMOOTH",
"364 718 OFFCURVE",
"348 747 OFFCURVE",
"348 784 CURVE SMOOTH",
"348 867 OFFCURVE",
"422 920 OFFCURVE",
"529 920 CURVE SMOOTH",
"644 920 OFFCURVE",
"719 850 OFFCURVE",
"719 757 CURVE",
"962 757 LINE",
"962 961 OFFCURVE",
"788 1102 OFFCURVE",
"529 1102 CURVE SMOOTH",
"286 1102 OFFCURVE",
"111 961 OFFCURVE",
"111 774 CURVE SMOOTH",
"111 551 OFFCURVE",
"335 488 OFFCURVE",
"500 453 CURVE SMOOTH",
"665 418 OFFCURVE",
"731 381 OFFCURVE",
"731 294 CURVE SMOOTH"
);
}
);
width = 1057;
}
);
leftKerningGroup = s;
note = s;
unicode = 0073;
},
{
glyphname = t;
lastChange = "2019-02-04 10:03:05 +0000";
layers = (
{
layerId = "BC02B84D-1250-4FEC-829E-45FBAB526404";
paths = (
{
closed = 1;
nodes = (
"186 1082 LINE",
"8 1082 LINE",
"8 902 LINE",
"186 902 LINE",
"186 289 LINE SMOOTH",
"186 83 OFFCURVE",
"279 -20 OFFCURVE",
"466 -20 CURVE SMOOTH",
"517 -20 OFFCURVE",
"571 -12 OFFCURVE",
"626 3 CURVE",
"626 191 LINE",
"597 184 OFFCURVE",
"569 181 OFFCURVE",
"541 181 CURVE SMOOTH",
"457 181 OFFCURVE",
"429 215 OFFCURVE",
"429 298 CURVE SMOOTH",
"429 902 LINE",
"620 902 LINE",
"620 1082 LINE",
"429 1082 LINE",
"429 1345 LINE",
"186 1345 LINE"
);
}
);
width = 681;
}
);
note = t;
unicode = 0074;
},
{
glyphname = u;
lastChange = "2019-02-04 10:03:05 +0000";
layers = (
{
layerId = "BC02B84D-1250-4FEC-829E-45FBAB526404";
paths = (
{
closed = 1;
nodes = (
"1015 0 LINE",
"1015 1082 LINE",
"772 1082 LINE",
"772 305 LINE",
"731 220 OFFCURVE",
"651 178 OFFCURVE",
"533 178 CURVE SMOOTH",
"419 178 OFFCURVE",
"362 247 OFFCURVE",
"362 384 CURVE SMOOTH",
"362 1082 LINE",
"119 1082 LINE",
"119 381 LINE SMOOTH",
"119 121 OFFCURVE",
"241 -20 OFFCURVE",
"476 -20 CURVE SMOOTH",
"607 -20 OFFCURVE",
"709 22 OFFCURVE",
"780 106 CURVE",
"786 0 LINE"
);
}
);
width = 1138;
}
);
leftKerningGroup = u;
note = u;
unicode = 0075;
},
{
glyphname = v;
lastChange = "2019-02-04 10:03:05 +0000";
layers = (
{
layerId = "BC02B84D-1250-4FEC-829E-45FBAB526404";
paths = (
{
closed = 1;
nodes = (
"22 1082 LINE",
"400 0 LINE",
"611 0 LINE",
"986 1082 LINE",
"735 1082 LINE",
"506 308 LINE",
"274 1082 LINE"
);
}
);
width = 1013;
}
);
leftKerningGroup = v;
note = v;
rightKerningGroup = v;
unicode = 0076;
},
{
glyphname = w;
lastChange = "2019-02-04 10:03:05 +0000";
layers = (
{
layerId = "BC02B84D-1250-4FEC-829E-45FBAB526404";
paths = (
{
closed = 1;
nodes = (
"667 1082 LINE",
"445 343 LINE",
"270 1082 LINE",
"33 1082 LINE",
"329 0 LINE",
"529 0 LINE",
"757 743 LINE",
"989 0 LINE",
"1189 0 LINE",
"1484 1082 LINE",
"1247 1082 LINE",
"1075 335 LINE",
"850 1082 LINE"
);
}
);
width = 1522;
}
);
note = w;
unicode = 0077;
},
{
glyphname = x;
lastChange = "2019-02-04 10:03:05 +0000";
layers = (
{
layerId = "BC02B84D-1250-4FEC-829E-45FBAB526404";
paths = (
{
closed = 1;
nodes = (
"43 1082 LINE",
"373 549 LINE",
"31 0 LINE",
"301 0 LINE",
"516 370 LINE",
"732 0 LINE",
"1000 0 LINE",
"658 549 LINE",
"989 1082 LINE",
"719 1082 LINE",
"513 726 LINE",
"311 1082 LINE"
);
}
);
width = 1030;
}
);
leftKerningGroup = x;
note = x;
rightKerningGroup = x;
unicode = 0078;
},
{
glyphname = y;
lastChange = "2019-02-04 10:03:05 +0000";
layers = (
{
layerId = "BC02B84D-1250-4FEC-829E-45FBAB526404";
paths = (
{
closed = 1;
nodes = (
"12 1082 LINE",
"392 5 LINE",
"357 -88 LINE SMOOTH",
"321 -193 OFFCURVE",
"268 -234 OFFCURVE",
"145 -234 CURVE",
"99 -231 LINE",
"99 -419 LINE",
"142 -431 OFFCURVE",
"181 -437 OFFCURVE",
"216 -437 CURVE SMOOTH",
"374 -437 OFFCURVE",
"486 -346 OFFCURVE",
"552 -164 CURVE SMOOTH",
"982 1082 LINE",
"723 1082 LINE",
"503 348 LINE",
"274 1082 LINE"
);
}
);
width = 997;
}
);
leftKerningGroup = v;
note = y;
rightKerningGroup = v;
unicode = 0079;
},
{
glyphname = z;
lastChange = "2019-02-04 10:03:05 +0000";
layers = (
{
layerId = "BC02B84D-1250-4FEC-829E-45FBAB526404";
paths = (
{
closed = 1;
nodes = (
"939 1082 LINE",
"92 1082 LINE",
"92 886 LINE",
"631 886 LINE",
"82 159 LINE",
"82 0 LINE",
"960 0 LINE",
"960 194 LINE",
"384 194 LINE",
"939 928 LINE"
);
}
);
width = 1030;
}
);
leftKerningGroup = z;
note = z;
rightKerningGroup = z;
unicode = 007A;
},
{
glyphname = braceleft;
lastChange = "2019-02-04 10:03:05 +0000";
layers = (
{
layerId = "BC02B84D-1250-4FEC-829E-45FBAB526404";
paths = (
{
closed = 1;
nodes = (
"542 -182 OFFCURVE",
"482 -80 OFFCURVE",
"478 87 CURVE",
"478 300 LINE SMOOTH",
"478 451 OFFCURVE",
"420 558 OFFCURVE",
"305 619 CURVE",
"420 680 OFFCURVE",
"478 785 OFFCURVE",
"478 935 CURVE SMOOTH",
"478 1151 LINE SMOOTH",
"482 1318 OFFCURVE",
"542 1420 OFFCURVE",
"657 1457 CURVE",
"609 1597 LINE",
"374 1530 OFFCURVE",
"253 1385 OFFCURVE",
"249 1145 CURVE SMOOTH",
"249 933 LINE SMOOTH",
"249 782 OFFCURVE",
"185 707 OFFCURVE",
"56 707 CURVE",
"56 529 LINE",
"185 529 OFFCURVE",
"249 454 OFFCURVE",
"249 304 CURVE SMOOTH",
"249 91 LINE SMOOTH",
"254 -144 OFFCURVE",
"374 -294 OFFCURVE",
"609 -360 CURVE",
"657 -219 LINE"
);
}
);
width = 687;
}
);
note = braceleft;
unicode = 007B;
},
{
glyphname = bar;
lastChange = "2019-02-04 10:03:05 +0000";
layers = (
{
layerId = "BC02B84D-1250-4FEC-829E-45FBAB526404";
paths = (
{
closed = 1;
nodes = (
"174 1456 LINE",
"174 -270 LINE",
"341 -270 LINE",
"341 1456 LINE"
);
}
);
width = 514;
}
);
note = bar;
unicode = 007C;
},
{
glyphname = braceright;
lastChange = "2019-02-04 10:03:05 +0000";
layers = (
{
layerId = "BC02B84D-1250-4FEC-829E-45FBAB526404";
paths = (
{
closed = 1;
nodes = (
"316 -292 OFFCURVE",
"435 -142 OFFCURVE",
"435 107 CURVE SMOOTH",
"435 304 LINE SMOOTH",
"435 454 OFFCURVE",
"500 529 OFFCURVE",
"629 529 CURVE",
"629 707 LINE",
"500 707 OFFCURVE",
"435 782 OFFCURVE",
"435 932 CURVE SMOOTH",
"435 1132 LINE SMOOTH",
"435 1379 OFFCURVE",
"318 1529 OFFCURVE",
"75 1597 CURVE",
"27 1457 LINE",
"144 1419 OFFCURVE",
"204 1315 OFFCURVE",
"207 1145 CURVE SMOOTH",
"207 938 LINE SMOOTH",
"207 782 OFFCURVE",
"268 675 OFFCURVE",
"389 618 CURVE",
"268 561 OFFCURVE",
"207 455 OFFCURVE",
"207 301 CURVE SMOOTH",
"207 93 LINE SMOOTH",
"204 -77 OFFCURVE",
"144 -181 OFFCURVE",
"27 -219 CURVE",
"75 -360 LINE"
);
}
);
width = 687;
}
);
note = braceright;
unicode = 007D;
},
{
glyphname = asciitilde;
lastChange = "2019-02-04 10:03:05 +0000";
layers = (
{
layerId = "BC02B84D-1250-4FEC-829E-45FBAB526404";
paths = (
{
closed = 1;
nodes = (
"1056 674 OFFCURVE",
"994 590 OFFCURVE",
"905 590 CURVE SMOOTH",
"879 590 OFFCURVE",
"855 596 OFFCURVE",
"833 607 CURVE SMOOTH",
"810 618 OFFCURVE",
"775 646 OFFCURVE",
"727 690 CURVE SMOOTH",
"630 778 OFFCURVE",
"546 815 OFFCURVE",
"447 815 CURVE SMOOTH",
"250 815 OFFCURVE",
"117 653 OFFCURVE",
"117 425 CURVE",
"310 425 LINE",
"310 537 OFFCURVE",
"365 613 OFFCURVE",
"454 613 CURVE SMOOTH",
"479 613 OFFCURVE",
"503 608 OFFCURVE",
"526 597 CURVE SMOOTH",
"548 586 OFFCURVE",
"585 557 OFFCURVE",
"636 512 CURVE SMOOTH",
"739 420 OFFCURVE",
"813 387 OFFCURVE",
"912 387 CURVE SMOOTH",
"1101 387 OFFCURVE",
"1244 551 OFFCURVE",
"1244 786 CURVE",
"1056 786 LINE"
);
}
);
width = 1361;
}
);
note = asciitilde;
unicode = 007E;
},
{
glyphname = exclamdown;
lastChange = "2019-02-04 10:03:05 +0000";
layers = (
{
layerId = "BC02B84D-1250-4FEC-829E-45FBAB526404";
paths = (
{
closed = 1;
nodes = (
"403 -364 LINE",
"379 662 LINE",
"170 662 LINE",
"146 -364 LINE"
);
},
{
closed = 1;
nodes = (
"409 1044 OFFCURVE",
"359 1101 OFFCURVE",
"272 1101 CURVE SMOOTH",
"184 1101 OFFCURVE",
"134 1044 OFFCURVE",
"134 971 CURVE SMOOTH",
"134 896 OFFCURVE",
"184 840 OFFCURVE",
"272 840 CURVE SMOOTH",
"359 840 OFFCURVE",
"409 896 OFFCURVE",
"409 971 CURVE SMOOTH"
);
}
);
width = 542;
}
);
note = exclamdown;
unicode = 00A1;
},
{
glyphname = cent;
lastChange = "2019-02-04 10:03:05 +0000";
layers = (
{
layerId = "BC02B84D-1250-4FEC-829E-45FBAB526404";
paths = (
{
closed = 1;
nodes = (
"430 174 OFFCURVE",
"343 288 OFFCURVE",
"343 523 CURVE SMOOTH",
"344 595 LINE",
"355 803 OFFCURVE",
"437 907 OFFCURVE",
"590 907 CURVE SMOOTH",
"711 907 OFFCURVE",
"797 822 OFFCURVE",
"806 694 CURVE",
"1034 694 LINE",
"1029 902 OFFCURVE",
"898 1057 OFFCURVE",
"687 1094 CURVE",
"687 1318 LINE",
"487 1318 LINE",
"487 1093 LINE",
"243 1048 OFFCURVE",
"100 842 OFFCURVE",
"100 558 CURVE SMOOTH",
"100 530 LINE SMOOTH",
"100 237 OFFCURVE",
"243 34 OFFCURVE",
"487 -11 CURVE",
"487 -245 LINE",
"687 -245 LINE",
"687 -11 LINE",
"882 26 OFFCURVE",
"1029 177 OFFCURVE",
"1034 358 CURVE",
"806 358 LINE",
"798 251 OFFCURVE",
"710 174 OFFCURVE",
"591 174 CURVE SMOOTH"
);
}
);
width = 1149;
}
);
note = cent;
unicode = 00A2;
},
{
glyphname = sterling;
lastChange = "2019-02-04 10:03:05 +0000";
layers = (
{
layerId = "BC02B84D-1250-4FEC-829E-45FBAB526404";
paths = (
{
closed = 1;
nodes = (
"813 797 LINE",
"502 797 LINE",
"493 1039 LINE",
"493 1178 OFFCURVE",
"566 1273 OFFCURVE",
"685 1273 CURVE SMOOTH",
"810 1273 OFFCURVE",
"884 1200 OFFCURVE",
"884 1073 CURVE",
"1129 1073 LINE",
"1129 1318 OFFCURVE",
"965 1475 OFFCURVE",
"694 1475 CURVE SMOOTH",
"423 1475 OFFCURVE",
"241 1308 OFFCURVE",
"241 1039 CURVE SMOOTH",
"249 797 LINE",
"94 797 LINE",
"94 598 LINE",
"255 598 LINE",
"262 413 LINE",
"262 292 OFFCURVE",
"232 214 OFFCURVE",
"180 202 CURVE",
"98 202 LINE",
"98 0 LINE",
"1147 0 LINE",
"1148 202 LINE",
"452 202 LINE",
"495 259 OFFCURVE",
"516 332 OFFCURVE",
"516 422 CURVE",
"509 598 LINE",
"813 598 LINE"
);
}
);
width = 1205;
}
);
note = sterling;
unicode = 00A3;
},
{
glyphname = currency;
lastChange = "2019-02-04 10:03:05 +0000";
layers = (
{
layerId = "BC02B84D-1250-4FEC-829E-45FBAB526404";
paths = (
{
closed = 1;
nodes = (
"1359 118 LINE",
"1220 259 LINE",
"1285 363 OFFCURVE",
"1318 479 OFFCURVE",
"1318 608 CURVE SMOOTH",
"1318 743 OFFCURVE",
"1282 863 OFFCURVE",
"1211 969 CURVE",
"1359 1120 LINE",
"1217 1265 LINE",
"1072 1117 LINE",
"969 1195 OFFCURVE",
"852 1234 OFFCURVE",
"723 1234 CURVE SMOOTH",
"595 1234 OFFCURVE",
"479 1196 OFFCURVE",
"376 1119 CURVE",
"234 1264 LINE",
"93 1120 LINE",
"237 973 LINE",
"164 863 OFFCURVE",
"128 741 OFFCURVE",
"128 608 CURVE SMOOTH",
"128 477 OFFCURVE",
"161 359 OFFCURVE",
"228 255 CURVE",
"93 118 LINE",
"234 -26 LINE",
"363 106 LINE",
"468 22 OFFCURVE",
"588 -20 OFFCURVE",
"723 -20 CURVE SMOOTH",
"858 -20 OFFCURVE",
"979 22 OFFCURVE",
"1085 107 CURVE",
"1217 -27 LINE"
);
},
{
closed = 1;
nodes = (
"313 687 OFFCURVE",
"331 761 OFFCURVE",
"368 829 CURVE SMOOTH",
"440 965 OFFCURVE",
"575 1048 OFFCURVE",
"723 1048 CURVE SMOOTH",
"797 1048 OFFCURVE",
"866 1029 OFFCURVE",
"929 990 CURVE SMOOTH",
"1055 912 OFFCURVE",
"1132 767 OFFCURVE",
"1132 608 CURVE SMOOTH",
"1132 529 OFFCURVE",
"1114 455 OFFCURVE",
"1078 386 CURVE SMOOTH",
"1005 249 OFFCURVE",
"870 165 OFFCURVE",
"723 165 CURVE SMOOTH",
"650 165 OFFCURVE",
"581 185 OFFCURVE",
"518 224 CURVE SMOOTH",
"391 302 OFFCURVE",
"313 448 OFFCURVE",
"313 608 CURVE SMOOTH"
);
}
);
width = 1437;
}
);
note = currency;
unicode = 00A4;
},
{
glyphname = yen;
lastChange = "2019-02-04 10:03:05 +0000";
layers = (
{
layerId = "BC02B84D-1250-4FEC-829E-45FBAB526404";
paths = (
{
closed = 1;
nodes = (
"11 1456 LINE",
"354 742 LINE",
"106 742 LINE",
"106 590 LINE",
"414 590 LINE",
"414 452 LINE",
"106 452 LINE",
"106 301 LINE",
"414 301 LINE",
"414 0 LINE",
"666 0 LINE",
"666 301 LINE",
"969 301 LINE",
"969 452 LINE",
"666 452 LINE",
"666 590 LINE",
"969 590 LINE",
"969 742 LINE",
"735 742 LINE",
"1076 1456 LINE",
"807 1456 LINE",
"545 847 LINE",
"284 1456 LINE"
);
}
);
width = 1088;
}
);
note = yen;
unicode = 00A5;
},
{
glyphname = brokenbar;
lastChange = "2019-02-04 10:03:05 +0000";
layers = (
{
layerId = "BC02B84D-1250-4FEC-829E-45FBAB526404";
paths = (
{
closed = 1;
nodes = (
"365 525 LINE",
"136 525 LINE",
"136 -270 LINE",
"365 -270 LINE"
);
},
{
closed = 1;
nodes = (
"136 1456 LINE",
"136 698 LINE",
"365 698 LINE",
"365 1456 LINE"
);
}
);
width = 508;
}
);
note = brokenbar;
unicode = 00A6;
},
{
glyphname = section;
lastChange = "2019-02-04 10:03:05 +0000";
layers = (
{
layerId = "BC02B84D-1250-4FEC-829E-45FBAB526404";
paths = (
{
closed = 1;
nodes = (
"1164 527 OFFCURVE",
"1149 589 OFFCURVE",
"1119 640 CURVE SMOOTH",
"1059 742 OFFCURVE",
"945 812 OFFCURVE",
"687 881 CURVE SMOOTH",
"558 916 OFFCURVE",
"473 948 OFFCURVE",
"433 977 CURVE SMOOTH",
"393 1006 OFFCURVE",
"373 1048 OFFCURVE",
"373 1104 CURVE SMOOTH",
"373 1213 OFFCURVE",
"471 1281 OFFCURVE",
"635 1281 CURVE SMOOTH",
"795 1281 OFFCURVE",
"900 1188 OFFCURVE",
"900 1047 CURVE",
"1143 1047 LINE",
"1143 1319 OFFCURVE",
"955 1476 OFFCURVE",
"635 1476 CURVE SMOOTH",
"328 1476 OFFCURVE",
"130 1329 OFFCURVE",
"130 1102 CURVE SMOOTH",
"130 969 OFFCURVE",
"176 883 OFFCURVE",
"263 816 CURVE",
"150 756 OFFCURVE",
"94 665 OFFCURVE",
"94 542 CURVE SMOOTH",
"94 469 OFFCURVE",
"110 407 OFFCURVE",
"141 356 CURVE SMOOTH",
"203 253 OFFCURVE",
"314 186 OFFCURVE",
"565 118 CURVE SMOOTH",
"690 81 OFFCURVE",
"774 48 OFFCURVE",
"819 18 CURVE SMOOTH",
"864 -13 OFFCURVE",
"886 -54 OFFCURVE",
"886 -105 CURVE SMOOTH",
"886 -210 OFFCURVE",
"785 -279 OFFCURVE",
"624 -279 CURVE SMOOTH",
"443 -279 OFFCURVE",
"332 -196 OFFCURVE",
"332 -49 CURVE",
"90 -50 LINE",
"90 -326 OFFCURVE",
"296 -474 OFFCURVE",
"624 -474 CURVE SMOOTH",
"936 -474 OFFCURVE",
"1128 -334 OFFCURVE",
"1128 -103 CURVE SMOOTH",
"1128 20 OFFCURVE",
"1083 115 OFFCURVE",
"993 182 CURVE",
"1107 241 OFFCURVE",
"1164 332 OFFCURVE",
"1164 455 CURVE SMOOTH"
);
},
{
closed = 1;
nodes = (
"726 636 OFFCURVE",
"811 601 OFFCURVE",
"856 569 CURVE SMOOTH",
"901 536 OFFCURVE",
"924 493 OFFCURVE",
"924 439 CURVE SMOOTH",
"924 361 OFFCURVE",
"886 306 OFFCURVE",
"809 275 CURVE",
"763 291 LINE",
"584 344 LINE SMOOTH",
"385 407 OFFCURVE",
"336 450 OFFCURVE",
"336 558 CURVE SMOOTH",
"336 641 OFFCURVE",
"372 695 OFFCURVE",
"444 722 CURVE",
"495 703 OFFCURVE",
"547 687 OFFCURVE",
"601 673 CURVE SMOOTH"
);
}
);
width = 1272;
}
);
note = section;
unicode = 00A7;
},
{
glyphname = dieresis;
lastChange = "2019-02-04 10:03:05 +0000";
layers = (
{
layerId = "BC02B84D-1250-4FEC-829E-45FBAB526404";
paths = (
{
closed = 1;
nodes = (
"93 1299 OFFCURVE",
"140 1248 OFFCURVE",
"219 1248 CURVE SMOOTH",
"298 1248 OFFCURVE",
"346 1299 OFFCURVE",
"346 1366 CURVE SMOOTH",
"346 1433 OFFCURVE",
"298 1484 OFFCURVE",
"219 1484 CURVE SMOOTH",
"140 1484 OFFCURVE",
"93 1433 OFFCURVE",
"93 1366 CURVE SMOOTH"
);
},
{
closed = 1;
nodes = (
"550 1298 OFFCURVE",
"597 1247 OFFCURVE",
"676 1247 CURVE SMOOTH",
"755 1247 OFFCURVE",
"803 1298 OFFCURVE",
"803 1365 CURVE SMOOTH",
"803 1432 OFFCURVE",
"755 1483 OFFCURVE",
"676 1483 CURVE SMOOTH",
"597 1483 OFFCURVE",
"550 1432 OFFCURVE",
"550 1365 CURVE SMOOTH"
);
}
);
width = 901;
}
);
note = dieresis;
unicode = 00A8;
},
{
glyphname = copyright;
lastChange = "2019-02-04 10:03:05 +0000";
layers = (
{
layerId = "BC02B84D-1250-4FEC-829E-45FBAB526404";
paths = (
{
closed = 1;
nodes = (
"962 465 OFFCURVE",
"902 417 OFFCURVE",
"783 417 CURVE SMOOTH",
"662 417 OFFCURVE",
"588 512 OFFCURVE",
"588 669 CURVE SMOOTH",
"588 786 LINE SMOOTH",
"588 943 OFFCURVE",
"660 1040 OFFCURVE",
"783 1040 CURVE SMOOTH",
"900 1040 OFFCURVE",
"963 989 OFFCURVE",
"963 861 CURVE",
"1119 861 LINE",
"1119 1060 OFFCURVE",
"1000 1175 OFFCURVE",
"783 1175 CURVE SMOOTH",
"572 1175 OFFCURVE",
"434 1020 OFFCURVE",
"434 788 CURVE SMOOTH",
"434 675 LINE SMOOTH",
"434 435 OFFCURVE",
"570 282 OFFCURVE",
"783 282 CURVE SMOOTH",
"996 282 OFFCURVE",
"1118 393 OFFCURVE",
"1118 596 CURVE",
"962 596 LINE"
);
},
{
closed = 1;
nodes = (
"1384 618 OFFCURVE",
"1359 514 OFFCURVE",
"1308 418 CURVE SMOOTH",
"1207 226 OFFCURVE",
"1010 104 OFFCURVE",
"797 104 CURVE SMOOTH",
"690 104 OFFCURVE",
"592 132 OFFCURVE",
"501 188 CURVE SMOOTH",
"319 299 OFFCURVE",
"209 502 OFFCURVE",
"209 729 CURVE SMOOTH",
"209 842 OFFCURVE",
"235 947 OFFCURVE",
"287 1043 CURVE SMOOTH",
"391 1235 OFFCURVE",
"585 1351 OFFCURVE",
"797 1351 CURVE SMOOTH",
"906 1351 OFFCURVE",
"1006 1323 OFFCURVE",
"1097 1266 CURVE SMOOTH",
"1280 1152 OFFCURVE",
"1384 950 OFFCURVE",
"1384 729 CURVE SMOOTH"
);
},
{
closed = 1;
nodes = (
"87 594 OFFCURVE",
"118 468 OFFCURVE",
"181 353 CURVE SMOOTH",
"306 122 OFFCURVE",
"540 -20 OFFCURVE",
"797 -20 CURVE SMOOTH",
"926 -20 OFFCURVE",
"1046 14 OFFCURVE",
"1155 81 CURVE SMOOTH",
"1374 215 OFFCURVE",
"1506 460 OFFCURVE",
"1506 729 CURVE SMOOTH",
"1506 864 OFFCURVE",
"1475 989 OFFCURVE",
"1413 1104 CURVE SMOOTH",
"1288 1335 OFFCURVE",
"1053 1476 OFFCURVE",
"797 1476 CURVE SMOOTH",
"669 1476 OFFCURVE",
"550 1443 OFFCURVE",
"440 1377 CURVE SMOOTH",
"219 1244 OFFCURVE",
"87 998 OFFCURVE",
"87 729 CURVE SMOOTH"
);
}
);
width = 1604;
}
);
note = copyright;
unicode = 00A9;
},
{
glyphname = ordfeminine;
lastChange = "2019-02-04 10:03:05 +0000";
layers = (
{
layerId = "BC02B84D-1250-4FEC-829E-45FBAB526404";
paths = (
{
closed = 1;
nodes = (
"768 759 OFFCURVE",
"759 818 OFFCURVE",
"759 883 CURVE SMOOTH",
"759 1199 LINE SMOOTH",
"759 1375 OFFCURVE",
"651 1476 OFFCURVE",
"468 1476 CURVE SMOOTH",
"287 1476 OFFCURVE",
"157 1382 OFFCURVE",
"157 1243 CURVE",
"330 1229 LINE",
"330 1293 OFFCURVE",
"381 1328 OFFCURVE",
"468 1328 CURVE SMOOTH",
"545 1328 OFFCURVE",
"584 1286 OFFCURVE",
"584 1201 CURVE SMOOTH",
"584 1150 LINE",
"482 1150 LINE SMOOTH",
"251 1150 OFFCURVE",
"141 1066 OFFCURVE",
"141 919 CURVE SMOOTH",
"141 779 OFFCURVE",
"233 691 OFFCURVE",
"390 691 CURVE SMOOTH",
"473 691 OFFCURVE",
"540 718 OFFCURVE",
"591 773 CURVE",
"608 705 LINE",
"785 705 LINE"
);
},
{
closed = 1;
nodes = (
"355 835 OFFCURVE",
"316 864 OFFCURVE",
"316 923 CURVE SMOOTH",
"316 988 OFFCURVE",
"377 1032 OFFCURVE",
"478 1033 CURVE SMOOTH",
"584 1033 LINE",
"584 896 LINE",
"548 863 OFFCURVE",
"486 835 OFFCURVE",
"433 835 CURVE SMOOTH"
);
}
);
width = 913;
}
);
note = ordfeminine;
unicode = 00AA;
},
{
glyphname = guillemotleft;
lastChange = "2019-02-04 10:03:05 +0000";
layers = (
{
layerId = "BC02B84D-1250-4FEC-829E-45FBAB526404";
paths = (
{
closed = 1;
nodes = (
"375 937 LINE",
"87 547 LINE",
"87 528 LINE",
"375 138 LINE",
"542 138 LINE",
"295 537 LINE",
"542 937 LINE"
);
},
{
closed = 1;
nodes = (
"734 937 LINE",
"446 547 LINE",
"446 528 LINE",
"734 138 LINE",
"901 138 LINE",
"654 537 LINE",
"901 937 LINE"
);
}
);
width = 994;
}
);
note = guillemotleft;
unicode = 00AB;
},
{
glyphname = logicalnot;
lastChange = "2019-02-04 10:03:05 +0000";
layers = (
{
layerId = "BC02B84D-1250-4FEC-829E-45FBAB526404";
paths = (
{
closed = 1;
nodes = (
"127 805 LINE",
"127 634 LINE",
"762 634 LINE",
"762 374 LINE",
"962 374 LINE",
"962 805 LINE"
);
}
);
width = 1133;
}
);
note = logicalnot;
unicode = 00AC;
},
{
glyphname = registered;
lastChange = "2019-02-04 10:03:05 +0000";
layers = (
{
layerId = "BC02B84D-1250-4FEC-829E-45FBAB526404";
paths = (
{
closed = 1;
nodes = (
"87 594 OFFCURVE",
"118 468 OFFCURVE",
"181 353 CURVE SMOOTH",
"306 122 OFFCURVE",
"540 -20 OFFCURVE",
"797 -20 CURVE SMOOTH",
"926 -20 OFFCURVE",
"1046 14 OFFCURVE",
"1155 81 CURVE SMOOTH",
"1374 215 OFFCURVE",
"1506 460 OFFCURVE",
"1506 729 CURVE SMOOTH",
"1506 864 OFFCURVE",
"1475 989 OFFCURVE",
"1413 1104 CURVE SMOOTH",
"1288 1335 OFFCURVE",
"1053 1476 OFFCURVE",
"797 1476 CURVE SMOOTH",
"669 1476 OFFCURVE",
"550 1443 OFFCURVE",
"440 1377 CURVE SMOOTH",
"219 1244 OFFCURVE",
"87 998 OFFCURVE",
"87 729 CURVE SMOOTH"
);
},
{
closed = 1;
nodes = (
"1384 618 OFFCURVE",
"1359 514 OFFCURVE",
"1308 418 CURVE SMOOTH",
"1207 226 OFFCURVE",
"1010 104 OFFCURVE",
"797 104 CURVE SMOOTH",
"690 104 OFFCURVE",
"592 132 OFFCURVE",
"501 188 CURVE SMOOTH",
"319 299 OFFCURVE",
"209 502 OFFCURVE",
"209 729 CURVE SMOOTH",
"209 842 OFFCURVE",
"235 947 OFFCURVE",
"287 1043 CURVE SMOOTH",
"391 1235 OFFCURVE",
"585 1351 OFFCURVE",
"797 1351 CURVE SMOOTH",
"906 1351 OFFCURVE",
"1006 1323 OFFCURVE",
"1097 1266 CURVE SMOOTH",
"1280 1152 OFFCURVE",
"1384 950 OFFCURVE",
"1384 729 CURVE SMOOTH"
);
},
{
closed = 1;
nodes = (
"914 653 OFFCURVE",
"954 611 OFFCURVE",
"954 510 CURVE SMOOTH",
"954 403 OFFCURVE",
"958 339 OFFCURVE",
"967 316 CURVE",
"1122 316 LINE",
"1122 332 LINE",
"1115 347 OFFCURVE",
"1111 366 OFFCURVE",
"1109 389 CURVE",
"1106 412 OFFCURVE",
"1105 450 OFFCURVE",
"1105 505 CURVE SMOOTH",
"1105 613 OFFCURVE",
"1075 687 OFFCURVE",
"988 726 CURVE",
"1068 768 OFFCURVE",
"1108 828 OFFCURVE",
"1108 906 CURVE SMOOTH",
"1108 1073 OFFCURVE",
"987 1166 OFFCURVE",
"783 1166 CURVE SMOOTH",
"502 1166 LINE",
"502 316 LINE",
"653 316 LINE",
"653 653 LINE",
"811 653 LINE SMOOTH"
);
},
{
closed = 1;
nodes = (
"794 1033 LINE SMOOTH",
"918 1032 OFFCURVE",
"958 996 OFFCURVE",
"958 903 CURVE SMOOTH",
"958 831 OFFCURVE",
"888 787 OFFCURVE",
"796 787 CURVE SMOOTH",
"653 787 LINE",
"653 1033 LINE"
);
}
);
width = 1604;
}
);
note = registered;
unicode = 00AE;
},
{
glyphname = macron;
lastChange = "2019-02-04 10:03:05 +0000";
layers = (
{
layerId = "BC02B84D-1250-4FEC-829E-45FBAB526404";
paths = (
{
closed = 1;
nodes = (
"155 1450 LINE",
"155 1292 LINE",
"842 1292 LINE",
"842 1450 LINE"
);
}
);
width = 987;
}
);
note = macron;
unicode = 00AF;
},
{
glyphname = degree;
lastChange = "2019-02-04 10:03:05 +0000";
layers = (
{
layerId = "BC02B84D-1250-4FEC-829E-45FBAB526404";
paths = (
{
closed = 1;
nodes = (
"248 1476 OFFCURVE",
"127 1355 OFFCURVE",
"127 1208 CURVE SMOOTH",
"127 1061 OFFCURVE",
"246 943 OFFCURVE",
"391 943 CURVE SMOOTH",
"535 943 OFFCURVE",
"651 1061 OFFCURVE",
"651 1208 CURVE SMOOTH",
"651 1355 OFFCURVE",
"532 1476 OFFCURVE",
"391 1476 CURVE SMOOTH"
);
},
{
closed = 1;
nodes = (
"322 1084 OFFCURVE",
"266 1139 OFFCURVE",
"266 1208 CURVE SMOOTH",
"266 1277 OFFCURVE",
"320 1336 OFFCURVE",
"391 1336 CURVE SMOOTH",
"462 1336 OFFCURVE",
"513 1277 OFFCURVE",
"513 1208 CURVE SMOOTH",
"513 1137 OFFCURVE",
"462 1084 OFFCURVE",
"391 1084 CURVE SMOOTH"
);
}
);
width = 778;
}
);
note = degree;
unicode = 00B0;
},
{
glyphname = plusminus;
lastChange = "2019-02-04 10:03:05 +0000";
layers = (
{
layerId = "BC02B84D-1250-4FEC-829E-45FBAB526404";
paths = (
{
closed = 1;
nodes = (
"452 1276 LINE",
"452 899 LINE",
"95 899 LINE",
"95 700 LINE",
"452 700 LINE",
"452 312 LINE",
"668 312 LINE",
"668 700 LINE",
"1011 700 LINE",
"1011 899 LINE",
"668 899 LINE",
"668 1276 LINE"
);
},
{
closed = 1;
nodes = (
"125 197 LINE",
"125 1 LINE",
"974 1 LINE",
"974 197 LINE"
);
}
);
width = 1098;
}
);
note = plusminus;
unicode = 00B1;
},
{
glyphname = twosuperior;
lastChange = "2019-02-04 10:03:05 +0000";
layers = (
{
layerId = "BC02B84D-1250-4FEC-829E-45FBAB526404";
paths = (
{
closed = 1;
nodes = (
"319 815 LINE",
"459 928 LINE",
"557 1015 LINE",
"628 1083 OFFCURVE",
"663 1153 OFFCURVE",
"663 1224 CURVE SMOOTH",
"663 1377 OFFCURVE",
"555 1467 OFFCURVE",
"364 1467 CURVE SMOOTH",
"184 1467 OFFCURVE",
"60 1353 OFFCURVE",
"60 1198 CURVE",
"246 1198 LINE",
"246 1270 OFFCURVE",
"293 1318 OFFCURVE",
"370 1318 CURVE SMOOTH",
"439 1318 OFFCURVE",
"476 1279 OFFCURVE",
"476 1223 CURVE SMOOTH",
"476 1178 OFFCURVE",
"438 1122 OFFCURVE",
"363 1053 CURVE SMOOTH",
"78 792 LINE",
"78 667 LINE",
"690 667 LINE",
"690 815 LINE"
);
}
);
width = 758;
}
);
note = twosuperior;
unicode = 00B2;
},
{
glyphname = threesuperior;
lastChange = "2019-02-04 10:03:05 +0000";
layers = (
{
layerId = "BC02B84D-1250-4FEC-829E-45FBAB526404";
paths = (
{
closed = 1;
nodes = (
"360 1004 LINE SMOOTH",
"449 1003 OFFCURVE",
"494 969 OFFCURVE",
"494 902 CURVE SMOOTH",
"494 846 OFFCURVE",
"454 805 OFFCURVE",
"370 805 CURVE SMOOTH",
"290 805 OFFCURVE",
"241 845 OFFCURVE",
"241 896 CURVE",
"55 896 LINE",
"55 745 OFFCURVE",
"181 656 OFFCURVE",
"361 656 CURVE SMOOTH",
"552 656 OFFCURVE",
"681 747 OFFCURVE",
"681 888 CURVE SMOOTH",
"681 983 OFFCURVE",
"631 1044 OFFCURVE",
"532 1071 CURVE",
"622 1105 OFFCURVE",
"667 1162 OFFCURVE",
"667 1241 CURVE SMOOTH",
"667 1381 OFFCURVE",
"552 1467 OFFCURVE",
"361 1467 CURVE SMOOTH",
"188 1467 OFFCURVE",
"66 1376 OFFCURVE",
"66 1244 CURVE",
"252 1244 LINE",
"252 1291 OFFCURVE",
"301 1318 OFFCURVE",
"365 1318 CURVE SMOOTH",
"448 1318 OFFCURVE",
"481 1277 OFFCURVE",
"481 1230 CURVE SMOOTH",
"481 1165 OFFCURVE",
"437 1133 OFFCURVE",
"349 1133 CURVE SMOOTH",
"268 1133 LINE",
"268 1004 LINE"
);
}
);
width = 758;
}
);
note = threesuperior;
unicode = 00B3;
},
{
glyphname = acute;
lastChange = "2019-02-04 10:03:05 +0000";
layers = (
{
layerId = "BC02B84D-1250-4FEC-829E-45FBAB526404";
paths = (
{
closed = 1;
nodes = (
"307 1233 LINE",
"584 1536 LINE",
"307 1536 LINE",
"112 1233 LINE"
);
}
);
width = 667;
}
);
note = acute;
unicode = 00B4;
},
{
glyphname = mu;
lastChange = "2019-02-04 10:03:05 +0000";
layers = (
{
layerId = "BC02B84D-1250-4FEC-829E-45FBAB526404";
paths = (
{
closed = 1;
nodes = (
"146 -416 LINE",
"388 -416 LINE",
"388 34 LINE",
"439 -3 OFFCURVE",
"505 -21 OFFCURVE",
"586 -21 CURVE SMOOTH",
"684 -21 OFFCURVE",
"764 15 OFFCURVE",
"825 86 CURVE",
"832 0 LINE",
"1055 0 LINE",
"1055 1082 LINE",
"812 1082 LINE",
"812 296 LINE",
"773 215 OFFCURVE",
"697 175 OFFCURVE",
"585 175 CURVE SMOOTH",
"444 175 OFFCURVE",
"391 258 OFFCURVE",
"388 446 CURVE",
"388 1082 LINE",
"146 1082 LINE"
);
}
);
width = 1211;
}
);
note = mu;
unicode = 00B5;
},
{
glyphname = paragraph;
lastChange = "2019-02-04 10:03:05 +0000";
layers = (
{
layerId = "BC02B84D-1250-4FEC-829E-45FBAB526404";
paths = (
{
closed = 1;
nodes = (
"854 1456 LINE",
"565 1456 LINE SMOOTH",
"258 1456 OFFCURVE",
"69 1272 OFFCURVE",
"69 988 CURVE SMOOTH",
"69 703 OFFCURVE",
"257 520 OFFCURVE",
"564 520 CURVE SMOOTH",
"644 520 LINE",
"644 0 LINE",
"854 0 LINE"
);
}
);
width = 1005;
}
);
note = paragraph;
unicode = 00B6;
},
{
glyphname = periodcentered;
lastChange = "2019-02-04 10:03:05 +0000";
layers = (
{
layerId = "BC02B84D-1250-4FEC-829E-45FBAB526404";
paths = (
{
closed = 1;
nodes = (
"142 635 OFFCURVE",
"196 581 OFFCURVE",
"283 581 CURVE SMOOTH",
"368 581 OFFCURVE",
"425 635 OFFCURVE",
"425 714 CURVE SMOOTH",
"425 791 OFFCURVE",
"372 850 OFFCURVE",
"283 850 CURVE SMOOTH",
"194 850 OFFCURVE",
"142 791 OFFCURVE",
"142 714 CURVE SMOOTH"
);
}
);
width = 578;
}
);
note = periodcentered;
unicode = 00B7;
},
{
glyphname = cedilla;
lastChange = "2019-02-04 10:03:05 +0000";
layers = (
{
layerId = "BC02B84D-1250-4FEC-829E-45FBAB526404";
paths = (
{
closed = 1;
nodes = (
"109 -136 LINE",
"216 -143 OFFCURVE",
"260 -161 OFFCURVE",
"260 -221 CURVE SMOOTH",
"260 -277 OFFCURVE",
"211 -310 OFFCURVE",
"123 -310 CURVE",
"130 -447 LINE",
"337 -447 OFFCURVE",
"457 -364 OFFCURVE",
"457 -224 CURVE SMOOTH",
"457 -127 OFFCURVE",
"407 -69 OFFCURVE",
"307 -51 CURVE",
"318 3 LINE",
"141 3 LINE"
);
}
);
width = 528;
}
);
note = cedilla;
unicode = 00B8;
},
{
glyphname = onesuperior;
lastChange = "2019-02-04 10:03:05 +0000";
layers = (
{
layerId = "BC02B84D-1250-4FEC-829E-45FBAB526404";
paths = (
{
closed = 1;
nodes = (
"495 1454 LINE",
"128 1335 LINE",
"128 1189 LINE",
"329 1237 LINE",
"329 667 LINE",
"514 667 LINE",
"514 1454 LINE"
);
}
);
width = 758;
}
);
note = onesuperior;
unicode = 00B9;
},
{
glyphname = ordmasculine;
lastChange = "2019-02-04 10:03:05 +0000";
layers = (
{
layerId = "BC02B84D-1250-4FEC-829E-45FBAB526404";
paths = (
{
closed = 1;
nodes = (
"119 832 OFFCURVE",
"256 690 OFFCURVE",
"467 690 CURVE SMOOTH",
"676 690 OFFCURVE",
"812 832 OFFCURVE",
"812 1044 CURVE SMOOTH",
"812 1116 LINE SMOOTH",
"812 1337 OFFCURVE",
"672 1476 OFFCURVE",
"465 1476 CURVE SMOOTH",
"258 1476 OFFCURVE",
"119 1334 OFFCURVE",
"119 1121 CURVE SMOOTH",
"119 1049 LINE SMOOTH"
);
},
{
closed = 1;
nodes = (
"294 1253 OFFCURVE",
"361 1328 OFFCURVE",
"465 1328 CURVE SMOOTH",
"570 1328 OFFCURVE",
"637 1250 OFFCURVE",
"637 1121 CURVE SMOOTH",
"637 1041 LINE SMOOTH",
"636 912 OFFCURVE",
"571 836 OFFCURVE",
"467 836 CURVE SMOOTH",
"360 836 OFFCURVE",
"294 913 OFFCURVE",
"294 1044 CURVE SMOOTH",
"294 1117 LINE SMOOTH"
);
}
);
width = 935;
}
);
note = ordmasculine;
unicode = 00BA;
},
{
glyphname = guillemotright;
lastChange = "2019-02-04 10:03:05 +0000";
layers = (
{
layerId = "BC02B84D-1250-4FEC-829E-45FBAB526404";
paths = (
{
closed = 1;
nodes = (
"340 537 LINE",
"93 138 LINE",
"260 138 LINE",
"548 528 LINE",
"548 547 LINE",
"260 937 LINE",
"93 937 LINE"
);
},
{
closed = 1;
nodes = (
"713 537 LINE",
"466 138 LINE",
"633 138 LINE",
"921 528 LINE",
"921 547 LINE",
"633 937 LINE",
"466 937 LINE"
);
}
);
width = 994;
}
);
note = guillemotright;
unicode = 00BB;
},
{
glyphname = onequarter;
lastChange = "2019-02-04 10:03:05 +0000";
layers = (
{
layerId = "BC02B84D-1250-4FEC-829E-45FBAB526404";
paths = (
{
closed = 1;
nodes = (
"456 1451 LINE",
"89 1332 LINE",
"89 1186 LINE",
"290 1234 LINE",
"290 664 LINE",
"475 664 LINE",
"475 1451 LINE"
);
},
{
closed = 1;
nodes = (
"1039 1327 LINE",
"328 189 LINE",
"453 117 LINE",
"1164 1255 LINE"
);
},
{
closed = 1;
nodes = (
"1127 789 LINE",
"762 284 LINE",
"771 163 LINE",
"1129 163 LINE",
"1129 0 LINE",
"1316 0 LINE",
"1316 163 LINE",
"1411 163 LINE",
"1411 314 LINE",
"1316 314 LINE",
"1316 789 LINE"
);
},
{
closed = 1;
nodes = (
"1129 556 LINE",
"1129 314 LINE",
"943 314 LINE",
"1115 534 LINE"
);
}
);
width = 1488;
}
);
note = onequarter;
unicode = 00BC;
},
{
glyphname = onehalf;
lastChange = "2019-02-04 10:03:05 +0000";
layers = (
{
layerId = "BC02B84D-1250-4FEC-829E-45FBAB526404";
paths = (
{
closed = 1;
nodes = (
"996 1327 LINE",
"285 189 LINE",
"410 117 LINE",
"1121 1255 LINE"
);
},
{
closed = 1;
nodes = (
"447 1454 LINE",
"80 1335 LINE",
"80 1189 LINE",
"281 1237 LINE",
"281 667 LINE",
"466 667 LINE",
"466 1454 LINE"
);
},
{
closed = 1;
nodes = (
"1113 148 LINE",
"1253 261 LINE",
"1351 348 LINE",
"1422 416 OFFCURVE",
"1457 486 OFFCURVE",
"1457 557 CURVE SMOOTH",
"1457 710 OFFCURVE",
"1349 800 OFFCURVE",
"1158 800 CURVE SMOOTH",
"978 800 OFFCURVE",
"854 686 OFFCURVE",
"854 531 CURVE",
"1040 531 LINE",
"1040 603 OFFCURVE",
"1087 651 OFFCURVE",
"1164 651 CURVE SMOOTH",
"1233 651 OFFCURVE",
"1270 612 OFFCURVE",
"1270 556 CURVE SMOOTH",
"1270 511 OFFCURVE",
"1232 455 OFFCURVE",
"1157 386 CURVE SMOOTH",
"872 125 LINE",
"872 0 LINE",
"1484 0 LINE",
"1484 148 LINE"
);
}
);
width = 1579;
}
);
note = onehalf;
unicode = 00BD;
},
{
glyphname = threequarters;
lastChange = "2019-02-04 10:03:05 +0000";
layers = (
{
layerId = "BC02B84D-1250-4FEC-829E-45FBAB526404";
paths = (
{
closed = 1;
nodes = (
"1180 1327 LINE",
"469 189 LINE",
"594 117 LINE",
"1305 1255 LINE"
);
},
{
closed = 1;
nodes = (
"1248 789 LINE",
"883 284 LINE",
"892 163 LINE",
"1250 163 LINE",
"1250 0 LINE",
"1437 0 LINE",
"1437 163 LINE",
"1532 163 LINE",
"1532 314 LINE",
"1437 314 LINE",
"1437 789 LINE"
);
},
{
closed = 1;
nodes = (
"1250 556 LINE",
"1250 314 LINE",
"1064 314 LINE",
"1236 534 LINE"
);
},
{
closed = 1;
nodes = (
"408 1004 LINE SMOOTH",
"497 1003 OFFCURVE",
"542 969 OFFCURVE",
"542 902 CURVE SMOOTH",
"542 846 OFFCURVE",
"502 805 OFFCURVE",
"418 805 CURVE SMOOTH",
"338 805 OFFCURVE",
"289 845 OFFCURVE",
"289 896 CURVE",
"103 896 LINE",
"103 745 OFFCURVE",
"229 656 OFFCURVE",
"409 656 CURVE SMOOTH",
"600 656 OFFCURVE",
"729 747 OFFCURVE",
"729 888 CURVE SMOOTH",
"729 983 OFFCURVE",
"679 1044 OFFCURVE",
"580 1071 CURVE",
"670 1105 OFFCURVE",
"715 1162 OFFCURVE",
"715 1241 CURVE SMOOTH",
"715 1381 OFFCURVE",
"600 1467 OFFCURVE",
"409 1467 CURVE SMOOTH",
"236 1467 OFFCURVE",
"114 1376 OFFCURVE",
"114 1244 CURVE",
"300 1244 LINE",
"300 1291 OFFCURVE",
"349 1318 OFFCURVE",
"413 1318 CURVE SMOOTH",
"496 1318 OFFCURVE",
"529 1277 OFFCURVE",
"529 1230 CURVE SMOOTH",
"529 1165 OFFCURVE",
"485 1133 OFFCURVE",
"397 1133 CURVE SMOOTH",
"316 1133 LINE",
"316 1004 LINE"
);
}
);
width = 1623;
}
);
note = threequarters;
unicode = 00BE;
},
{
glyphname = questiondown;
lastChange = "2019-02-04 10:03:05 +0000";
layers = (
{
layerId = "BC02B84D-1250-4FEC-829E-45FBAB526404";
paths = (
{
closed = 1;
nodes = (
"401 608 LINE",
"394 531 OFFCURVE",
"365 469 OFFCURVE",
"313 421 CURVE",
"221 328 LINE SMOOTH",
"118 219 OFFCURVE",
"66 110 OFFCURVE",
"66 0 CURVE SMOOTH",
"66 -245 OFFCURVE",
"223 -385 OFFCURVE",
"498 -385 CURVE SMOOTH",
"757 -385 OFFCURVE",
"930 -236 OFFCURVE",
"933 0 CURVE",
"690 0 LINE",
"690 -111 OFFCURVE",
"613 -183 OFFCURVE",
"496 -183 CURVE SMOOTH",
"377 -183 OFFCURVE",
"309 -121 OFFCURVE",
"309 4 CURVE SMOOTH",
"309 75 OFFCURVE",
"339 142 OFFCURVE",
"399 207 CURVE SMOOTH",
"502 313 LINE SMOOTH",
"599 418 OFFCURVE",
"627 496 OFFCURVE",
"630 661 CURVE",
"403 661 LINE"
);
},
{
closed = 1;
nodes = (
"650 1045 OFFCURVE",
"601 1102 OFFCURVE",
"513 1102 CURVE SMOOTH",
"425 1102 OFFCURVE",
"375 1045 OFFCURVE",
"375 972 CURVE SMOOTH",
"375 897 OFFCURVE",
"425 841 OFFCURVE",
"513 841 CURVE SMOOTH",
"601 841 OFFCURVE",
"650 897 OFFCURVE",
"650 972 CURVE SMOOTH"
);
}
);
width = 996;
}
);
note = questiondown;
unicode = 00BF;
},
{
glyphname = AE;
lastChange = "2019-02-04 10:03:05 +0000";
layers = (
{
layerId = "BC02B84D-1250-4FEC-829E-45FBAB526404";
paths = (
{
closed = 1;
nodes = (
"1216 196 LINE",
"1196 654 LINE",
"1736 654 LINE",
"1736 851 LINE",
"1188 851 LINE",
"1171 1259 LINE",
"1817 1259 LINE",
"1817 1456 LINE",
"825 1456 LINE",
"-10 0 LINE",
"280 0 LINE",
"464 340 LINE",
"966 340 LINE",
"981 0 LINE",
"1879 0 LINE",
"1879 196 LINE"
);
},
{
closed = 1;
nodes = (
"957 555 LINE",
"580 555 LINE",
"930 1203 LINE"
);
}
);
width = 1925;
}
);
note = AE;
unicode = 00C6;
},
{
glyphname = multiply;
lastChange = "2019-02-04 10:03:05 +0000";
layers = (
{
layerId = "BC02B84D-1250-4FEC-829E-45FBAB526404";
paths = (
{
closed = 1;
nodes = (
"540 535 LINE",
"856 214 LINE",
"1004 364 LINE",
"688 686 LINE",
"1004 1008 LINE",
"856 1158 LINE",
"540 836 LINE",
"225 1158 LINE",
"77 1008 LINE",
"393 686 LINE",
"77 364 LINE",
"225 214 LINE"
);
}
);
width = 1092;
}
);
note = multiply;
unicode = 00D7;
},
{
glyphname = Oslash;
lastChange = "2019-02-04 10:03:05 +0000";
layers = (
{
layerId = "BC02B84D-1250-4FEC-829E-45FBAB526404";
paths = (
{
closed = 1;
nodes = (
"1313 976 OFFCURVE",
"1261 1146 OFFCURVE",
"1156 1275 CURVE",
"1303 1518 LINE",
"1136 1518 LINE",
"1049 1375 LINE",
"954 1442 OFFCURVE",
"840 1476 OFFCURVE",
"709 1476 CURVE SMOOTH",
"590 1476 OFFCURVE",
"485 1447 OFFCURVE",
"393 1389 CURVE SMOOTH",
"209 1272 OFFCURVE",
"105 1048 OFFCURVE",
"105 764 CURVE SMOOTH",
"105 697 LINE SMOOTH",
"105 458 OFFCURVE",
"170 273 OFFCURVE",
"300 143 CURVE",
"155 -95 LINE",
"324 -95 LINE",
"415 55 LINE",
"503 5 OFFCURVE",
"602 -20 OFFCURVE",
"711 -20 CURVE SMOOTH",
"831 -20 OFFCURVE",
"937 9 OFFCURVE",
"1029 67 CURVE SMOOTH",
"1212 182 OFFCURVE",
"1314 405 OFFCURVE",
"1314 690 CURVE SMOOTH",
"1314 765 LINE"
);
},
{
closed = 1;
nodes = (
"361 1087 OFFCURVE",
"490 1266 OFFCURVE",
"709 1266 CURVE SMOOTH",
"799 1266 OFFCURVE",
"873 1238 OFFCURVE",
"931 1181 CURVE",
"429 355 LINE",
"382 440 OFFCURVE",
"358 552 OFFCURVE",
"358 690 CURVE SMOOTH",
"358 774 LINE SMOOTH"
);
},
{
closed = 1;
nodes = (
"1061 362 OFFCURVE",
"936 188 OFFCURVE",
"711 188 CURVE SMOOTH",
"641 188 OFFCURVE",
"580 206 OFFCURVE",
"528 242 CURVE",
"1017 1046 LINE",
"1046 970 OFFCURVE",
"1061 877 OFFCURVE",
"1061 766 CURVE SMOOTH",
"1061 690 LINE SMOOTH"
);
}
);
width = 1412;
}
);
leftKerningGroup = C;
note = Oslash;
unicode = 00D8;
},
{
glyphname = Thorn;
lastChange = "2019-02-04 10:03:05 +0000";
layers = (
{
layerId = "BC02B84D-1250-4FEC-829E-45FBAB526404";
paths = (
{
closed = 1;
nodes = (
"148 0 LINE",
"391 0 LINE",
"391 300 LINE",
"633 300 LINE SMOOTH",
"957 300 OFFCURVE",
"1150 473 OFFCURVE",
"1150 738 CURVE SMOOTH",
"1150 1005 OFFCURVE",
"957 1176 OFFCURVE",
"632 1176 CURVE SMOOTH",
"391 1176 LINE",
"391 1456 LINE",
"148 1456 LINE"
);
},
{
closed = 1;
nodes = (
"808 978 OFFCURVE",
"907 884 OFFCURVE",
"907 736 CURVE SMOOTH",
"907 588 OFFCURVE",
"804 495 OFFCURVE",
"637 495 CURVE SMOOTH",
"391 495 LINE",
"391 981 LINE",
"645 981 LINE SMOOTH"
);
}
);
width = 1226;
}
);
note = Thorn;
unicode = 00DE;
},
{
glyphname = germandbls;
lastChange = "2019-02-04 10:03:05 +0000";
layers = (
{
layerId = "BC02B84D-1250-4FEC-829E-45FBAB526404";
paths = (
{
closed = 1;
nodes = (
"381 1281 OFFCURVE",
"443 1363 OFFCURVE",
"566 1363 CURVE SMOOTH",
"673 1363 OFFCURVE",
"738 1293 OFFCURVE",
"738 1185 CURVE SMOOTH",
"738 1134 OFFCURVE",
"717 1075 OFFCURVE",
"675 1008 CURVE SMOOTH",
"633 941 OFFCURVE",
"612 878 OFFCURVE",
"612 819 CURVE SMOOTH",
"612 712 OFFCURVE",
"664 626 OFFCURVE",
"780 535 CURVE SMOOTH",
"896 444 OFFCURVE",
"937 392 OFFCURVE",
"937 327 CURVE SMOOTH",
"937 238 OFFCURVE",
"879 174 OFFCURVE",
"750 174 CURVE SMOOTH",
"678 174 OFFCURVE",
"584 202 OFFCURVE",
"524 239 CURVE",
"475 44 LINE",
"526 11 OFFCURVE",
"657 -20 OFFCURVE",
"764 -20 CURVE SMOOTH",
"1028 -20 OFFCURVE",
"1179 108 OFFCURVE",
"1179 336 CURVE SMOOTH",
"1179 436 OFFCURVE",
"1128 523 OFFCURVE",
"1009 622 CURVE SMOOTH",
"950 671 OFFCURVE",
"909 710 OFFCURVE",
"888 738 CURVE SMOOTH",
"866 766 OFFCURVE",
"855 795 OFFCURVE",
"855 824 CURVE SMOOTH",
"855 876 OFFCURVE",
"866 909 OFFCURVE",
"912 985 CURVE SMOOTH",
"958 1060 OFFCURVE",
"973 1118 OFFCURVE",
"973 1201 CURVE SMOOTH",
"973 1426 OFFCURVE",
"820 1557 OFFCURVE",
"571 1557 CURVE SMOOTH",
"296 1557 OFFCURVE",
"136 1390 OFFCURVE",
"136 1105 CURVE SMOOTH",
"136 0 LINE",
"378 0 LINE",
"378 1116 LINE SMOOTH"
);
}
);
width = 1255;
}
);
note = germandbls;
unicode = 00DF;
},
{
glyphname = ae;
lastChange = "2019-02-04 10:03:05 +0000";
layers = (
{
layerId = "BC02B84D-1250-4FEC-829E-45FBAB526404";
paths = (
{
closed = 1;
nodes = (
"1405 -20 OFFCURVE",
"1553 25 OFFCURVE",
"1646 100 CURVE",
"1573 266 LINE",
"1512 232 LINE SMOOTH",
"1441 193 OFFCURVE",
"1359 174 OFFCURVE",
"1268 174 CURVE SMOOTH",
"1089 174 OFFCURVE",
"985 286 OFFCURVE",
"973 471 CURVE",
"1668 471 LINE",
"1668 608 LINE SMOOTH",
"1668 921 OFFCURVE",
"1501 1102 OFFCURVE",
"1218 1102 CURVE SMOOTH",
"1085 1103 OFFCURVE",
"974 1059 OFFCURVE",
"887 969 CURVE",
"813 1058 OFFCURVE",
"702 1102 OFFCURVE",
"553 1102 CURVE SMOOTH",
"290 1102 OFFCURVE",
"103 966 OFFCURVE",
"103 771 CURVE",
"345 752 LINE",
"345 840 OFFCURVE",
"430 907 OFFCURVE",
"551 907 CURVE SMOOTH",
"668 907 OFFCURVE",
"734 834 OFFCURVE",
"734 713 CURVE SMOOTH",
"734 642 LINE",
"543 642 LINE SMOOTH",
"232 642 OFFCURVE",
"72 523 OFFCURVE",
"72 312 CURVE SMOOTH",
"72 104 OFFCURVE",
"213 -20 OFFCURVE",
"448 -20 CURVE SMOOTH",
"627 -20 OFFCURVE",
"774 38 OFFCURVE",
"861 141 CURVE",
"954 34 OFFCURVE",
"1085 -20 OFFCURVE",
"1254 -20 CURVE SMOOTH"
);
},
{
closed = 1;
nodes = (
"378 164 OFFCURVE",
"314 221 OFFCURVE",
"314 308 CURVE SMOOTH",
"314 401 OFFCURVE",
"399 472 OFFCURVE",
"538 475 CURVE SMOOTH",
"734 475 LINE",
"734 266 LINE",
"674 209 OFFCURVE",
"572 164 OFFCURVE",
"495 164 CURVE SMOOTH"
);
},
{
closed = 1;
nodes = (
"1353 907 OFFCURVE",
"1428 823 OFFCURVE",
"1428 672 CURVE SMOOTH",
"1428 642 LINE",
"976 642 LINE",
"997 811 OFFCURVE",
"1086 907 OFFCURVE",
"1218 907 CURVE SMOOTH"
);
}
);
width = 1729;
}
);
note = ae;
unicode = 00E6;
},
{
glyphname = eth;
lastChange = "2019-02-04 10:03:05 +0000";
layers = (
{
layerId = "BC02B84D-1250-4FEC-829E-45FBAB526404";
paths = (
{
closed = 1;
nodes = (
"910 1515 LINE",
"730 1395 LINE",
"612 1485 OFFCURVE",
"474 1547 OFFCURVE",
"315 1580 CURVE",
"240 1385 LINE",
"348 1357 OFFCURVE",
"444 1316 OFFCURVE",
"528 1261 CURVE",
"356 1147 LINE",
"434 1038 LINE",
"638 1173 LINE",
"722 1092 OFFCURVE",
"780 995 OFFCURVE",
"813 882 CURVE",
"738 943 OFFCURVE",
"651 973 OFFCURVE",
"554 973 CURVE SMOOTH",
"466 973 OFFCURVE",
"388 952 OFFCURVE",
"319 911 CURVE SMOOTH",
"182 827 OFFCURVE",
"103 667 OFFCURVE",
"103 468 CURVE SMOOTH",
"103 377 OFFCURVE",
"124 294 OFFCURVE",
"166 219 CURVE SMOOTH",
"250 68 OFFCURVE",
"409 -20 OFFCURVE",
"593 -20 CURVE SMOOTH",
"686 -20 OFFCURVE",
"771 4 OFFCURVE",
"848 53 CURVE SMOOTH",
"1000 150 OFFCURVE",
"1088 334 OFFCURVE",
"1088 555 CURVE SMOOTH",
"1088 637 LINE SMOOTH",
"1088 904 OFFCURVE",
"1003 1126 OFFCURVE",
"834 1303 CURVE",
"988 1406 LINE"
);
},
{
closed = 1;
nodes = (
"845 316 OFFCURVE",
"745 174 OFFCURVE",
"597 174 CURVE SMOOTH",
"450 174 OFFCURVE",
"346 300 OFFCURVE",
"346 468 CURVE SMOOTH",
"346 667 OFFCURVE",
"443 785 OFFCURVE",
"611 785 CURVE SMOOTH",
"715 785 OFFCURVE",
"801 745 OFFCURVE",
"844 681 CURVE",
"845 663 LINE",
"845 547 LINE SMOOTH"
);
}
);
width = 1191;
}
);
note = eth;
unicode = 00F0;
},
{
glyphname = divide;
lastChange = "2019-02-04 10:03:05 +0000";
layers = (
{
layerId = "BC02B84D-1250-4FEC-829E-45FBAB526404";
paths = (
{
closed = 1;
nodes = (
"67 794 LINE",
"67 582 LINE",
"1079 582 LINE",
"1079 794 LINE"
);
},
{
closed = 1;
nodes = (
"487 1228 OFFCURVE",
"435 1171 OFFCURVE",
"435 1095 CURVE SMOOTH",
"435 1019 OFFCURVE",
"487 963 OFFCURVE",
"576 963 CURVE SMOOTH",
"667 963 OFFCURVE",
"718 1019 OFFCURVE",
"718 1095 CURVE SMOOTH",
"718 1171 OFFCURVE",
"667 1228 OFFCURVE",
"576 1228 CURVE SMOOTH"
);
},
{
closed = 1;
nodes = (
"435 202 OFFCURVE",
"487 147 OFFCURVE",
"576 147 CURVE SMOOTH",
"667 147 OFFCURVE",
"718 202 OFFCURVE",
"718 278 CURVE SMOOTH",
"718 355 OFFCURVE",
"667 412 OFFCURVE",
"576 412 CURVE SMOOTH",
"487 412 OFFCURVE",
"435 355 OFFCURVE",
"435 278 CURVE SMOOTH"
);
}
);
width = 1169;
}
);
note = divide;
unicode = 00F7;
},
{
glyphname = oslash;
lastChange = "2019-02-04 10:03:05 +0000";
layers = (
{
layerId = "BC02B84D-1250-4FEC-829E-45FBAB526404";
paths = (
{
closed = 1;
nodes = (
"79 330 OFFCURVE",
"148 170 OFFCURVE",
"285 70 CURVE",
"183 -137 LINE",
"328 -137 LINE",
"400 10 LINE",
"460 -10 OFFCURVE",
"521 -20 OFFCURVE",
"583 -20 CURVE SMOOTH",
"683 -20 OFFCURVE",
"771 3 OFFCURVE",
"848 49 CURVE SMOOTH",
"1000 141 OFFCURVE",
"1085 317 OFFCURVE",
"1085 530 CURVE SMOOTH",
"1085 743 OFFCURVE",
"1020 901 OFFCURVE",
"889 1003 CURVE",
"991 1211 LINE",
"846 1211 LINE",
"775 1068 LINE",
"716 1091 OFFCURVE",
"652 1102 OFFCURVE",
"581 1102 CURVE SMOOTH",
"482 1102 OFFCURVE",
"395 1079 OFFCURVE",
"319 1034 CURVE SMOOTH",
"167 942 OFFCURVE",
"79 763 OFFCURVE",
"79 551 CURVE SMOOTH"
);
},
{
closed = 1;
nodes = (
"322 781 OFFCURVE",
"422 907 OFFCURVE",
"581 907 CURVE SMOOTH",
"619 907 OFFCURVE",
"654 900 OFFCURVE",
"685 885 CURVE",
"386 276 LINE",
"343 341 OFFCURVE",
"322 426 OFFCURVE",
"322 530 CURVE SMOOTH"
);
},
{
closed = 1;
nodes = (
"843 304 OFFCURVE",
"747 174 OFFCURVE",
"583 174 CURVE SMOOTH",
"549 174 OFFCURVE",
"518 180 OFFCURVE",
"489 191 CURVE",
"785 792 LINE",
"824 730 OFFCURVE",
"843 650 OFFCURVE",
"843 551 CURVE SMOOTH"
);
}
);
width = 1160;
}
);
note = oslash;
unicode = 00F8;
},
{
glyphname = thorn;
lastChange = "2019-02-04 10:03:05 +0000";
layers = (
{
layerId = "BC02B84D-1250-4FEC-829E-45FBAB526404";
paths = (
{
closed = 1;
nodes = (
"1079 895 OFFCURVE",
"918 1102 OFFCURVE",
"655 1102 CURVE SMOOTH",
"538 1102 OFFCURVE",
"444 1062 OFFCURVE",
"373 983 CURVE",
"373 1536 LINE",
"130 1536 LINE",
"130 -416 LINE",
"373 -416 LINE",
"373 97 LINE",
"444 19 OFFCURVE",
"539 -20 OFFCURVE",
"658 -20 CURVE SMOOTH",
"917 -20 OFFCURVE",
"1079 201 OFFCURVE",
"1079 530 CURVE SMOOTH",
"1079 546 LINE SMOOTH"
);
},
{
closed = 1;
nodes = (
"836 298 OFFCURVE",
"744 174 OFFCURVE",
"589 174 CURVE SMOOTH",
"489 174 OFFCURVE",
"417 216 OFFCURVE",
"373 300 CURVE",
"373 780 LINE",
"416 862 OFFCURVE",
"488 903 OFFCURVE",
"587 903 CURVE SMOOTH",
"744 903 OFFCURVE",
"836 772 OFFCURVE",
"836 551 CURVE SMOOTH"
);
}
);
width = 1175;
}
);
note = thorn;
rightKerningGroup = b;
unicode = 00FE;
},
{
glyphname = dcroat;
lastChange = "2019-02-04 10:03:05 +0000";
layers = (
{
layerId = "BC02B84D-1250-4FEC-829E-45FBAB526404";
paths = (
{
closed = 1;
nodes = (
"1027 1394 LINE",
"1027 1536 LINE",
"784 1536 LINE",
"784 1394 LINE",
"533 1394 LINE",
"533 1224 LINE",
"784 1224 LINE",
"784 982 LINE",
"713 1062 OFFCURVE",
"621 1102 OFFCURVE",
"506 1102 CURVE SMOOTH",
"246 1102 OFFCURVE",
"79 882 OFFCURVE",
"79 549 CURVE SMOOTH",
"79 198 OFFCURVE",
"251 -20 OFFCURVE",
"504 -20 CURVE SMOOTH",
"625 -20 OFFCURVE",
"722 24 OFFCURVE",
"795 112 CURVE",
"807 0 LINE",
"1027 0 LINE",
"1027 1224 LINE",
"1202 1224 LINE",
"1202 1394 LINE"
);
},
{
closed = 1;
nodes = (
"322 779 OFFCURVE",
"411 903 OFFCURVE",
"568 903 CURVE SMOOTH",
"667 903 OFFCURVE",
"739 860 OFFCURVE",
"784 773 CURVE",
"784 311 LINE",
"738 222 OFFCURVE",
"665 178 OFFCURVE",
"566 178 CURVE SMOOTH",
"410 178 OFFCURVE",
"322 308 OFFCURVE",
"322 528 CURVE SMOOTH"
);
}
);
width = 1261;
}
);
note = dcroat;
unicode = 0111;
},
{
glyphname = Hbar;
lastChange = "2019-02-04 10:03:05 +0000";
layers = (
{
layerId = "BC02B84D-1250-4FEC-829E-45FBAB526404";
paths = (
{
closed = 1;
nodes = (
"1058 1456 LINE",
"1058 1198 LINE",
"407 1198 LINE",
"407 1456 LINE",
"155 1456 LINE",
"155 1198 LINE",
"31 1198 LINE",
"31 1036 LINE",
"155 1036 LINE",
"155 0 LINE",
"407 0 LINE",
"407 647 LINE",
"1058 647 LINE",
"1058 0 LINE",
"1310 0 LINE",
"1310 1036 LINE",
"1437 1036 LINE",
"1437 1198 LINE",
"1310 1198 LINE",
"1310 1456 LINE"
);
},
{
closed = 1;
nodes = (
"1058 1036 LINE",
"1058 850 LINE",
"407 850 LINE",
"407 1036 LINE"
);
}
);
width = 1456;
}
);
note = Hbar;
unicode = 0126;
},
{
glyphname = dotlessi;
lastChange = "2019-02-04 10:03:05 +0000";
layers = (
{
layerId = "BC02B84D-1250-4FEC-829E-45FBAB526404";
paths = (
{
closed = 1;
nodes = (
"143 1082 LINE",
"143 0 LINE",
"386 0 LINE",
"386 1082 LINE"
);
}
);
width = 538;
}
);
note = dotlessi;
unicode = 0131;
},
{
glyphname = kgreenlandic;
lastChange = "2019-02-04 10:03:05 +0000";
layers = (
{
layerId = "BC02B84D-1250-4FEC-829E-45FBAB526404";
paths = (
{
closed = 1;
nodes = (
"1131 0 LINE",
"690 557 LINE",
"1105 1082 LINE",
"805 1082 LINE",
"469 650 LINE",
"384 650 LINE",
"384 1082 LINE",
"142 1082 LINE",
"142 0 LINE",
"384 0 LINE",
"384 428 LINE",
"495 428 LINE",
"822 0 LINE"
);
}
);
width = 1176;
}
);
note = kgreenlandic;
unicode = 0138;
},
{
glyphname = Lslash;
lastChange = "2019-02-04 10:03:05 +0000";
layers = (
{
layerId = "BC02B84D-1250-4FEC-829E-45FBAB526404";
paths = (
{
closed = 1;
nodes = (
"164 1456 LINE",
"164 794 LINE",
"34 755 LINE",
"34 608 LINE",
"164 647 LINE",
"164 0 LINE",
"1078 0 LINE",
"1078 202 LINE",
"417 202 LINE",
"417 724 LINE",
"651 795 LINE",
"651 942 LINE",
"417 871 LINE",
"417 1456 LINE"
);
}
);
width = 1124;
}
);
note = Lslash;
unicode = 0141;
},
{
glyphname = lslash;
lastChange = "2019-02-04 10:03:05 +0000";
layers = (
{
layerId = "BC02B84D-1250-4FEC-829E-45FBAB526404";
paths = (
{
closed = 1;
nodes = (
"167 1536 LINE",
"167 802 LINE",
"33 755 LINE",
"33 609 LINE",
"167 656 LINE",
"167 0 LINE",
"410 0 LINE",
"410 743 LINE",
"558 796 LINE",
"558 942 LINE",
"410 889 LINE",
"410 1536 LINE"
);
}
);
width = 591;
}
);
note = lslash;
unicode = 0142;
},
{
glyphname = Eng;
lastChange = "2019-02-04 10:03:05 +0000";
layers = (
{
layerId = "BC02B84D-1250-4FEC-829E-45FBAB526404";
paths = (
{
closed = 1;
nodes = (
"1035 412 LINE",
"396 1456 LINE",
"144 1456 LINE",
"144 0 LINE",
"396 0 LINE",
"396 1045 LINE",
"1035 0 LINE",
"1035 -49 LINE SMOOTH",
"1035 -172 OFFCURVE",
"994 -233 OFFCURVE",
"912 -233 CURVE SMOOTH",
"873 -233 OFFCURVE",
"841 -229 OFFCURVE",
"814 -221 CURVE",
"800 -420 LINE",
"840 -431 OFFCURVE",
"883 -437 OFFCURVE",
"930 -437 CURVE SMOOTH",
"1155 -437 OFFCURVE",
"1289 -300 OFFCURVE",
"1289 -56 CURVE SMOOTH",
"1289 1456 LINE",
"1035 1456 LINE"
);
}
);
width = 1427;
}
);
note = Eng;
unicode = 014A;
},
{
glyphname = eng;
lastChange = "2019-02-04 10:03:05 +0000";
layers = (
{
layerId = "BC02B84D-1250-4FEC-829E-45FBAB526404";
paths = (
{
closed = 1;
nodes = (
"126 0 LINE",
"369 0 LINE",
"369 800 LINE",
"419 869 OFFCURVE",
"492 903 OFFCURVE",
"589 903 CURVE SMOOTH",
"729 903 OFFCURVE",
"787 831 OFFCURVE",
"787 671 CURVE SMOOTH",
"787 -58 LINE SMOOTH",
"787 -175 OFFCURVE",
"746 -234 OFFCURVE",
"663 -234 CURVE SMOOTH",
"624 -234 OFFCURVE",
"591 -230 OFFCURVE",
"564 -222 CURVE",
"550 -420 LINE",
"589 -431 OFFCURVE",
"631 -437 OFFCURVE",
"677 -437 CURVE SMOOTH",
"898 -437 OFFCURVE",
"1030 -303 OFFCURVE",
"1030 -63 CURVE SMOOTH",
"1030 678 LINE",
"1029 958 OFFCURVE",
"907 1102 OFFCURVE",
"672 1102 CURVE SMOOTH",
"541 1102 OFFCURVE",
"438 1045 OFFCURVE",
"361 932 CURVE",
"348 1082 LINE",
"126 1082 LINE"
);
}
);
width = 1160;
}
);
note = eng;
unicode = 014B;
},
{
glyphname = OE;
lastChange = "2019-02-04 10:03:05 +0000";
layers = (
{
layerId = "BC02B84D-1250-4FEC-829E-45FBAB526404";
paths = (
{
closed = 1;
nodes = (
"1138 202 LINE",
"1138 650 LINE",
"1736 650 LINE",
"1736 850 LINE",
"1138 850 LINE",
"1138 1252 LINE",
"1830 1252 LINE",
"1830 1456 LINE",
"970 1456 LINE",
"859 1469 OFFCURVE",
"762 1476 OFFCURVE",
"680 1476 CURVE SMOOTH",
"568 1476 OFFCURVE",
"468 1451 OFFCURVE",
"379 1401 CURVE SMOOTH",
"201 1301 OFFCURVE",
"100 1109 OFFCURVE",
"100 880 CURVE SMOOTH",
"100 566 LINE SMOOTH",
"101 453 OFFCURVE",
"127 351 OFFCURVE",
"176 262 CURVE SMOOTH",
"275 82 OFFCURVE",
"459 -20 OFFCURVE",
"682 -20 CURVE SMOOTH",
"763 -20 OFFCURVE",
"859 -13 OFFCURVE",
"970 0 CURVE",
"1837 0 LINE",
"1837 202 LINE"
);
},
{
closed = 1;
nodes = (
"467 174 OFFCURVE",
"343 319 OFFCURVE",
"343 576 CURVE SMOOTH",
"343 886 LINE SMOOTH",
"344 1137 OFFCURVE",
"465 1281 OFFCURVE",
"680 1281 CURVE SMOOTH",
"741 1281 OFFCURVE",
"809 1276 OFFCURVE",
"885 1267 CURVE",
"885 187 LINE",
"816 178 OFFCURVE",
"748 174 OFFCURVE",
"682 174 CURVE SMOOTH"
);
}
);
width = 1972;
}
);
leftKerningGroup = C;
note = OE;
unicode = 0152;
},
{
glyphname = oe;
lastChange = "2019-02-04 10:03:05 +0000";
layers = (
{
layerId = "BC02B84D-1250-4FEC-829E-45FBAB526404";
paths = (
{
closed = 1;
nodes = (
"91 195 OFFCURVE",
"285 -20 OFFCURVE",
"588 -20 CURVE SMOOTH",
"752 -20 OFFCURVE",
"879 38 OFFCURVE",
"968 154 CURVE",
"1061 38 OFFCURVE",
"1190 -20 OFFCURVE",
"1355 -20 CURVE SMOOTH",
"1515 -20 OFFCURVE",
"1656 24 OFFCURVE",
"1751 108 CURVE",
"1672 266 LINE",
"1577 199 OFFCURVE",
"1488 174 OFFCURVE",
"1369 174 CURVE SMOOTH",
"1213 174 OFFCURVE",
"1111 286 OFFCURVE",
"1096 471 CURVE",
"1778 471 LINE",
"1778 607 LINE SMOOTH",
"1778 922 OFFCURVE",
"1611 1102 OFFCURVE",
"1326 1102 CURVE SMOOTH",
"1181 1103 OFFCURVE",
"1056 1037 OFFCURVE",
"969 925 CURVE",
"880 1043 OFFCURVE",
"752 1102 OFFCURVE",
"586 1102 CURVE SMOOTH",
"287 1102 OFFCURVE",
"91 882 OFFCURVE",
"91 551 CURVE SMOOTH",
"91 539 LINE SMOOTH"
);
},
{
closed = 1;
nodes = (
"333 785 OFFCURVE",
"430 907 OFFCURVE",
"586 907 CURVE SMOOTH",
"746 907 OFFCURVE",
"841 772 OFFCURVE",
"841 551 CURVE SMOOTH",
"841 295 OFFCURVE",
"747 174 OFFCURVE",
"588 174 CURVE SMOOTH",
"427 174 OFFCURVE",
"333 303 OFFCURVE",
"333 530 CURVE SMOOTH"
);
},
{
closed = 1;
nodes = (
"1458 907 OFFCURVE",
"1538 822 OFFCURVE",
"1538 674 CURVE SMOOTH",
"1538 649 LINE",
"1101 649 LINE",
"1128 810 OFFCURVE",
"1213 907 OFFCURVE",
"1326 907 CURVE SMOOTH"
);
}
);
width = 1850;
}
);
leftKerningGroup = c;
note = oe;
unicode = 0153;
},
{
glyphname = longs;
lastChange = "2019-02-04 10:03:05 +0000";
layers = (
{
layerId = "BC02B84D-1250-4FEC-829E-45FBAB526404";
paths = (
{
closed = 1;
nodes = (
"381 1176 LINE SMOOTH",
"381 1300 OFFCURVE",
"435 1362 OFFCURVE",
"544 1362 CURVE SMOOTH",
"577 1362 OFFCURVE",
"608 1358 OFFCURVE",
"636 1351 CURVE",
"661 1536 LINE",
"602 1550 OFFCURVE",
"551 1557 OFFCURVE",
"509 1557 CURVE SMOOTH",
"274 1557 OFFCURVE",
"139 1423 OFFCURVE",
"139 1180 CURVE SMOOTH",
"139 0 LINE",
"381 0 LINE"
);
}
);
width = 524;
}
);
note = longs;
unicode = 017F;
},
{
glyphname = uni018F;
lastChange = "2019-02-04 10:03:05 +0000";
layers = (
{
layerId = "BC02B84D-1250-4FEC-829E-45FBAB526404";
paths = (
{
closed = 1;
nodes = (
"809 -20 OFFCURVE",
"912 9 OFFCURVE",
"1007 68 CURVE SMOOTH",
"1195 184 OFFCURVE",
"1310 407 OFFCURVE",
"1310 667 CURVE SMOOTH",
"1310 774 LINE SMOOTH",
"1310 1213 OFFCURVE",
"1052 1476 OFFCURVE",
"633 1476 CURVE SMOOTH",
"488 1476 OFFCURVE",
"356 1452 OFFCURVE",
"239 1404 CURVE",
"206 1389 LINE",
"255 1191 LINE",
"307 1210 LINE SMOOTH",
"408 1245 OFFCURVE",
"514 1262 OFFCURVE",
"625 1262 CURVE SMOOTH",
"897 1262 OFFCURVE",
"1050 1097 OFFCURVE",
"1057 798 CURVE",
"81 798 LINE",
"81 661 LINE SMOOTH",
"81 222 OFFCURVE",
"307 -20 OFFCURVE",
"696 -20 CURVE SMOOTH"
);
},
{
closed = 1;
nodes = (
"460 192 OFFCURVE",
"333 321 OFFCURVE",
"333 568 CURVE SMOOTH",
"333 599 LINE",
"1054 599 LINE",
"1030 347 OFFCURVE",
"896 192 OFFCURVE",
"696 192 CURVE SMOOTH"
);
}
);
width = 1416;
}
);
note = uni018F;
rightKerningGroup = D;
unicode = 018F;
},
{
glyphname = florin;
lastChange = "2019-02-04 10:03:05 +0000";
layers = (
{
layerId = "BC02B84D-1250-4FEC-829E-45FBAB526404";
paths = (
{
closed = 1;
nodes = (
"443 1082 LINE",
"443 1185 LINE SMOOTH",
"444 1300 OFFCURVE",
"496 1358 OFFCURVE",
"601 1358 CURVE SMOOTH",
"640 1358 OFFCURVE",
"673 1355 OFFCURVE",
"698 1348 CURVE",
"723 1536 LINE",
"662 1550 OFFCURVE",
"612 1557 OFFCURVE",
"571 1557 CURVE SMOOTH",
"335 1557 OFFCURVE",
"200 1423 OFFCURVE",
"200 1180 CURVE SMOOTH",
"200 1082 LINE",
"35 1082 LINE",
"35 902 LINE",
"200 902 LINE",
"200 -68 LINE SMOOTH",
"200 -184 OFFCURVE",
"160 -242 OFFCURVE",
"80 -242 CURVE SMOOTH",
"56 -242 OFFCURVE",
"-4 -233 OFFCURVE",
"-13 -229 CURVE",
"-28 -420 LINE",
"8 -431 OFFCURVE",
"50 -437 OFFCURVE",
"98 -437 CURVE SMOOTH",
"317 -437 OFFCURVE",
"443 -304 OFFCURVE",
"443 -69 CURVE SMOOTH",
"443 902 LINE",
"644 902 LINE",
"644 1082 LINE"
);
}
);
width = 720;
}
);
note = florin;
unicode = 0192;
},
{
glyphname = Ohorn;
lastChange = "2019-02-04 10:03:05 +0000";
layers = (
{
layerId = "BC02B84D-1250-4FEC-829E-45FBAB526404";
paths = (
{
closed = 1;
nodes = (
"1293 933 OFFCURVE",
"1263 1063 OFFCURVE",
"1205 1174 CURVE",
"1370 1221 OFFCURVE",
"1450 1363 OFFCURVE",
"1450 1582 CURVE",
"1263 1582 LINE",
"1263 1409 OFFCURVE",
"1213 1325 OFFCURVE",
"1108 1308 CURVE",
"1000 1420 OFFCURVE",
"861 1476 OFFCURVE",
"691 1476 CURVE SMOOTH",
"573 1476 OFFCURVE",
"468 1447 OFFCURVE",
"377 1390 CURVE SMOOTH",
"193 1274 OFFCURVE",
"88 1048 OFFCURVE",
"88 764 CURVE SMOOTH",
"88 682 LINE SMOOTH",
"89 543 OFFCURVE",
"114 420 OFFCURVE",
"165 313 CURVE SMOOTH",
"265 100 OFFCURVE",
"458 -20 OFFCURVE",
"693 -20 CURVE SMOOTH",
"813 -20 OFFCURVE",
"919 9 OFFCURVE",
"1011 67 CURVE SMOOTH",
"1194 182 OFFCURVE",
"1296 405 OFFCURVE",
"1296 690 CURVE SMOOTH",
"1296 784 LINE"
);
},
{
closed = 1;
nodes = (
"1043 362 OFFCURVE",
"918 188 OFFCURVE",
"693 188 CURVE SMOOTH",
"469 188 OFFCURVE",
"340 375 OFFCURVE",
"340 690 CURVE SMOOTH",
"340 774 LINE SMOOTH",
"343 1087 OFFCURVE",
"472 1266 OFFCURVE",
"691 1266 CURVE SMOOTH",
"915 1266 OFFCURVE",
"1043 1094 OFFCURVE",
"1043 766 CURVE SMOOTH",
"1043 690 LINE SMOOTH"
);
}
);
width = 1418;
}
);
leftKerningGroup = C;
note = Ohorn;
unicode = 01A0;
},
{
glyphname = ohorn;
lastChange = "2019-02-04 10:03:05 +0000";
layers = (
{
layerId = "BC02B84D-1250-4FEC-829E-45FBAB526404";
paths = (
{
closed = 1;
nodes = (
"79 196 OFFCURVE",
"279 -20 OFFCURVE",
"582 -20 CURVE SMOOTH",
"681 -20 OFFCURVE",
"770 3 OFFCURVE",
"847 49 CURVE SMOOTH",
"1001 141 OFFCURVE",
"1085 317 OFFCURVE",
"1085 530 CURVE SMOOTH",
"1085 559 LINE",
"1084 664 OFFCURVE",
"1062 759 OFFCURVE",
"1020 842 CURVE",
"1157 891 OFFCURVE",
"1211 1013 OFFCURVE",
"1211 1192 CURVE",
"1044 1192 LINE",
"1044 1040 OFFCURVE",
"1014 978 OFFCURVE",
"943 953 CURVE",
"851 1052 OFFCURVE",
"730 1102 OFFCURVE",
"580 1102 CURVE SMOOTH",
"481 1102 OFFCURVE",
"394 1079 OFFCURVE",
"318 1034 CURVE SMOOTH",
"166 942 OFFCURVE",
"79 766 OFFCURVE",
"79 551 CURVE SMOOTH",
"79 539 LINE SMOOTH"
);
},
{
closed = 1;
nodes = (
"321 781 OFFCURVE",
"421 907 OFFCURVE",
"580 907 CURVE SMOOTH",
"741 907 OFFCURVE",
"842 774 OFFCURVE",
"842 551 CURVE SMOOTH",
"842 304 OFFCURVE",
"746 174 OFFCURVE",
"582 174 CURVE SMOOTH",
"418 174 OFFCURVE",
"321 307 OFFCURVE",
"321 530 CURVE SMOOTH"
);
}
);
width = 1182;
}
);
leftKerningGroup = c;
note = ohorn;
unicode = 01A1;
},
{
glyphname = Uhorn;
lastChange = "2019-02-04 10:03:05 +0000";
layers = (
{
layerId = "BC02B84D-1250-4FEC-829E-45FBAB526404";
paths = (
{
closed = 1;
nodes = (
"961 490 LINE SMOOTH",
"961 285 OFFCURVE",
"864 182 OFFCURVE",
"669 182 CURVE SMOOTH",
"477 182 OFFCURVE",
"377 287 OFFCURVE",
"377 482 CURVE SMOOTH",
"377 1456 LINE",
"125 1456 LINE",
"125 484 LINE SMOOTH",
"125 168 OFFCURVE",
"336 -20 OFFCURVE",
"669 -20 CURVE SMOOTH",
"998 -20 OFFCURVE",
"1213 174 OFFCURVE",
"1213 483 CURVE SMOOTH",
"1213 1086 LINE",
"1476 1098 OFFCURVE",
"1597 1233 OFFCURVE",
"1597 1537 CURVE",
"1416 1537 LINE",
"1416 1322 OFFCURVE",
"1358 1249 OFFCURVE",
"1213 1236 CURVE",
"1213 1456 LINE",
"961 1456 LINE"
);
}
);
width = 1444;
}
);
note = Uhorn;
unicode = 01AF;
},
{
glyphname = uhorn;
lastChange = "2019-02-04 10:03:05 +0000";
layers = (
{
layerId = "BC02B84D-1250-4FEC-829E-45FBAB526404";
paths = (
{
closed = 1;
nodes = (
"1157 1095 LINE",
"1150 994 OFFCURVE",
"1111 955 OFFCURVE",
"1015 946 CURVE",
"1015 1082 LINE",
"772 1082 LINE",
"772 305 LINE",
"731 220 OFFCURVE",
"651 178 OFFCURVE",
"533 178 CURVE SMOOTH",
"419 178 OFFCURVE",
"362 247 OFFCURVE",
"362 384 CURVE SMOOTH",
"362 1082 LINE",
"119 1082 LINE",
"119 381 LINE SMOOTH",
"119 121 OFFCURVE",
"241 -20 OFFCURVE",
"476 -20 CURVE SMOOTH",
"607 -20 OFFCURVE",
"709 22 OFFCURVE",
"780 106 CURVE",
"786 0 LINE",
"1015 0 LINE",
"1015 817 LINE",
"1231 832 OFFCURVE",
"1320 934 OFFCURVE",
"1320 1171 CURVE",
"1159 1171 LINE"
);
}
);
width = 1266;
}
);
leftKerningGroup = u;
note = uhorn;
unicode = 01B0;
},
{
glyphname = uni0237;
lastChange = "2019-02-04 10:03:05 +0000";
layers = (
{
layerId = "BC02B84D-1250-4FEC-829E-45FBAB526404";
paths = (
{
closed = 1;
nodes = (
"161 -50 LINE SMOOTH",
"161 -178 OFFCURVE",
"120 -242 OFFCURVE",
"37 -242 CURVE SMOOTH",
"-2 -242 OFFCURVE",
"-34 -238 OFFCURVE",
"-60 -229 CURVE",
"-75 -420 LINE",
"-38 -431 OFFCURVE",
"4 -437 OFFCURVE",
"51 -437 CURVE SMOOTH",
"274 -437 OFFCURVE",
"402 -302 OFFCURVE",
"403 -65 CURVE SMOOTH",
"403 1082 LINE",
"161 1082 LINE"
);
}
);
width = 550;
}
);
note = uni0237;
unicode = 0237;
},
{
glyphname = uni0259;
lastChange = "2019-02-04 10:03:05 +0000";
layers = (
{
layerId = "BC02B84D-1250-4FEC-829E-45FBAB526404";
paths = (
{
closed = 1;
nodes = (
"357 1103 OFFCURVE",
"209 1057 OFFCURVE",
"116 974 CURVE",
"195 816 LINE",
"299 887 OFFCURVE",
"383 908 OFFCURVE",
"498 908 CURVE SMOOTH",
"657 908 OFFCURVE",
"756 792 OFFCURVE",
"771 611 CURVE",
"89 611 LINE",
"89 475 LINE SMOOTH",
"89 317 OFFCURVE",
"129 195 OFFCURVE",
"209 110 CURVE SMOOTH",
"368 -62 OFFCURVE",
"639 -43 OFFCURVE",
"784 51 CURVE SMOOTH",
"929 145 OFFCURVE",
"1016 321 OFFCURVE",
"1016 526 CURVE SMOOTH",
"1016 557 LINE SMOOTH",
"1016 885 OFFCURVE",
"816 1103 OFFCURVE",
"512 1103 CURVE SMOOTH"
);
},
{
closed = 1;
nodes = (
"409 175 OFFCURVE",
"329 260 OFFCURVE",
"329 408 CURVE SMOOTH",
"329 433 LINE",
"766 433 LINE",
"741 278 OFFCURVE",
"656 175 OFFCURVE",
"541 175 CURVE SMOOTH"
);
}
);
width = 1084;
}
);
note = uni0259;
unicode = 0259;
},
{
glyphname = circumflex;
lastChange = "2019-02-04 10:03:05 +0000";
layers = (
{
layerId = "BC02B84D-1250-4FEC-829E-45FBAB526404";
paths = (
{
closed = 1;
nodes = (
"419 1537 LINE",
"148 1261 LINE",
"148 1248 LINE",
"341 1248 LINE",
"490 1404 LINE",
"640 1248 LINE",
"835 1248 LINE",
"835 1259 LINE",
"562 1537 LINE"
);
}
);
width = 998;
}
);
note = circumflex;
unicode = 02C6;
},
{
glyphname = caron;
lastChange = "2019-02-04 10:03:05 +0000";
layers = (
{
layerId = "BC02B84D-1250-4FEC-829E-45FBAB526404";
paths = (
{
closed = 1;
nodes = (
"114 1537 LINE",
"114 1528 LINE",
"391 1248 LINE",
"541 1248 LINE",
"820 1527 LINE",
"820 1537 LINE",
"612 1537 LINE",
"466 1382 LINE",
"320 1537 LINE"
);
}
);
width = 944;
}
);
note = caron;
unicode = 02C7;
},
{
glyphname = breve;
lastChange = "2019-02-04 10:03:05 +0000";
layers = (
{
layerId = "BC02B84D-1250-4FEC-829E-45FBAB526404";
paths = (
{
closed = 1;
nodes = (
"580 1422 OFFCURVE",
"528 1371 OFFCURVE",
"440 1371 CURVE SMOOTH",
"352 1371 OFFCURVE",
"299 1422 OFFCURVE",
"299 1510 CURVE",
"117 1510 LINE",
"117 1342 OFFCURVE",
"244 1228 OFFCURVE",
"440 1228 CURVE SMOOTH",
"636 1228 OFFCURVE",
"763 1342 OFFCURVE",
"763 1510 CURVE",
"580 1510 LINE"
);
}
);
width = 892;
}
);
note = breve;
unicode = 02D8;
},
{
glyphname = dotaccent;
lastChange = "2019-02-04 10:03:05 +0000";
layers = (
{
layerId = "BC02B84D-1250-4FEC-829E-45FBAB526404";
paths = (
{
closed = 1;
nodes = (
"129 1300 OFFCURVE",
"176 1247 OFFCURVE",
"260 1247 CURVE SMOOTH",
"344 1247 OFFCURVE",
"391 1300 OFFCURVE",
"391 1369 CURVE SMOOTH",
"391 1440 OFFCURVE",
"344 1493 OFFCURVE",
"260 1493 CURVE SMOOTH",
"176 1493 OFFCURVE",
"129 1440 OFFCURVE",
"129 1369 CURVE SMOOTH"
);
}
);
width = 523;
}
);
note = dotaccent;
unicode = 02D9;
},
{
glyphname = ring;
lastChange = "2019-02-04 10:03:05 +0000";
layers = (
{
layerId = "BC02B84D-1250-4FEC-829E-45FBAB526404";
paths = (
{
closed = 1;
nodes = (
"215 1578 OFFCURVE",
"120 1483 OFFCURVE",
"120 1370 CURVE SMOOTH",
"120 1257 OFFCURVE",
"213 1165 OFFCURVE",
"342 1165 CURVE SMOOTH",
"470 1165 OFFCURVE",
"563 1257 OFFCURVE",
"563 1370 CURVE SMOOTH",
"563 1483 OFFCURVE",
"466 1578 OFFCURVE",
"342 1578 CURVE SMOOTH"
);
},
{
closed = 1;
nodes = (
"230 1431 OFFCURVE",
"277 1483 OFFCURVE",
"342 1483 CURVE SMOOTH",
"407 1483 OFFCURVE",
"454 1431 OFFCURVE",
"454 1370 CURVE SMOOTH",
"454 1306 OFFCURVE",
"405 1258 OFFCURVE",
"342 1258 CURVE SMOOTH",
"281 1258 OFFCURVE",
"230 1307 OFFCURVE",
"230 1370 CURVE SMOOTH"
);
}
);
width = 690;
}
);
note = ring;
unicode = 02DA;
},
{
glyphname = ogonek;
lastChange = "2019-02-04 10:03:05 +0000";
layers = (
{
layerId = "BC02B84D-1250-4FEC-829E-45FBAB526404";
paths = (
{
closed = 1;
nodes = (
"122 -12 OFFCURVE",
"41 -108 OFFCURVE",
"41 -229 CURVE SMOOTH",
"41 -350 OFFCURVE",
"125 -430 OFFCURVE",
"252 -430 CURVE SMOOTH",
"313 -430 OFFCURVE",
"368 -415 OFFCURVE",
"417 -386 CURVE",
"396 -244 LINE",
"365 -259 OFFCURVE",
"335 -267 OFFCURVE",
"306 -267 CURVE SMOOTH",
"259 -267 OFFCURVE",
"235 -244 OFFCURVE",
"235 -199 CURVE SMOOTH",
"235 -134 OFFCURVE",
"280 -75 OFFCURVE",
"396 0 CURVE",
"285 60 LINE"
);
}
);
width = 589;
}
);
note = ogonek;
unicode = 02DB;
},
{
glyphname = tilde;
lastChange = "2019-02-04 10:03:05 +0000";
layers = (
{
layerId = "BC02B84D-1250-4FEC-829E-45FBAB526404";
paths = (
{
closed = 1;
nodes = (
"706 1462 OFFCURVE",
"665 1421 OFFCURVE",
"614 1421 CURVE SMOOTH",
"579 1421 OFFCURVE",
"535 1436 OFFCURVE",
"482 1466 CURVE SMOOTH",
"428 1496 OFFCURVE",
"382 1511 OFFCURVE",
"344 1511 CURVE SMOOTH",
"217 1511 OFFCURVE",
"122 1398 OFFCURVE",
"122 1251 CURVE",
"271 1243 LINE",
"271 1304 OFFCURVE",
"311 1346 OFFCURVE",
"362 1346 CURVE SMOOTH",
"397 1346 OFFCURVE",
"414 1344 OFFCURVE",
"484 1304 CURVE SMOOTH",
"554 1264 OFFCURVE",
"580 1257 OFFCURVE",
"632 1257 CURVE SMOOTH",
"760 1257 OFFCURVE",
"855 1366 OFFCURVE",
"855 1513 CURVE",
"706 1525 LINE"
);
}
);
width = 984;
}
);
note = tilde;
unicode = 02DC;
},
{
glyphname = hungarumlaut;
lastChange = "2019-02-04 10:03:05 +0000";
layers = (
{
layerId = "BC02B84D-1250-4FEC-829E-45FBAB526404";
paths = (
{
closed = 1;
nodes = (
"588 1233 LINE",
"854 1535 LINE",
"616 1535 LINE",
"391 1233 LINE"
);
},
{
closed = 1;
nodes = (
"258 1233 LINE",
"480 1535 LINE",
"247 1535 LINE",
"73 1233 LINE"
);
}
);
width = 799;
}
);
note = hungarumlaut;
unicode = 02DD;
},
{
glyphname = uni02F3;
lastChange = "2019-02-04 10:03:05 +0000";
layers = (
{
layerId = "BC02B84D-1250-4FEC-829E-45FBAB526404";
paths = (
{
closed = 1;
nodes = (
"130 -334 OFFCURVE",
"209 -406 OFFCURVE",
"313 -406 CURVE SMOOTH",
"410 -406 OFFCURVE",
"492 -337 OFFCURVE",
"492 -238 CURVE SMOOTH",
"492 -138 OFFCURVE",
"410 -66 OFFCURVE",
"313 -66 CURVE SMOOTH",
"209 -66 OFFCURVE",
"130 -141 OFFCURVE",
"130 -238 CURVE SMOOTH"
);
},
{
closed = 1;
nodes = (
"231 -190 OFFCURVE",
"268 -154 OFFCURVE",
"313 -154 CURVE SMOOTH",
"357 -154 OFFCURVE",
"391 -190 OFFCURVE",
"391 -238 CURVE SMOOTH",
"391 -283 OFFCURVE",
"357 -317 OFFCURVE",
"313 -317 CURVE SMOOTH",
"268 -317 OFFCURVE",
"231 -282 OFFCURVE",
"231 -238 CURVE SMOOTH"
);
}
);
width = 620;
}
);
note = uni02F3;
unicode = 02F3;
},
{
glyphname = gravecomb;
lastChange = "2019-02-04 10:03:05 +0000";
layers = (
{
layerId = "BC02B84D-1250-4FEC-829E-45FBAB526404";
paths = (
{
closed = 1;
nodes = (
"-882 1536 LINE",
"-612 1233 LINE",
"-410 1233 LINE",
"-605 1536 LINE"
);
}
);
width = 0;
}
);
note = gravecomb;
unicode = 0300;
},
{
glyphname = acutecomb;
lastChange = "2019-02-04 10:03:05 +0000";
layers = (
{
layerId = "BC02B84D-1250-4FEC-829E-45FBAB526404";
paths = (
{
closed = 1;
nodes = (
"-479 1233 LINE",
"-202 1536 LINE",
"-479 1536 LINE",
"-674 1233 LINE"
);
}
);
width = 0;
}
);
note = acutecomb;
unicode = 0301;
},
{
glyphname = tildecomb;
lastChange = "2019-02-04 10:03:05 +0000";
layers = (
{
layerId = "BC02B84D-1250-4FEC-829E-45FBAB526404";
paths = (
{
closed = 1;
nodes = (
"-325 1462 OFFCURVE",
"-366 1421 OFFCURVE",
"-417 1421 CURVE SMOOTH",
"-452 1421 OFFCURVE",
"-496 1436 OFFCURVE",
"-549 1466 CURVE SMOOTH",
"-603 1496 OFFCURVE",
"-649 1511 OFFCURVE",
"-687 1511 CURVE SMOOTH",
"-814 1511 OFFCURVE",
"-909 1398 OFFCURVE",
"-909 1251 CURVE",
"-760 1243 LINE",
"-760 1304 OFFCURVE",
"-720 1346 OFFCURVE",
"-669 1346 CURVE SMOOTH",
"-634 1346 OFFCURVE",
"-617 1344 OFFCURVE",
"-547 1304 CURVE SMOOTH",
"-477 1264 OFFCURVE",
"-451 1257 OFFCURVE",
"-399 1257 CURVE SMOOTH",
"-271 1257 OFFCURVE",
"-176 1366 OFFCURVE",
"-176 1513 CURVE",
"-325 1525 LINE"
);
}
);
width = 0;
}
);
note = tildecomb;
unicode = 0303;
},
{
glyphname = hookabovecomb;
lastChange = "2019-02-04 10:03:05 +0000";
layers = (
{
layerId = "BC02B84D-1250-4FEC-829E-45FBAB526404";
paths = (
{
closed = 1;
nodes = (
"-509 1323 LINE",
"-413 1336 OFFCURVE",
"-359 1391 OFFCURVE",
"-359 1471 CURVE SMOOTH",
"-359 1588 OFFCURVE",
"-474 1663 OFFCURVE",
"-699 1663 CURVE",
"-706 1540 LINE",
"-606 1540 OFFCURVE",
"-556 1516 OFFCURVE",
"-556 1468 CURVE SMOOTH",
"-556 1445 OFFCURVE",
"-567 1428 OFFCURVE",
"-588 1419 CURVE SMOOTH",
"-610 1410 OFFCURVE",
"-645 1403 OFFCURVE",
"-694 1400 CURVE",
"-687 1254 LINE",
"-509 1254 LINE"
);
}
);
width = 0;
}
);
note = hookabovecomb;
unicode = 0309;
},
{
glyphname = uni030F;
lastChange = "2019-02-04 10:03:05 +0000";
layers = (
{
layerId = "BC02B84D-1250-4FEC-829E-45FBAB526404";
paths = (
{
closed = 1;
nodes = (
"-1012 1518 LINE",
"-713 1252 LINE",
"-505 1252 LINE",
"-750 1518 LINE"
);
},
{
closed = 1;
nodes = (
"-644 1518 LINE",
"-399 1252 LINE",
"-204 1252 LINE",
"-394 1518 LINE"
);
}
);
width = 0;
}
);
note = uni030F;
unicode = 030F;
},
{
glyphname = dotbelowcomb;
lastChange = "2019-02-04 10:03:05 +0000";
layers = (
{
layerId = "BC02B84D-1250-4FEC-829E-45FBAB526404";
paths = (
{
closed = 1;
nodes = (
"-740 -312 OFFCURVE",
"-691 -364 OFFCURVE",
"-603 -364 CURVE SMOOTH",
"-515 -364 OFFCURVE",
"-465 -312 OFFCURVE",
"-465 -241 CURVE SMOOTH",
"-465 -170 OFFCURVE",
"-515 -117 OFFCURVE",
"-603 -117 CURVE SMOOTH",
"-691 -117 OFFCURVE",
"-740 -170 OFFCURVE",
"-740 -241 CURVE SMOOTH"
);
}
);
width = 0;
}
);
note = dotbelowcomb;
unicode = 0323;
},
{
glyphname = tonos;
lastChange = "2019-02-04 10:03:05 +0000";
layers = (
{
layerId = "BC02B84D-1250-4FEC-829E-45FBAB526404";
paths = (
{
closed = 1;
nodes = (
"342 1257 LINE",
"482 1601 LINE",
"259 1601 LINE",
"198 1257 LINE"
);
}
);
width = 605;
}
);
note = tonos;
unicode = 0384;
},
{
glyphname = dieresistonos;
lastChange = "2019-02-04 10:03:05 +0000";
layers = (
{
layerId = "BC02B84D-1250-4FEC-829E-45FBAB526404";
paths = (
{
closed = 1;
nodes = (
"593 1413 LINE",
"723 1711 LINE",
"494 1711 LINE",
"447 1413 LINE"
);
},
{
closed = 1;
nodes = (
"103 1299 OFFCURVE",
"151 1248 OFFCURVE",
"230 1248 CURVE SMOOTH",
"309 1248 OFFCURVE",
"356 1299 OFFCURVE",
"356 1366 CURVE SMOOTH",
"356 1433 OFFCURVE",
"309 1484 OFFCURVE",
"230 1484 CURVE SMOOTH",
"151 1484 OFFCURVE",
"103 1433 OFFCURVE",
"103 1366 CURVE SMOOTH"
);
},
{
closed = 1;
nodes = (
"701 1298 OFFCURVE",
"748 1247 OFFCURVE",
"827 1247 CURVE SMOOTH",
"906 1247 OFFCURVE",
"954 1298 OFFCURVE",
"954 1365 CURVE SMOOTH",
"954 1432 OFFCURVE",
"906 1483 OFFCURVE",
"827 1483 CURVE SMOOTH",
"748 1483 OFFCURVE",
"701 1432 OFFCURVE",
"701 1365 CURVE SMOOTH"
);
}
);
width = 1084;
}
);
note = dieresistonos;
unicode = 0385;
},
{
glyphname = anoteleia;
lastChange = "2019-02-04 10:03:05 +0000";
layers = (
{
layerId = "BC02B84D-1250-4FEC-829E-45FBAB526404";
paths = (
{
closed = 1;
nodes = (
"142 635 OFFCURVE",
"196 581 OFFCURVE",
"283 581 CURVE SMOOTH",
"368 581 OFFCURVE",
"425 635 OFFCURVE",
"425 714 CURVE SMOOTH",
"425 791 OFFCURVE",
"372 850 OFFCURVE",
"283 850 CURVE SMOOTH",
"194 850 OFFCURVE",
"142 791 OFFCURVE",
"142 714 CURVE SMOOTH"
);
}
);
width = 578;
}
);
note = anoteleia;
unicode = 0387;
},
{
glyphname = Gamma;
lastChange = "2019-02-04 10:03:05 +0000";
layers = (
{
layerId = "BC02B84D-1250-4FEC-829E-45FBAB526404";
paths = (
{
closed = 1;
nodes = (
"155 1456 LINE",
"155 0 LINE",
"407 0 LINE",
"407 1252 LINE",
"1079 1252 LINE",
"1079 1456 LINE"
);
}
);
width = 1141;
}
);
note = Gamma;
rightKerningGroup = Gamma;
unicode = 0393;
},
{
glyphname = Delta;
lastChange = "2019-02-04 10:03:05 +0000";
layers = (
{
layerId = "BC02B84D-1250-4FEC-829E-45FBAB526404";
paths = (
{
closed = 1;
nodes = (
"1440 0 LINE",
"866 1456 LINE",
"623 1456 LINE",
"25 0 LINE"
);
},
{
closed = 1;
nodes = (
"1102 202 LINE",
"366 202 LINE",
"742 1157 LINE"
);
}
);
width = 1471;
}
);
leftKerningGroup = A;
note = Delta;
rightKerningGroup = A;
unicode = 0394;
},
{
glyphname = Theta;
lastChange = "2019-02-04 10:03:05 +0000";
layers = (
{
layerId = "BC02B84D-1250-4FEC-829E-45FBAB526404";
paths = (
{
closed = 1;
nodes = (
"483 827 LINE",
"483 633 LINE",
"931 633 LINE",
"931 827 LINE"
);
},
{
closed = 1;
nodes = (
"1298 913 OFFCURVE",
"1273 1038 OFFCURVE",
"1223 1145 CURVE SMOOTH",
"1123 1359 OFFCURVE",
"932 1476 OFFCURVE",
"695 1476 CURVE SMOOTH",
"576 1476 OFFCURVE",
"471 1447 OFFCURVE",
"379 1389 CURVE SMOOTH",
"195 1272 OFFCURVE",
"91 1048 OFFCURVE",
"91 764 CURVE SMOOTH",
"91 671 LINE SMOOTH",
"93 534 OFFCURVE",
"120 413 OFFCURVE",
"171 308 CURVE SMOOTH",
"273 97 OFFCURVE",
"462 -20 OFFCURVE",
"697 -20 CURVE SMOOTH",
"816 -20 OFFCURVE",
"922 9 OFFCURVE",
"1014 67 CURVE SMOOTH",
"1197 182 OFFCURVE",
"1299 405 OFFCURVE",
"1299 690 CURVE SMOOTH",
"1299 771 LINE"
);
},
{
closed = 1;
nodes = (
"1047 362 OFFCURVE",
"922 188 OFFCURVE",
"697 188 CURVE SMOOTH",
"476 188 OFFCURVE",
"344 370 OFFCURVE",
"344 690 CURVE SMOOTH",
"344 774 LINE SMOOTH",
"347 1087 OFFCURVE",
"476 1266 OFFCURVE",
"695 1266 CURVE SMOOTH",
"920 1266 OFFCURVE",
"1047 1085 OFFCURVE",
"1047 766 CURVE SMOOTH",
"1047 690 LINE SMOOTH"
);
}
);
width = 1402;
}
);
leftKerningGroup = C;
note = Theta;
rightKerningGroup = D;
unicode = 0398;
},
{
glyphname = Lambda;
lastChange = "2019-02-04 10:03:05 +0000";
layers = (
{
layerId = "BC02B84D-1250-4FEC-829E-45FBAB526404";
paths = (
{
closed = 1;
nodes = (
"1298 0 LINE",
"787 1456 LINE",
"542 1456 LINE",
"32 0 LINE",
"303 0 LINE",
"664 1092 LINE",
"1026 0 LINE"
);
}
);
width = 1336;
}
);
leftKerningGroup = A;
note = Lambda;
rightKerningGroup = A;
unicode = 039B;
},
{
glyphname = Xi;
lastChange = "2019-02-04 10:03:05 +0000";
layers = (
{
layerId = "BC02B84D-1250-4FEC-829E-45FBAB526404";
paths = (
{
closed = 1;
nodes = (
"1070 0 LINE",
"1070 202 LINE",
"108 202 LINE",
"108 0 LINE"
);
},
{
closed = 1;
nodes = (
"966 647 LINE",
"966 845 LINE",
"208 845 LINE",
"208 647 LINE"
);
},
{
closed = 1;
nodes = (
"1042 1252 LINE",
"1042 1456 LINE",
"121 1456 LINE",
"121 1252 LINE"
);
}
);
width = 1168;
}
);
note = Xi;
unicode = 039E;
},
{
glyphname = Pi;
lastChange = "2019-02-04 10:03:05 +0000";
layers = (
{
layerId = "BC02B84D-1250-4FEC-829E-45FBAB526404";
paths = (
{
closed = 1;
nodes = (
"155 1456 LINE",
"155 0 LINE",
"407 0 LINE",
"407 1252 LINE",
"1048 1252 LINE",
"1048 0 LINE",
"1300 0 LINE",
"1300 1456 LINE"
);
}
);
width = 1457;
}
);
note = Pi;
unicode = 03A0;
},
{
glyphname = Sigma;
lastChange = "2019-02-04 10:03:05 +0000";
layers = (
{
layerId = "BC02B84D-1250-4FEC-829E-45FBAB526404";
paths = (
{
closed = 1;
nodes = (
"404 1252 LINE",
"1065 1252 LINE",
"1065 1456 LINE",
"71 1456 LINE",
"71 1304 LINE",
"528 729 LINE",
"71 151 LINE",
"71 0 LINE",
"1101 0 LINE",
"1101 202 LINE",
"401 202 LINE",
"796 720 LINE",
"796 739 LINE"
);
}
);
width = 1168;
}
);
note = Sigma;
unicode = 03A3;
},
{
glyphname = Phi;
lastChange = "2019-02-04 10:03:05 +0000";
layers = (
{
layerId = "BC02B84D-1250-4FEC-829E-45FBAB526404";
paths = (
{
closed = 1;
nodes = (
"639 1456 LINE",
"639 1278 LINE",
"529 1275 OFFCURVE",
"431 1251 OFFCURVE",
"345 1204 CURVE SMOOTH",
"173 1110 OFFCURVE",
"74 932 OFFCURVE",
"74 719 CURVE SMOOTH",
"74 613 OFFCURVE",
"97 519 OFFCURVE",
"144 437 CURVE SMOOTH",
"236 272 OFFCURVE",
"415 174 OFFCURVE",
"639 169 CURVE",
"639 0 LINE",
"892 0 LINE",
"892 169 LINE",
"1001 172 OFFCURVE",
"1099 198 OFFCURVE",
"1185 245 CURVE SMOOTH",
"1357 339 OFFCURVE",
"1454 509 OFFCURVE",
"1454 721 CURVE SMOOTH",
"1454 827 OFFCURVE",
"1431 922 OFFCURVE",
"1385 1006 CURVE SMOOTH",
"1292 1173 OFFCURVE",
"1109 1273 OFFCURVE",
"892 1278 CURVE",
"892 1456 LINE"
);
},
{
closed = 1;
nodes = (
"322 934 OFFCURVE",
"432 1060 OFFCURVE",
"639 1067 CURVE",
"639 381 LINE",
"430 389 OFFCURVE",
"322 511 OFFCURVE",
"322 719 CURVE SMOOTH"
);
},
{
closed = 1;
nodes = (
"1206 513 OFFCURVE",
"1100 390 OFFCURVE",
"892 381 CURVE",
"892 1066 LINE",
"1096 1058 OFFCURVE",
"1206 932 OFFCURVE",
"1206 721 CURVE SMOOTH"
);
}
);
width = 1519;
}
);
note = Phi;
unicode = 03A6;
},
{
glyphname = Psi;
lastChange = "2019-02-04 10:03:05 +0000";
layers = (
{
layerId = "BC02B84D-1250-4FEC-829E-45FBAB526404";
paths = (
{
closed = 1;
nodes = (
"592 1456 LINE",
"592 580 LINE",
"421 612 OFFCURVE",
"321 746 OFFCURVE",
"320 955 CURVE",
"320 1456 LINE",
"68 1456 LINE",
"68 945 LINE SMOOTH",
"73 618 OFFCURVE",
"272 404 OFFCURVE",
"592 373 CURVE",
"592 0 LINE",
"844 0 LINE",
"844 374 LINE",
"1172 407 OFFCURVE",
"1368 622 OFFCURVE",
"1372 950 CURVE SMOOTH",
"1372 1456 LINE",
"1119 1456 LINE",
"1119 959 LINE SMOOTH",
"1119 736 OFFCURVE",
"1019 610 OFFCURVE",
"844 579 CURVE",
"844 1456 LINE"
);
}
);
width = 1450;
}
);
note = Psi;
unicode = 03A8;
},
{
glyphname = Omega;
lastChange = "2019-02-04 10:03:05 +0000";
layers = (
{
layerId = "BC02B84D-1250-4FEC-829E-45FBAB526404";
paths = (
{
closed = 1;
nodes = (
"1231 0 LINE",
"1231 203 LINE",
"1019 203 LINE",
"1162 340 OFFCURVE",
"1245 548 OFFCURVE",
"1245 749 CURVE SMOOTH",
"1245 850 LINE SMOOTH",
"1245 971 OFFCURVE",
"1221 1079 OFFCURVE",
"1173 1174 CURVE SMOOTH",
"1077 1365 OFFCURVE",
"894 1475 OFFCURVE",
"674 1475 CURVE SMOOTH",
"565 1475 OFFCURVE",
"467 1449 OFFCURVE",
"380 1396 CURVE SMOOTH",
"206 1290 OFFCURVE",
"107 1092 OFFCURVE",
"107 849 CURVE SMOOTH",
"107 751 LINE SMOOTH",
"107 540 OFFCURVE",
"191 340 OFFCURVE",
"334 203 CURVE",
"118 203 LINE",
"118 0 LINE",
"623 0 LINE",
"623 207 LINE",
"464 247 OFFCURVE",
"377 436 OFFCURVE",
"377 749 CURVE SMOOTH",
"377 849 LINE SMOOTH",
"377 1122 OFFCURVE",
"485 1271 OFFCURVE",
"674 1271 CURVE SMOOTH",
"866 1271 OFFCURVE",
"975 1120 OFFCURVE",
"975 851 CURVE SMOOTH",
"975 742 LINE SMOOTH",
"974 434 OFFCURVE",
"890 250 OFFCURVE",
"735 207 CURVE",
"735 0 LINE"
);
}
);
width = 1371;
}
);
note = Omega;
unicode = 03A9;
},
{
glyphname = alpha;
lastChange = "2019-02-04 10:03:05 +0000";
layers = (
{
layerId = "BC02B84D-1250-4FEC-829E-45FBAB526404";
paths = (
{
closed = 1;
nodes = (
"794 951 LINE",
"725 1052 OFFCURVE",
"631 1102 OFFCURVE",
"510 1102 CURVE SMOOTH",
"249 1102 OFFCURVE",
"86 881 OFFCURVE",
"86 526 CURVE SMOOTH",
"86 513 LINE SMOOTH",
"86 182 OFFCURVE",
"248 -20 OFFCURVE",
"508 -20 CURVE SMOOTH",
"637 -20 OFFCURVE",
"735 34 OFFCURVE",
"803 142 CURVE",
"838 33 OFFCURVE",
"910 -21 OFFCURVE",
"1018 -21 CURVE SMOOTH",
"1069 -21 OFFCURVE",
"1111 -11 OFFCURVE",
"1145 9 CURVE",
"1121 189 LINE",
"1114 186 OFFCURVE",
"1105 185 OFFCURVE",
"1094 185 CURVE SMOOTH",
"1047 185 OFFCURVE",
"1023 226 OFFCURVE",
"1021 308 CURVE",
"1021 1082 LINE",
"813 1082 LINE"
);
},
{
closed = 1;
nodes = (
"329 778 OFFCURVE",
"418 907 OFFCURVE",
"571 907 CURVE SMOOTH",
"663 907 OFFCURVE",
"732 860 OFFCURVE",
"779 765 CURVE",
"779 310 LINE",
"732 219 OFFCURVE",
"662 174 OFFCURVE",
"569 174 CURVE SMOOTH",
"412 174 OFFCURVE",
"329 294 OFFCURVE",
"329 505 CURVE SMOOTH"
);
}
);
width = 1156;
}
);
leftKerningGroup = c;
note = alpha;
unicode = 03B1;
},
{
glyphname = beta;
lastChange = "2019-02-04 10:03:05 +0000";
layers = (
{
layerId = "BC02B84D-1250-4FEC-829E-45FBAB526404";
paths = (
{
closed = 1;
nodes = (
"533 1476 OFFCURVE",
"455 1457 OFFCURVE",
"383 1420 CURVE SMOOTH",
"238 1345 OFFCURVE",
"150 1209 OFFCURVE",
"150 1056 CURVE SMOOTH",
"150 -393 LINE",
"392 -393 LINE",
"392 63 LINE",
"473 8 OFFCURVE",
"569 -20 OFFCURVE",
"679 -20 CURVE SMOOTH",
"958 -20 OFFCURVE",
"1130 148 OFFCURVE",
"1130 421 CURVE SMOOTH",
"1130 594 OFFCURVE",
"1040 725 OFFCURVE",
"879 784 CURVE",
"996 848 OFFCURVE",
"1066 955 OFFCURVE",
"1066 1082 CURVE SMOOTH",
"1066 1319 OFFCURVE",
"893 1476 OFFCURVE",
"617 1476 CURVE SMOOTH"
);
},
{
closed = 1;
nodes = (
"823 932 OFFCURVE",
"752 861 OFFCURVE",
"611 861 CURVE SMOOTH",
"539 861 LINE",
"539 676 LINE",
"662 676 LINE SMOOTH",
"799 675 OFFCURVE",
"887 566 OFFCURVE",
"887 421 CURVE SMOOTH",
"887 274 OFFCURVE",
"788 174 OFFCURVE",
"637 174 CURVE SMOOTH",
"532 174 OFFCURVE",
"451 201 OFFCURVE",
"392 256 CURVE",
"392 1051 LINE SMOOTH",
"392 1190 OFFCURVE",
"489 1281 OFFCURVE",
"617 1281 CURVE SMOOTH",
"741 1281 OFFCURVE",
"823 1193 OFFCURVE",
"823 1073 CURVE SMOOTH"
);
}
);
width = 1222;
}
);
note = beta;
unicode = 03B2;
},
{
glyphname = gamma;
lastChange = "2019-02-04 10:03:05 +0000";
layers = (
{
layerId = "BC02B84D-1250-4FEC-829E-45FBAB526404";
paths = (
{
closed = 1;
nodes = (
"32 1082 LINE",
"401 47 LINE",
"401 -417 LINE",
"644 -417 LINE",
"644 42 LINE",
"1013 1082 LINE",
"762 1082 LINE",
"526 315 LINE",
"283 1082 LINE"
);
}
);
width = 1038;
}
);
leftKerningGroup = v;
note = gamma;
rightKerningGroup = v;
unicode = 03B3;
},
{
glyphname = delta;
lastChange = "2019-02-04 10:03:05 +0000";
layers = (
{
layerId = "BC02B84D-1250-4FEC-829E-45FBAB526404";
paths = (
{
closed = 1;
nodes = (
"208 1135 OFFCURVE",
"282 1042 OFFCURVE",
"403 989 CURVE",
"405 984 LINE",
"222 939 OFFCURVE",
"84 750 OFFCURVE",
"84 530 CURVE SMOOTH",
"84 185 OFFCURVE",
"283 -20 OFFCURVE",
"584 -20 CURVE SMOOTH",
"683 -20 OFFCURVE",
"771 3 OFFCURVE",
"846 48 CURVE SMOOTH",
"996 138 OFFCURVE",
"1080 309 OFFCURVE",
"1080 516 CURVE SMOOTH",
"1080 544 LINE",
"1077 816 OFFCURVE",
"931 1000 OFFCURVE",
"632 1105 CURVE SMOOTH",
"507 1149 OFFCURVE",
"444 1202 OFFCURVE",
"444 1264 CURVE SMOOTH",
"444 1333 OFFCURVE",
"508 1377 OFFCURVE",
"612 1377 CURVE SMOOTH",
"682 1377 OFFCURVE",
"767 1359 OFFCURVE",
"868 1324 CURVE",
"868 1519 LINE",
"763 1555 OFFCURVE",
"700 1568 OFFCURVE",
"603 1568 CURVE SMOOTH",
"359 1568 OFFCURVE",
"208 1451 OFFCURVE",
"208 1258 CURVE SMOOTH"
);
},
{
closed = 1;
nodes = (
"326 758 OFFCURVE",
"423 889 OFFCURVE",
"584 889 CURVE",
"729 858 OFFCURVE",
"838 703 OFFCURVE",
"838 543 CURVE SMOOTH",
"838 300 OFFCURVE",
"743 173 OFFCURVE",
"584 173 CURVE SMOOTH",
"423 173 OFFCURVE",
"326 307 OFFCURVE",
"326 523 CURVE SMOOTH"
);
}
);
width = 1160;
}
);
note = delta;
unicode = 03B4;
},
{
glyphname = epsilon;
lastChange = "2019-02-04 10:03:05 +0000";
layers = (
{
layerId = "BC02B84D-1250-4FEC-829E-45FBAB526404";
paths = (
{
closed = 1;
nodes = (
"96 109 OFFCURVE",
"289 -20 OFFCURVE",
"573 -20 CURVE SMOOTH",
"844 -20 OFFCURVE",
"1036 114 OFFCURVE",
"1036 321 CURVE",
"794 321 LINE",
"794 233 OFFCURVE",
"697 166 OFFCURVE",
"566 166 CURVE SMOOTH",
"430 166 OFFCURVE",
"339 232 OFFCURVE",
"339 316 CURVE SMOOTH",
"339 414 OFFCURVE",
"409 464 OFFCURVE",
"549 466 CURVE SMOOTH",
"758 466 LINE",
"758 639 LINE",
"559 639 LINE SMOOTH",
"419 639 OFFCURVE",
"358 694 OFFCURVE",
"358 774 CURVE SMOOTH",
"358 858 OFFCURVE",
"441 914 OFFCURVE",
"566 914 CURVE SMOOTH",
"685 914 OFFCURVE",
"777 855 OFFCURVE",
"777 775 CURVE",
"1019 775 LINE",
"1019 968 OFFCURVE",
"828 1101 OFFCURVE",
"573 1101 CURVE SMOOTH",
"293 1101 OFFCURVE",
"115 986 OFFCURVE",
"115 786 CURVE SMOOTH",
"115 690 OFFCURVE",
"183 605 OFFCURVE",
"299 557 CURVE",
"168 514 OFFCURVE",
"96 429 OFFCURVE",
"96 306 CURVE SMOOTH"
);
}
);
width = 1120;
}
);
note = epsilon;
unicode = 03B5;
},
{
glyphname = zeta;
lastChange = "2019-02-04 10:03:05 +0000";
layers = (
{
layerId = "BC02B84D-1250-4FEC-829E-45FBAB526404";
paths = (
{
closed = 1;
nodes = (
"97 1261 LINE",
"669 1261 LINE",
"449 1008 LINE SMOOTH",
"254 783 OFFCURVE",
"156 575 OFFCURVE",
"156 383 CURVE SMOOTH",
"156 198 OFFCURVE",
"222 76 OFFCURVE",
"483 9 CURVE SMOOTH",
"587 -18 LINE",
"660 -40 OFFCURVE",
"696 -71 OFFCURVE",
"695 -112 CURVE SMOOTH",
"695 -159 OFFCURVE",
"664 -216 OFFCURVE",
"602 -285 CURVE",
"727 -386 LINE",
"836 -303 OFFCURVE",
"931 -162 OFFCURVE",
"931 -67 CURVE SMOOTH",
"931 41 OFFCURVE",
"884 102 OFFCURVE",
"755 143 CURVE SMOOTH",
"534 209 LINE SMOOTH",
"434 241 OFFCURVE",
"398 295 OFFCURVE",
"398 407 CURVE SMOOTH",
"398 550 OFFCURVE",
"439 664 OFFCURVE",
"554 809 CURVE SMOOTH",
"970 1311 LINE",
"970 1456 LINE",
"97 1456 LINE"
);
}
);
width = 1050;
}
);
note = zeta;
unicode = 03B6;
},
{
glyphname = eta;
lastChange = "2019-02-04 10:03:05 +0000";
layers = (
{
layerId = "BC02B84D-1250-4FEC-829E-45FBAB526404";
paths = (
{
closed = 1;
nodes = (
"126 0 LINE",
"369 0 LINE",
"369 785 LINE",
"416 866 OFFCURVE",
"489 907 OFFCURVE",
"589 907 CURVE SMOOTH",
"728 907 OFFCURVE",
"787 839 OFFCURVE",
"787 692 CURVE SMOOTH",
"787 -415 LINE",
"1030 -415 LINE",
"1030 709 LINE",
"1026 972 OFFCURVE",
"915 1102 OFFCURVE",
"672 1102 CURVE SMOOTH",
"543 1102 OFFCURVE",
"439 1052 OFFCURVE",
"360 951 CURVE",
"348 1082 LINE",
"126 1082 LINE"
);
}
);
width = 1160;
}
);
leftKerningGroup = m;
note = eta;
rightKerningGroup = h;
unicode = 03B7;
},
{
glyphname = theta;
lastChange = "2019-02-04 10:03:05 +0000";
layers = (
{
layerId = "BC02B84D-1250-4FEC-829E-45FBAB526404";
paths = (
{
closed = 1;
nodes = (
"1061 1260 OFFCURVE",
"892 1476 OFFCURVE",
"591 1476 CURVE SMOOTH",
"284 1476 OFFCURVE",
"115 1247 OFFCURVE",
"115 835 CURVE SMOOTH",
"115 602 LINE SMOOTH",
"122 201 OFFCURVE",
"296 -20 OFFCURVE",
"593 -20 CURVE SMOOTH",
"896 -20 OFFCURVE",
"1068 205 OFFCURVE",
"1068 626 CURVE SMOOTH",
"1068 859 LINE"
);
},
{
closed = 1;
nodes = (
"358 1147 OFFCURVE",
"443 1281 OFFCURVE",
"591 1281 CURVE SMOOTH",
"742 1281 OFFCURVE",
"826 1147 OFFCURVE",
"826 872 CURVE SMOOTH",
"826 824 LINE",
"358 824 LINE",
"358 872 LINE SMOOTH"
);
},
{
closed = 1;
nodes = (
"823 309 OFFCURVE",
"742 174 OFFCURVE",
"593 174 CURVE SMOOTH",
"444 174 OFFCURVE",
"358 314 OFFCURVE",
"358 591 CURVE SMOOTH",
"358 633 LINE",
"826 633 LINE",
"826 578 LINE SMOOTH"
);
}
);
width = 1185;
}
);
note = theta;
unicode = 03B8;
},
{
glyphname = iota;
lastChange = "2019-02-04 10:03:05 +0000";
layers = (
{
layerId = "BC02B84D-1250-4FEC-829E-45FBAB526404";
paths = (
{
closed = 1;
nodes = (
"169 297 LINE SMOOTH",
"169 91 OFFCURVE",
"262 -12 OFFCURVE",
"449 -12 CURVE SMOOTH",
"506 -12 OFFCURVE",
"560 -4 OFFCURVE",
"609 11 CURVE",
"609 199 LINE",
"580 192 OFFCURVE",
"552 189 OFFCURVE",
"524 189 CURVE SMOOTH",
"441 189 OFFCURVE",
"412 223 OFFCURVE",
"412 304 CURVE SMOOTH",
"412 1082 LINE",
"169 1082 LINE"
);
}
);
width = 682;
}
);
note = iota;
unicode = 03B9;
},
{
glyphname = lambda;
lastChange = "2019-02-04 10:03:05 +0000";
layers = (
{
layerId = "BC02B84D-1250-4FEC-829E-45FBAB526404";
paths = (
{
closed = 1;
nodes = (
"227 1531 OFFCURVE",
"184 1526 OFFCURVE",
"145 1515 CURVE",
"148 1333 LINE",
"175 1335 LINE",
"209 1335 LINE",
"258 1333 OFFCURVE",
"293 1307 OFFCURVE",
"316 1257 CURVE",
"407 1039 LINE",
"22 0 LINE",
"287 0 LINE",
"533 713 LINE",
"735 181 LINE SMOOTH",
"792 33 OFFCURVE",
"859 -18 OFFCURVE",
"1004 -18 CURVE SMOOTH",
"1039 -18 OFFCURVE",
"1070 -15 OFFCURVE",
"1098 -8 CURVE",
"1094 184 LINE",
"1077 183 LINE",
"1045 184 LINE",
"1012 189 OFFCURVE",
"984 220 OFFCURVE",
"960 277 CURVE SMOOTH",
"533 1366 LINE SMOOTH",
"492 1473 OFFCURVE",
"418 1531 OFFCURVE",
"274 1531 CURVE SMOOTH"
);
}
);
width = 1130;
}
);
note = lambda;
unicode = 03BB;
},
{
glyphname = xi;
lastChange = "2019-02-04 10:03:05 +0000";
layers = (
{
layerId = "BC02B84D-1250-4FEC-829E-45FBAB526404";
paths = (
{
closed = 1;
nodes = (
"853 1461 OFFCURVE",
"760 1476 OFFCURVE",
"658 1476 CURVE SMOOTH",
"355 1476 OFFCURVE",
"173 1334 OFFCURVE",
"173 1113 CURVE SMOOTH",
"173 984 OFFCURVE",
"260 887 OFFCURVE",
"407 834 CURVE",
"215 774 OFFCURVE",
"100 641 OFFCURVE",
"100 448 CURVE SMOOTH",
"100 349 OFFCURVE",
"120 270 OFFCURVE",
"159 209 CURVE SMOOTH",
"238 87 OFFCURVE",
"378 43 OFFCURVE",
"551 -2 CURVE SMOOTH",
"637 -25 OFFCURVE",
"691 -43 OFFCURVE",
"712 -58 CURVE SMOOTH",
"733 -73 OFFCURVE",
"743 -93 OFFCURVE",
"743 -116 CURVE SMOOTH",
"743 -171 OFFCURVE",
"715 -218 OFFCURVE",
"644 -294 CURVE",
"775 -394 LINE",
"882 -315 OFFCURVE",
"977 -172 OFFCURVE",
"980 -76 CURVE SMOOTH",
"980 -3 OFFCURVE",
"953 52 OFFCURVE",
"899 89 CURVE SMOOTH",
"876 105 OFFCURVE",
"846 119 OFFCURVE",
"809 132 CURVE SMOOTH",
"772 144 OFFCURVE",
"706 161 OFFCURVE",
"613 183 CURVE SMOOTH",
"425 227 OFFCURVE",
"343 319 OFFCURVE",
"343 450 CURVE SMOOTH",
"343 640 OFFCURVE",
"461 735 OFFCURVE",
"697 735 CURVE SMOOTH",
"837 735 LINE",
"837 933 LINE",
"700 933 LINE SMOOTH",
"511 933 OFFCURVE",
"416 994 OFFCURVE",
"416 1117 CURVE SMOOTH",
"416 1217 OFFCURVE",
"511 1278 OFFCURVE",
"674 1278 CURVE SMOOTH",
"732 1278 OFFCURVE",
"807 1266 OFFCURVE",
"899 1242 CURVE",
"936 1432 LINE"
);
}
);
width = 1043;
}
);
note = xi;
unicode = 03BE;
},
{
glyphname = pi;
lastChange = "2019-02-04 10:03:05 +0000";
layers = (
{
layerId = "BC02B84D-1250-4FEC-829E-45FBAB526404";
paths = (
{
closed = 1;
nodes = (
"45 1082 LINE",
"45 892 LINE",
"216 892 LINE",
"216 0 LINE",
"459 0 LINE",
"459 892 LINE",
"791 892 LINE",
"791 297 LINE SMOOTH",
"791 91 OFFCURVE",
"884 -12 OFFCURVE",
"1071 -12 CURVE SMOOTH",
"1128 -12 OFFCURVE",
"1182 -4 OFFCURVE",
"1231 11 CURVE",
"1231 199 LINE",
"1200 192 OFFCURVE",
"1171 189 OFFCURVE",
"1146 189 CURVE SMOOTH",
"1062 189 OFFCURVE",
"1034 223 OFFCURVE",
"1034 306 CURVE SMOOTH",
"1034 892 LINE",
"1193 892 LINE",
"1193 1082 LINE"
);
}
);
width = 1267;
}
);
note = pi;
unicode = 03C0;
},
{
glyphname = rho;
lastChange = "2019-02-04 10:03:05 +0000";
layers = (
{
layerId = "BC02B84D-1250-4FEC-829E-45FBAB526404";
paths = (
{
closed = 1;
nodes = (
"317 1102 OFFCURVE",
"128 894 OFFCURVE",
"128 571 CURVE SMOOTH",
"128 -416 LINE",
"371 -416 LINE",
"371 99 LINE",
"442 20 OFFCURVE",
"537 -20 OFFCURVE",
"656 -20 CURVE SMOOTH",
"913 -20 OFFCURVE",
"1073 182 OFFCURVE",
"1073 505 CURVE SMOOTH",
"1073 520 LINE SMOOTH",
"1073 884 OFFCURVE",
"897 1102 OFFCURVE",
"598 1102 CURVE SMOOTH"
);
},
{
closed = 1;
nodes = (
"371 767 OFFCURVE",
"456 907 OFFCURVE",
"592 907 CURVE SMOOTH",
"744 907 OFFCURVE",
"830 771 OFFCURVE",
"830 526 CURVE SMOOTH",
"830 287 OFFCURVE",
"744 174 OFFCURVE",
"587 174 CURVE SMOOTH",
"488 174 OFFCURVE",
"416 213 OFFCURVE",
"371 291 CURVE",
"371 554 LINE SMOOTH"
);
}
);
width = 1160;
}
);
note = rho;
rightKerningGroup = b;
unicode = 03C1;
},
{
glyphname = sigma1;
lastChange = "2019-02-04 10:03:05 +0000";
layers = (
{
layerId = "BC02B84D-1250-4FEC-829E-45FBAB526404";
paths = (
{
closed = 1;
nodes = (
"471 1102 OFFCURVE",
"385 1079 OFFCURVE",
"312 1034 CURVE SMOOTH",
"165 942 OFFCURVE",
"82 767 OFFCURVE",
"82 558 CURVE SMOOTH",
"82 519 LINE SMOOTH",
"83 240 OFFCURVE",
"241 74 OFFCURVE",
"558 1 CURVE SMOOTH",
"645 -19 OFFCURVE",
"683 -43 OFFCURVE",
"683 -96 CURVE SMOOTH",
"683 -155 OFFCURVE",
"658 -200 OFFCURVE",
"590 -273 CURVE",
"717 -374 LINE",
"818 -299 OFFCURVE",
"920 -151 OFFCURVE",
"920 -55 CURVE",
"919 33 OFFCURVE",
"886 85 OFFCURVE",
"822 123 CURVE SMOOTH",
"790 142 OFFCURVE",
"724 165 OFFCURVE",
"623 194 CURVE SMOOTH",
"422 251 OFFCURVE",
"324 348 OFFCURVE",
"324 523 CURVE SMOOTH",
"324 549 LINE SMOOTH",
"324 776 OFFCURVE",
"417 907 OFFCURVE",
"568 907 CURVE SMOOTH",
"696 907 OFFCURVE",
"773 823 OFFCURVE",
"773 694 CURVE",
"1001 694 LINE",
"1001 943 OFFCURVE",
"829 1102 OFFCURVE",
"568 1102 CURVE SMOOTH"
);
}
);
width = 1079;
}
);
leftKerningGroup = c;
note = sigma1;
unicode = 03C2;
},
{
glyphname = sigma;
lastChange = "2019-02-04 10:03:05 +0000";
layers = (
{
layerId = "BC02B84D-1250-4FEC-829E-45FBAB526404";
paths = (
{
closed = 1;
nodes = (
"573 1082 LINE SMOOTH",
"276 1079 OFFCURVE",
"82 868 OFFCURVE",
"82 551 CURVE SMOOTH",
"82 539 LINE SMOOTH",
"82 194 OFFCURVE",
"279 -20 OFFCURVE",
"580 -20 CURVE SMOOTH",
"677 -20 OFFCURVE",
"762 2 OFFCURVE",
"836 46 CURVE SMOOTH",
"984 133 OFFCURVE",
"1069 300 OFFCURVE",
"1069 489 CURVE SMOOTH",
"1069 656 OFFCURVE",
"1007 789 OFFCURVE",
"883 886 CURVE",
"1150 886 LINE",
"1150 1082 LINE"
);
},
{
closed = 1;
nodes = (
"325 770 OFFCURVE",
"421 886 OFFCURVE",
"578 886 CURVE SMOOTH",
"734 886 OFFCURVE",
"826 759 OFFCURVE",
"826 551 CURVE SMOOTH",
"826 299 OFFCURVE",
"736 174 OFFCURVE",
"580 174 CURVE SMOOTH",
"417 174 OFFCURVE",
"325 305 OFFCURVE",
"325 530 CURVE SMOOTH"
);
}
);
width = 1168;
}
);
leftKerningGroup = c;
note = sigma;
unicode = 03C3;
},
{
glyphname = tau;
lastChange = "2019-02-04 10:03:05 +0000";
layers = (
{
layerId = "BC02B84D-1250-4FEC-829E-45FBAB526404";
paths = (
{
closed = 1;
nodes = (
"63 1082 LINE",
"63 889 LINE",
"401 889 LINE",
"401 293 LINE SMOOTH",
"404 84 OFFCURVE",
"498 -20 OFFCURVE",
"682 -20 CURVE SMOOTH",
"754 -20 OFFCURVE",
"817 -5 OFFCURVE",
"870 24 CURVE",
"832 201 LINE",
"795 186 OFFCURVE",
"764 179 OFFCURVE",
"738 179 CURVE SMOOTH",
"670 179 OFFCURVE",
"644 218 OFFCURVE",
"644 297 CURVE SMOOTH",
"644 889 LINE",
"1004 889 LINE",
"1004 1082 LINE"
);
}
);
width = 1069;
}
);
note = tau;
unicode = 03C4;
},
{
glyphname = upsilon;
lastChange = "2019-02-04 10:03:05 +0000";
layers = (
{
layerId = "BC02B84D-1250-4FEC-829E-45FBAB526404";
paths = (
{
closed = 1;
nodes = (
"128 421 LINE SMOOTH",
"129 133 OFFCURVE",
"270 -21 OFFCURVE",
"541 -21 CURVE SMOOTH",
"849 -21 OFFCURVE",
"1032 209 OFFCURVE",
"1032 566 CURVE SMOOTH",
"1032 757 OFFCURVE",
"994 929 OFFCURVE",
"917 1082 CURVE",
"676 1082 LINE",
"749 892 OFFCURVE",
"787 720 OFFCURVE",
"789 566 CURVE SMOOTH",
"789 353 OFFCURVE",
"682 173 OFFCURVE",
"531 173 CURVE SMOOTH",
"424 173 OFFCURVE",
"370 259 OFFCURVE",
"370 432 CURVE SMOOTH",
"370 1082 LINE",
"128 1082 LINE"
);
}
);
width = 1120;
}
);
leftKerningGroup = u;
note = upsilon;
unicode = 03C5;
},
{
glyphname = phi;
lastChange = "2019-02-04 10:03:05 +0000";
layers = (
{
layerId = "BC02B84D-1250-4FEC-829E-45FBAB526404";
paths = (
{
closed = 1;
nodes = (
"856 -478 LINE",
"856 -15 LINE",
"1212 20 OFFCURVE",
"1413 227 OFFCURVE",
"1413 551 CURVE SMOOTH",
"1413 648 OFFCURVE",
"1391 739 OFFCURVE",
"1346 823 CURVE SMOOTH",
"1256 990 OFFCURVE",
"1091 1089 OFFCURVE",
"895 1089 CURVE SMOOTH",
"730 1089 OFFCURVE",
"613 983 OFFCURVE",
"613 824 CURVE SMOOTH",
"613 184 LINE",
"416 224 OFFCURVE",
"311 365 OFFCURVE",
"311 580 CURVE SMOOTH",
"314 719 OFFCURVE",
"365 849 OFFCURVE",
"461 942 CURVE",
"309 1088 LINE",
"156 977 OFFCURVE",
"68 799 OFFCURVE",
"68 580 CURVE SMOOTH",
"68 240 OFFCURVE",
"266 23 OFFCURVE",
"613 -14 CURVE",
"613 -478 LINE"
);
},
{
closed = 1;
nodes = (
"856 872 OFFCURVE",
"874 893 OFFCURVE",
"911 893 CURVE SMOOTH",
"1066 893 OFFCURVE",
"1167 752 OFFCURVE",
"1170 551 CURVE SMOOTH",
"1170 350 OFFCURVE",
"1055 215 OFFCURVE",
"856 182 CURVE",
"856 831 LINE SMOOTH"
);
}
);
width = 1488;
}
);
note = phi;
unicode = 03C6;
},
{
glyphname = psi;
lastChange = "2019-02-04 10:03:05 +0000";
layers = (
{
layerId = "BC02B84D-1250-4FEC-829E-45FBAB526404";
paths = (
{
closed = 1;
nodes = (
"607 184 LINE",
"417 224 OFFCURVE",
"322 361 OFFCURVE",
"322 594 CURVE SMOOTH",
"322 1082 LINE",
"79 1082 LINE",
"79 589 LINE SMOOTH",
"80 234 OFFCURVE",
"260 26 OFFCURVE",
"607 -14 CURVE",
"607 -478 LINE",
"850 -478 LINE",
"850 -16 LINE",
"1209 19 OFFCURVE",
"1406 233 OFFCURVE",
"1406 580 CURVE SMOOTH",
"1406 763 OFFCURVE",
"1366 931 OFFCURVE",
"1285 1082 CURVE",
"1047 1082 LINE",
"1122 898 OFFCURVE",
"1161 731 OFFCURVE",
"1164 580 CURVE SMOOTH",
"1164 361 OFFCURVE",
"1046 219 OFFCURVE",
"850 183 CURVE",
"850 1082 LINE",
"607 1082 LINE"
);
}
);
width = 1481;
}
);
note = psi;
unicode = 03C8;
},
{
glyphname = omega;
lastChange = "2019-02-04 10:03:05 +0000";
layers = (
{
layerId = "BC02B84D-1250-4FEC-829E-45FBAB526404";
paths = (
{
closed = 1;
nodes = (
"149 927 OFFCURVE",
"102 755 OFFCURVE",
"102 566 CURVE SMOOTH",
"102 187 OFFCURVE",
"248 -20 OFFCURVE",
"519 -20 CURVE SMOOTH",
"672 -20 OFFCURVE",
"780 54 OFFCURVE",
"841 202 CURVE",
"902 54 OFFCURVE",
"1010 -20 OFFCURVE",
"1165 -20 CURVE SMOOTH",
"1436 -20 OFFCURVE",
"1581 187 OFFCURVE",
"1581 566 CURVE SMOOTH",
"1581 755 OFFCURVE",
"1534 927 OFFCURVE",
"1440 1082 CURVE",
"1199 1082 LINE",
"1288 897 OFFCURVE",
"1334 725 OFFCURVE",
"1339 566 CURVE SMOOTH",
"1339 314 OFFCURVE",
"1271 174 OFFCURVE",
"1154 174 CURVE SMOOTH",
"1034 174 OFFCURVE",
"970 279 OFFCURVE",
"967 468 CURVE",
"967 805 LINE",
"716 805 LINE",
"716 479 LINE SMOOTH",
"716 282 OFFCURVE",
"650 174 OFFCURVE",
"529 174 CURVE SMOOTH",
"412 174 OFFCURVE",
"344 314 OFFCURVE",
"344 566 CURVE SMOOTH",
"349 724 OFFCURVE",
"396 896 OFFCURVE",
"485 1082 CURVE",
"243 1082 LINE"
);
}
);
width = 1684;
}
);
note = omega;
unicode = 03C9;
},
{
glyphname = theta1;
lastChange = "2019-02-04 10:03:05 +0000";
layers = (
{
layerId = "BC02B84D-1250-4FEC-829E-45FBAB526404";
paths = (
{
closed = 1;
nodes = (
"1139 791 OFFCURVE",
"1100 783 OFFCURVE",
"1050 775 CURVE",
"1050 1081 LINE SMOOTH",
"1050 1330 OFFCURVE",
"918 1476 OFFCURVE",
"695 1476 CURVE SMOOTH",
"475 1476 OFFCURVE",
"333 1328 OFFCURVE",
"333 1103 CURVE SMOOTH",
"333 1076 LINE SMOOTH",
"337 820 OFFCURVE",
"522 622 OFFCURVE",
"801 571 CURVE",
"801 447 LINE SMOOTH",
"801 272 OFFCURVE",
"725 182 OFFCURVE",
"594 182 CURVE SMOOTH",
"447 182 OFFCURVE",
"354 283 OFFCURVE",
"354 450 CURVE SMOOTH",
"354 740 LINE",
"118 738 LINE",
"118 453 LINE SMOOTH",
"118 170 OFFCURVE",
"306 -20 OFFCURVE",
"587 -20 CURVE SMOOTH",
"871 -20 OFFCURVE",
"1050 160 OFFCURVE",
"1050 451 CURVE SMOOTH",
"1050 568 LINE",
"1095 575 OFFCURVE",
"1137 586 OFFCURVE",
"1176 599 CURVE",
"1167 798 LINE"
);
},
{
closed = 1;
nodes = (
"569 1228 OFFCURVE",
"619 1266 OFFCURVE",
"688 1266 CURVE SMOOTH",
"761 1266 OFFCURVE",
"798 1215 OFFCURVE",
"801 1112 CURVE SMOOTH",
"801 787 LINE",
"658 830 OFFCURVE",
"569 945 OFFCURVE",
"569 1089 CURVE SMOOTH"
);
}
);
width = 1203;
}
);
note = theta1;
unicode = 03D1;
},
{
glyphname = Upsilon1;
lastChange = "2019-02-04 10:03:05 +0000";
layers = (
{
layerId = "BC02B84D-1250-4FEC-829E-45FBAB526404";
paths = (
{
closed = 1;
nodes = (
"316 1411 OFFCURVE",
"240 1475 OFFCURVE",
"103 1475 CURVE SMOOTH",
"54 1475 OFFCURVE",
"9 1466 OFFCURVE",
"-31 1448 CURVE",
"5 1255 LINE",
"12 1258 OFFCURVE",
"29 1260 OFFCURVE",
"58 1260 CURVE SMOOTH",
"101 1260 OFFCURVE",
"133 1237 OFFCURVE",
"155 1191 CURVE SMOOTH",
"448 528 LINE",
"448 0 LINE",
"700 0 LINE",
"700 530 LINE",
"995 1191 LINE SMOOTH",
"1016 1237 OFFCURVE",
"1048 1260 OFFCURVE",
"1091 1260 CURVE SMOOTH",
"1118 1260 OFFCURVE",
"1135 1258 OFFCURVE",
"1144 1255 CURVE",
"1182 1449 LINE",
"1138 1466 OFFCURVE",
"1093 1475 OFFCURVE",
"1046 1475 CURVE SMOOTH",
"918 1475 OFFCURVE",
"842 1412 OFFCURVE",
"785 1279 CURVE SMOOTH",
"575 775 LINE",
"375 1267 LINE SMOOTH"
);
}
);
width = 1147;
}
);
note = Upsilon1;
unicode = 03D2;
},
{
glyphname = omega1;
lastChange = "2019-02-04 10:03:05 +0000";
layers = (
{
layerId = "BC02B84D-1250-4FEC-829E-45FBAB526404";
paths = (
{
closed = 1;
nodes = (
"51 1082 LINE",
"51 899 LINE",
"162 899 LINE",
"126 795 OFFCURVE",
"108 684 OFFCURVE",
"108 566 CURVE SMOOTH",
"108 187 OFFCURVE",
"245 -20 OFFCURVE",
"497 -20 CURVE SMOOTH",
"656 -20 OFFCURVE",
"766 55 OFFCURVE",
"827 206 CURVE",
"888 55 OFFCURVE",
"998 -20 OFFCURVE",
"1157 -20 CURVE SMOOTH",
"1408 -20 OFFCURVE",
"1547 185 OFFCURVE",
"1547 566 CURVE SMOOTH",
"1547 683 OFFCURVE",
"1529 794 OFFCURVE",
"1492 899 CURVE",
"1620 899 LINE",
"1620 1082 LINE"
);
},
{
closed = 1;
nodes = (
"1305 439 OFFCURVE",
"1291 342 OFFCURVE",
"1264 275 CURVE SMOOTH",
"1236 208 OFFCURVE",
"1197 174 OFFCURVE",
"1147 174 CURVE SMOOTH",
"1023 174 OFFCURVE",
"956 277 OFFCURVE",
"953 468 CURVE",
"953 706 LINE",
"703 706 LINE",
"703 474 LINE SMOOTH",
"702 275 OFFCURVE",
"631 174 OFFCURVE",
"508 174 CURVE SMOOTH",
"458 174 OFFCURVE",
"419 208 OFFCURVE",
"392 275 CURVE SMOOTH",
"364 342 OFFCURVE",
"350 439 OFFCURVE",
"350 566 CURVE SMOOTH",
"353 670 OFFCURVE",
"374 781 OFFCURVE",
"414 899 CURVE",
"1240 899 LINE",
"1281 784 OFFCURVE",
"1302 673 OFFCURVE",
"1305 566 CURVE SMOOTH"
);
}
);
width = 1649;
}
);
note = omega1;
unicode = 03D6;
},
{
glyphname = afii10051;
lastChange = "2019-02-04 10:03:05 +0000";
layers = (
{
layerId = "BC02B84D-1250-4FEC-829E-45FBAB526404";
paths = (
{
closed = 1;
nodes = (
"34 1456 LINE",
"34 1252 LINE",
"422 1252 LINE",
"422 0 LINE",
"675 0 LINE",
"675 652 LINE",
"755 673 OFFCURVE",
"840 684 OFFCURVE",
"929 684 CURVE SMOOTH",
"1120 684 OFFCURVE",
"1215 589 OFFCURVE",
"1216 430 CURVE SMOOTH",
"1216 254 OFFCURVE",
"1122 177 OFFCURVE",
"939 177 CURVE",
"940 -14 LINE",
"1279 -14 OFFCURVE",
"1468 150 OFFCURVE",
"1468 438 CURVE SMOOTH",
"1468 726 OFFCURVE",
"1272 894 OFFCURVE",
"937 894 CURVE SMOOTH",
"861 894 OFFCURVE",
"774 881 OFFCURVE",
"675 856 CURVE",
"675 1252 LINE",
"1168 1252 LINE",
"1168 1456 LINE"
);
}
);
width = 1534;
}
);
leftKerningGroup = T;
note = afii10051;
unicode = 0402;
},
{
glyphname = afii10053;
lastChange = "2019-02-04 10:03:05 +0000";
layers = (
{
layerId = "BC02B84D-1250-4FEC-829E-45FBAB526404";
paths = (
{
closed = 1;
nodes = (
"982 264 OFFCURVE",
"888 181 OFFCURVE",
"692 181 CURVE SMOOTH",
"483 181 OFFCURVE",
"366 336 OFFCURVE",
"357 631 CURVE",
"865 631 LINE",
"865 833 LINE",
"358 833 LINE",
"369 1113 OFFCURVE",
"488 1272 OFFCURVE",
"703 1272 CURVE SMOOTH",
"892 1272 OFFCURVE",
"987 1182 OFFCURVE",
"1011 974 CURVE",
"1263 974 LINE",
"1231 1289 OFFCURVE",
"1027 1476 OFFCURVE",
"703 1476 CURVE SMOOTH",
"583 1476 OFFCURVE",
"478 1448 OFFCURVE",
"387 1391 CURVE SMOOTH",
"205 1278 OFFCURVE",
"104 1061 OFFCURVE",
"104 785 CURVE SMOOTH",
"104 662 LINE SMOOTH",
"105 524 OFFCURVE",
"129 403 OFFCURVE",
"178 300 CURVE SMOOTH",
"274 93 OFFCURVE",
"459 -20 OFFCURVE",
"692 -20 CURVE SMOOTH",
"1023 -20 OFFCURVE",
"1233 164 OFFCURVE",
"1262 473 CURVE",
"1009 473 LINE"
);
}
);
width = 1369;
}
);
leftKerningGroup = C;
note = afii10053;
unicode = 0404;
},
{
glyphname = afii10058;
lastChange = "2019-02-04 10:03:05 +0000";
layers = (
{
layerId = "BC02B84D-1250-4FEC-829E-45FBAB526404";
paths = (
{
closed = 1;
nodes = (
"354 1456 LINE",
"326 743 LINE SMOOTH",
"319 604 OFFCURVE",
"308 498 OFFCURVE",
"292 427 CURVE SMOOTH",
"259 283 OFFCURVE",
"201 216 OFFCURVE",
"85 205 CURVE SMOOTH",
"45 202 LINE",
"45 0 LINE",
"109 0 LINE SMOOTH",
"214 0 OFFCURVE",
"298 22 OFFCURVE",
"361 67 CURVE SMOOTH",
"486 156 OFFCURVE",
"549 337 OFFCURVE",
"569 689 CURVE SMOOTH",
"595 1252 LINE",
"1041 1252 LINE",
"1041 0 LINE",
"1607 0 LINE SMOOTH",
"1912 7 OFFCURVE",
"2113 189 OFFCURVE",
"2113 464 CURVE SMOOTH",
"2113 554 OFFCURVE",
"2092 634 OFFCURVE",
"2050 705 CURVE SMOOTH",
"1965 846 OFFCURVE",
"1802 928 OFFCURVE",
"1598 929 CURVE SMOOTH",
"1293 929 LINE",
"1293 1456 LINE"
);
},
{
closed = 1;
nodes = (
"1759 723 OFFCURVE",
"1861 619 OFFCURVE",
"1861 466 CURVE SMOOTH",
"1861 310 OFFCURVE",
"1758 202 OFFCURVE",
"1590 202 CURVE SMOOTH",
"1293 202 LINE",
"1293 726 LINE",
"1596 726 LINE SMOOTH"
);
}
);
width = 2184;
}
);
leftKerningGroup = afii10058;
note = afii10058;
rightKerningGroup = afii10058;
unicode = 0409;
},
{
glyphname = afii10059;
lastChange = "2019-02-04 10:03:05 +0000";
layers = (
{
layerId = "BC02B84D-1250-4FEC-829E-45FBAB526404";
paths = (
{
closed = 1;
nodes = (
"155 1456 LINE",
"155 0 LINE",
"407 0 LINE",
"407 634 LINE",
"1047 634 LINE",
"1047 0 LINE",
"1591 0 LINE SMOOTH",
"1915 0 OFFCURVE",
"2119 179 OFFCURVE",
"2119 452 CURVE SMOOTH",
"2119 541 OFFCURVE",
"2098 619 OFFCURVE",
"2056 687 CURVE SMOOTH",
"1971 822 OFFCURVE",
"1806 898 OFFCURVE",
"1598 898 CURVE SMOOTH",
"1299 898 LINE",
"1299 1456 LINE",
"1047 1456 LINE",
"1047 837 LINE",
"407 837 LINE",
"407 1456 LINE"
);
},
{
closed = 1;
nodes = (
"1761 696 OFFCURVE",
"1868 602 OFFCURVE",
"1868 454 CURVE SMOOTH",
"1868 305 OFFCURVE",
"1764 208 OFFCURVE",
"1596 208 CURVE SMOOTH",
"1299 208 LINE",
"1299 696 LINE",
"1596 696 LINE SMOOTH"
);
}
);
width = 2191;
}
);
note = afii10059;
rightKerningGroup = afii10058;
unicode = 040A;
},
{
glyphname = afii10060;
lastChange = "2019-02-04 10:03:05 +0000";
layers = (
{
layerId = "BC02B84D-1250-4FEC-829E-45FBAB526404";
paths = (
{
closed = 1;
nodes = (
"49 1456 LINE",
"49 1252 LINE",
"423 1252 LINE",
"423 0 LINE",
"675 0 LINE",
"675 691 LINE",
"764 710 OFFCURVE",
"856 719 OFFCURVE",
"949 719 CURVE SMOOTH",
"1154 719 OFFCURVE",
"1228 643 OFFCURVE",
"1228 458 CURVE SMOOTH",
"1228 0 LINE",
"1480 0 LINE",
"1480 457 LINE SMOOTH",
"1480 762 OFFCURVE",
"1306 922 OFFCURVE",
"949 922 CURVE SMOOTH",
"854 922 OFFCURVE",
"762 913 OFFCURVE",
"675 895 CURVE",
"675 1252 LINE",
"1170 1252 LINE",
"1170 1456 LINE"
);
}
);
width = 1627;
}
);
leftKerningGroup = T;
note = afii10060;
unicode = 040B;
},
{
glyphname = afii10145;
lastChange = "2019-02-04 10:03:05 +0000";
layers = (
{
layerId = "BC02B84D-1250-4FEC-829E-45FBAB526404";
paths = (
{
closed = 1;
nodes = (
"603 0 LINE",
"603 -360 LINE",
"856 -360 LINE",
"856 0 LINE",
"1293 0 LINE",
"1293 1456 LINE",
"1040 1456 LINE",
"1040 202 LINE",
"399 202 LINE",
"399 1456 LINE",
"146 1456 LINE",
"146 0 LINE"
);
}
);
width = 1450;
}
);
note = afii10145;
rightKerningGroup = H;
unicode = 040F;
},
{
glyphname = afii10018;
lastChange = "2019-02-04 10:03:05 +0000";
layers = (
{
layerId = "BC02B84D-1250-4FEC-829E-45FBAB526404";
paths = (
{
closed = 1;
nodes = (
"144 1456 LINE",
"144 0 LINE",
"701 0 LINE SMOOTH",
"1020 3 OFFCURVE",
"1217 182 OFFCURVE",
"1217 454 CURVE SMOOTH",
"1217 543 OFFCURVE",
"1196 621 OFFCURVE",
"1155 688 CURVE SMOOTH",
"1072 823 OFFCURVE",
"908 899 OFFCURVE",
"695 899 CURVE SMOOTH",
"397 899 LINE",
"397 1252 LINE",
"1068 1252 LINE",
"1068 1456 LINE"
);
},
{
closed = 1;
nodes = (
"866 693 OFFCURVE",
"965 603 OFFCURVE",
"965 456 CURVE SMOOTH",
"965 303 OFFCURVE",
"865 202 OFFCURVE",
"694 202 CURVE SMOOTH",
"397 202 LINE",
"397 696 LINE",
"701 696 LINE SMOOTH"
);
}
);
width = 1288;
}
);
note = afii10018;
unicode = 0411;
},
{
glyphname = afii10021;
lastChange = "2019-02-04 10:03:05 +0000";
layers = (
{
layerId = "BC02B84D-1250-4FEC-829E-45FBAB526404";
paths = (
{
closed = 1;
nodes = (
"1315 202 LINE",
"1315 1456 LINE",
"397 1456 LINE",
"359 810 LINE SMOOTH",
"339 539 OFFCURVE",
"269 314 OFFCURVE",
"153 202 CURVE",
"36 202 LINE",
"44 -358 LINE",
"288 -358 LINE",
"288 0 LINE",
"1247 0 LINE",
"1247 -358 LINE",
"1487 -358 LINE",
"1500 202 LINE"
);
},
{
closed = 1;
nodes = (
"538 355 OFFCURVE",
"596 568 OFFCURVE",
"614 842 CURVE SMOOTH",
"638 1252 LINE",
"1063 1252 LINE",
"1063 202 LINE",
"439 202 LINE"
);
}
);
width = 1542;
}
);
note = afii10021;
unicode = 0414;
},
{
glyphname = afii10024;
lastChange = "2019-02-04 10:03:05 +0000";
layers = (
{
layerId = "BC02B84D-1250-4FEC-829E-45FBAB526404";
paths = (
{
closed = 1;
nodes = (
"1947 0 LINE",
"1482 777 LINE",
"1916 1456 LINE",
"1611 1456 LINE",
"1266 848 LINE",
"1116 848 LINE",
"1116 1456 LINE",
"864 1456 LINE",
"864 848 LINE",
"707 848 LINE",
"359 1456 LINE",
"53 1456 LINE",
"491 775 LINE",
"22 0 LINE",
"337 0 LINE",
"694 628 LINE",
"864 628 LINE",
"864 0 LINE",
"1116 0 LINE",
"1116 628 LINE",
"1279 628 LINE",
"1633 0 LINE"
);
}
);
width = 1954;
}
);
leftKerningGroup = X;
note = afii10024;
rightKerningGroup = X;
unicode = 0416;
},
{
glyphname = afii10025;
lastChange = "2019-02-04 10:03:05 +0000";
layers = (
{
layerId = "BC02B84D-1250-4FEC-829E-45FBAB526404";
paths = (
{
closed = 1;
nodes = (
"876 914 OFFCURVE",
"787 842 OFFCURVE",
"608 842 CURVE SMOOTH",
"446 842 LINE",
"446 642 LINE",
"617 642 LINE SMOOTH",
"801 642 OFFCURVE",
"898 572 OFFCURVE",
"898 408 CURVE SMOOTH",
"898 273 OFFCURVE",
"780 181 OFFCURVE",
"601 181 CURVE SMOOTH",
"441 181 OFFCURVE",
"325 279 OFFCURVE",
"325 404 CURVE",
"73 404 LINE",
"73 322 OFFCURVE",
"94 249 OFFCURVE",
"136 186 CURVE SMOOTH",
"219 59 OFFCURVE",
"396 -19 OFFCURVE",
"601 -19 CURVE SMOOTH",
"934 -19 OFFCURVE",
"1151 147 OFFCURVE",
"1151 408 CURVE SMOOTH",
"1151 577 OFFCURVE",
"1063 692 OFFCURVE",
"900 748 CURVE",
"1044 812 OFFCURVE",
"1128 929 OFFCURVE",
"1128 1061 CURVE SMOOTH",
"1128 1322 OFFCURVE",
"934 1475 OFFCURVE",
"601 1475 CURVE SMOOTH",
"507 1475 OFFCURVE",
"421 1458 OFFCURVE",
"343 1424 CURVE SMOOTH",
"187 1355 OFFCURVE",
"94 1226 OFFCURVE",
"94 1067 CURVE",
"346 1067 LINE",
"346 1188 OFFCURVE",
"456 1273 OFFCURVE",
"601 1273 CURVE SMOOTH",
"770 1273 OFFCURVE",
"876 1190 OFFCURVE",
"876 1059 CURVE SMOOTH"
);
}
);
width = 1238;
}
);
note = afii10025;
unicode = 0417;
},
{
glyphname = afii10026;
lastChange = "2019-02-04 10:03:05 +0000";
layers = (
{
layerId = "BC02B84D-1250-4FEC-829E-45FBAB526404";
paths = (
{
closed = 1;
nodes = (
"401 1456 LINE",
"148 1456 LINE",
"148 0 LINE",
"401 0 LINE",
"1040 1037 LINE",
"1040 0 LINE",
"1293 0 LINE",
"1293 1456 LINE",
"1040 1456 LINE",
"401 418 LINE"
);
}
);
width = 1448;
}
);
note = afii10026;
rightKerningGroup = H;
unicode = 0418;
},
{
glyphname = afii10029;
lastChange = "2019-02-04 10:03:05 +0000";
layers = (
{
layerId = "BC02B84D-1250-4FEC-829E-45FBAB526404";
paths = (
{
closed = 1;
nodes = (
"326 743 LINE SMOOTH",
"319 604 OFFCURVE",
"308 498 OFFCURVE",
"292 427 CURVE SMOOTH",
"259 283 OFFCURVE",
"201 216 OFFCURVE",
"85 205 CURVE SMOOTH",
"45 202 LINE",
"45 0 LINE",
"109 0 LINE SMOOTH",
"214 0 OFFCURVE",
"298 22 OFFCURVE",
"361 67 CURVE SMOOTH",
"486 156 OFFCURVE",
"549 337 OFFCURVE",
"569 689 CURVE SMOOTH",
"595 1252 LINE",
"1041 1252 LINE",
"1041 0 LINE",
"1293 0 LINE",
"1293 1456 LINE",
"354 1456 LINE"
);
}
);
width = 1449;
}
);
leftKerningGroup = afii10058;
note = afii10029;
rightKerningGroup = H;
unicode = 041B;
},
{
glyphname = afii10037;
lastChange = "2019-02-04 10:03:05 +0000";
layers = (
{
layerId = "BC02B84D-1250-4FEC-829E-45FBAB526404";
paths = (
{
closed = 1;
nodes = (
"57 1456 LINE",
"555 396 LINE",
"503 273 LINE",
"474 212 OFFCURVE",
"423 181 OFFCURVE",
"351 181 CURVE SMOOTH",
"310 181 OFFCURVE",
"282 182 OFFCURVE",
"266 185 CURVE",
"264 -15 LINE",
"368 -21 LINE",
"517 -21 OFFCURVE",
"625 38 OFFCURVE",
"692 157 CURVE",
"738 248 LINE",
"1245 1456 LINE",
"964 1456 LINE",
"672 695 LINE",
"333 1456 LINE"
);
}
);
width = 1290;
}
);
leftKerningGroup = afii10037;
note = afii10037;
rightKerningGroup = afii10037;
unicode = 0423;
},
{
glyphname = afii10038;
lastChange = "2019-02-04 10:03:05 +0000";
layers = (
{
layerId = "BC02B84D-1250-4FEC-829E-45FBAB526404";
paths = (
{
closed = 1;
nodes = (
"699 1516 LINE",
"699 1318 LINE",
"675 1318 LINE SMOOTH",
"562 1318 OFFCURVE",
"459 1293 OFFCURVE",
"368 1242 CURVE SMOOTH",
"185 1140 OFFCURVE",
"79 948 OFFCURVE",
"79 720 CURVE SMOOTH",
"79 607 OFFCURVE",
"104 506 OFFCURVE",
"155 416 CURVE SMOOTH",
"255 236 OFFCURVE",
"450 130 OFFCURVE",
"675 130 CURVE SMOOTH",
"699 130 LINE",
"699 -60 LINE",
"942 -60 LINE",
"942 130 LINE",
"968 130 LINE SMOOTH",
"1080 131 OFFCURVE",
"1181 156 OFFCURVE",
"1272 206 CURVE SMOOTH",
"1452 306 OFFCURVE",
"1560 495 OFFCURVE",
"1560 722 CURVE SMOOTH",
"1560 836 OFFCURVE",
"1535 939 OFFCURVE",
"1484 1030 CURVE SMOOTH",
"1382 1213 OFFCURVE",
"1188 1318 OFFCURVE",
"964 1318 CURVE SMOOTH",
"942 1318 LINE",
"942 1516 LINE"
);
},
{
closed = 1;
nodes = (
"699 333 LINE",
"678 333 LINE SMOOTH",
"449 333 OFFCURVE",
"318 480 OFFCURVE",
"318 720 CURVE SMOOTH",
"318 967 OFFCURVE",
"451 1115 OFFCURVE",
"675 1115 CURVE SMOOTH",
"699 1115 LINE"
);
},
{
closed = 1;
nodes = (
"1191 1115 OFFCURVE",
"1321 966 OFFCURVE",
"1321 722 CURVE SMOOTH",
"1321 483 OFFCURVE",
"1190 333 OFFCURVE",
"966 333 CURVE SMOOTH",
"942 333 LINE",
"942 1115 LINE",
"963 1115 LINE SMOOTH"
);
}
);
width = 1631;
}
);
note = afii10038;
unicode = 0424;
},
{
glyphname = afii10040;
lastChange = "2019-02-04 10:03:05 +0000";
layers = (
{
layerId = "BC02B84D-1250-4FEC-829E-45FBAB526404";
paths = (
{
closed = 1;
nodes = (
"1217 0 LINE",
"1217 -351 LINE",
"1449 -351 LINE",
"1469 204 LINE",
"1293 204 LINE",
"1293 1456 LINE",
"1040 1456 LINE",
"1040 202 LINE",
"399 202 LINE",
"399 1456 LINE",
"146 1456 LINE",
"146 0 LINE"
);
}
);
width = 1529;
}
);
note = afii10040;
rightKerningGroup = H;
unicode = 0426;
},
{
glyphname = afii10041;
lastChange = "2019-02-04 10:03:05 +0000";
layers = (
{
layerId = "BC02B84D-1250-4FEC-829E-45FBAB526404";
paths = (
{
closed = 1;
nodes = (
"1010 777 LINE",
"901 749 OFFCURVE",
"788 735 OFFCURVE",
"672 735 CURVE SMOOTH",
"471 735 OFFCURVE",
"395 807 OFFCURVE",
"394 992 CURVE",
"394 1456 LINE",
"142 1456 LINE",
"142 994 LINE SMOOTH",
"143 685 OFFCURVE",
"324 532 OFFCURVE",
"672 532 CURVE SMOOTH",
"789 532 OFFCURVE",
"902 546 OFFCURVE",
"1010 573 CURVE",
"1010 0 LINE",
"1262 0 LINE",
"1262 1456 LINE",
"1010 1456 LINE"
);
}
);
width = 1417;
}
);
leftKerningGroup = afii10041;
note = afii10041;
rightKerningGroup = H;
unicode = 0427;
},
{
glyphname = afii10042;
lastChange = "2019-02-04 10:03:05 +0000";
layers = (
{
layerId = "BC02B84D-1250-4FEC-829E-45FBAB526404";
paths = (
{
closed = 1;
nodes = (
"152 0 LINE",
"1795 0 LINE",
"1795 1456 LINE",
"1543 1456 LINE",
"1543 202 LINE",
"1102 202 LINE",
"1102 1456 LINE",
"850 1456 LINE",
"850 202 LINE",
"406 202 LINE",
"406 1456 LINE",
"152 1456 LINE"
);
}
);
width = 1947;
}
);
note = afii10042;
rightKerningGroup = H;
unicode = 0428;
},
{
glyphname = afii10043;
lastChange = "2019-02-04 10:03:05 +0000";
layers = (
{
layerId = "BC02B84D-1250-4FEC-829E-45FBAB526404";
paths = (
{
closed = 1;
nodes = (
"152 0 LINE",
"1723 0 LINE",
"1723 -350 LINE",
"1945 -350 LINE",
"1965 194 LINE",
"1795 194 LINE",
"1795 1456 LINE",
"1543 1456 LINE",
"1543 202 LINE",
"1102 202 LINE",
"1102 1456 LINE",
"850 1456 LINE",
"850 202 LINE",
"406 202 LINE",
"406 1456 LINE",
"152 1456 LINE"
);
}
);
width = 2041;
}
);
note = afii10043;
rightKerningGroup = H;
unicode = 0429;
},
{
glyphname = afii10044;
lastChange = "2019-02-04 10:03:05 +0000";
layers = (
{
layerId = "BC02B84D-1250-4FEC-829E-45FBAB526404";
paths = (
{
closed = 1;
nodes = (
"419 1261 LINE",
"419 0 LINE",
"975 0 LINE SMOOTH",
"1292 3 OFFCURVE",
"1492 181 OFFCURVE",
"1492 454 CURVE SMOOTH",
"1492 543 OFFCURVE",
"1471 622 OFFCURVE",
"1430 689 CURVE SMOOTH",
"1346 823 OFFCURVE",
"1182 899 OFFCURVE",
"969 899 CURVE SMOOTH",
"671 899 LINE",
"671 1456 LINE",
"24 1456 LINE",
"24 1261 LINE"
);
},
{
closed = 1;
nodes = (
"1140 693 OFFCURVE",
"1239 603 OFFCURVE",
"1239 456 CURVE SMOOTH",
"1239 303 OFFCURVE",
"1139 202 OFFCURVE",
"968 202 CURVE SMOOTH",
"671 202 LINE",
"671 696 LINE",
"975 696 LINE SMOOTH"
);
}
);
width = 1562;
}
);
note = afii10044;
rightKerningGroup = afii10058;
unicode = 042A;
},
{
glyphname = afii10045;
lastChange = "2019-02-04 10:03:05 +0000";
layers = (
{
layerId = "BC02B84D-1250-4FEC-829E-45FBAB526404";
paths = (
{
closed = 1;
nodes = (
"155 1456 LINE",
"155 0 LINE",
"712 0 LINE SMOOTH",
"1031 3 OFFCURVE",
"1228 182 OFFCURVE",
"1228 454 CURVE SMOOTH",
"1228 543 OFFCURVE",
"1207 621 OFFCURVE",
"1166 688 CURVE SMOOTH",
"1083 823 OFFCURVE",
"919 899 OFFCURVE",
"706 899 CURVE SMOOTH",
"408 899 LINE",
"408 1456 LINE"
);
},
{
closed = 1;
nodes = (
"1372 1456 LINE",
"1372 0 LINE",
"1624 0 LINE",
"1624 1456 LINE"
);
},
{
closed = 1;
nodes = (
"877 693 OFFCURVE",
"976 603 OFFCURVE",
"976 456 CURVE SMOOTH",
"976 303 OFFCURVE",
"876 202 OFFCURVE",
"705 202 CURVE SMOOTH",
"408 202 LINE",
"408 696 LINE",
"712 696 LINE SMOOTH"
);
}
);
width = 1785;
}
);
note = afii10045;
rightKerningGroup = H;
unicode = 042B;
},
{
glyphname = afii10046;
lastChange = "2019-02-04 10:03:05 +0000";
layers = (
{
layerId = "BC02B84D-1250-4FEC-829E-45FBAB526404";
paths = (
{
closed = 1;
nodes = (
"144 1456 LINE",
"144 0 LINE",
"701 0 LINE SMOOTH",
"1020 3 OFFCURVE",
"1217 182 OFFCURVE",
"1217 454 CURVE SMOOTH",
"1217 543 OFFCURVE",
"1196 621 OFFCURVE",
"1155 688 CURVE SMOOTH",
"1072 823 OFFCURVE",
"908 899 OFFCURVE",
"695 899 CURVE SMOOTH",
"397 899 LINE",
"397 1456 LINE"
);
},
{
closed = 1;
nodes = (
"866 693 OFFCURVE",
"965 603 OFFCURVE",
"965 456 CURVE SMOOTH",
"965 303 OFFCURVE",
"865 202 OFFCURVE",
"694 202 CURVE SMOOTH",
"397 202 LINE",
"397 696 LINE",
"701 696 LINE SMOOTH"
);
}
);
width = 1287;
}
);
note = afii10046;
rightKerningGroup = afii10058;
unicode = 042C;
},
{
glyphname = afii10047;
lastChange = "2019-02-04 10:03:05 +0000";
layers = (
{
layerId = "BC02B84D-1250-4FEC-829E-45FBAB526404";
paths = (
{
closed = 1;
nodes = (
"137 164 OFFCURVE",
"347 -20 OFFCURVE",
"678 -20 CURVE SMOOTH",
"795 -20 OFFCURVE",
"899 8 OFFCURVE",
"988 64 CURVE SMOOTH",
"1167 176 OFFCURVE",
"1265 392 OFFCURVE",
"1265 668 CURVE SMOOTH",
"1265 791 LINE",
"1264 928 OFFCURVE",
"1240 1048 OFFCURVE",
"1191 1152 CURVE SMOOTH",
"1093 1360 OFFCURVE",
"905 1476 OFFCURVE",
"666 1476 CURVE SMOOTH",
"343 1476 OFFCURVE",
"139 1291 OFFCURVE",
"107 974 CURVE",
"359 974 LINE",
"383 1185 OFFCURVE",
"479 1272 OFFCURVE",
"666 1272 CURVE SMOOTH",
"879 1272 OFFCURVE",
"1000 1116 OFFCURVE",
"1011 828 CURVE",
"497 828 LINE",
"497 624 LINE",
"1011 624 LINE",
"1003 337 OFFCURVE",
"886 181 OFFCURVE",
"678 181 CURVE SMOOTH",
"482 181 OFFCURVE",
"387 262 OFFCURVE",
"360 473 CURVE",
"108 473 LINE"
);
}
);
width = 1360;
}
);
note = afii10047;
unicode = 042D;
},
{
glyphname = afii10048;
lastChange = "2019-02-04 10:03:05 +0000";
layers = (
{
layerId = "BC02B84D-1250-4FEC-829E-45FBAB526404";
paths = (
{
closed = 1;
nodes = (
"1798 913 OFFCURVE",
"1773 1038 OFFCURVE",
"1723 1145 CURVE SMOOTH",
"1623 1359 OFFCURVE",
"1432 1476 OFFCURVE",
"1195 1476 CURVE SMOOTH",
"1080 1476 OFFCURVE",
"977 1449 OFFCURVE",
"887 1394 CURVE SMOOTH",
"706 1284 OFFCURVE",
"599 1069 OFFCURVE",
"591 801 CURVE",
"412 801 LINE",
"412 1456 LINE",
"160 1456 LINE",
"160 0 LINE",
"412 0 LINE",
"412 605 LINE",
"594 605 LINE",
"603 479 OFFCURVE",
"634 369 OFFCURVE",
"687 274 CURVE SMOOTH",
"792 85 OFFCURVE",
"974 -20 OFFCURVE",
"1197 -20 CURVE SMOOTH",
"1316 -20 OFFCURVE",
"1422 9 OFFCURVE",
"1514 67 CURVE SMOOTH",
"1697 182 OFFCURVE",
"1799 405 OFFCURVE",
"1799 690 CURVE SMOOTH",
"1799 771 LINE"
);
},
{
closed = 1;
nodes = (
"1546 362 OFFCURVE",
"1421 188 OFFCURVE",
"1197 188 CURVE SMOOTH",
"976 188 OFFCURVE",
"844 370 OFFCURVE",
"844 690 CURVE SMOOTH",
"844 774 LINE SMOOTH",
"847 1087 OFFCURVE",
"976 1266 OFFCURVE",
"1195 1266 CURVE SMOOTH",
"1419 1266 OFFCURVE",
"1546 1089 OFFCURVE",
"1546 766 CURVE SMOOTH",
"1546 690 LINE SMOOTH"
);
}
);
width = 1876;
}
);
note = afii10048;
unicode = 042E;
},
{
glyphname = afii10049;
lastChange = "2019-02-04 10:03:05 +0000";
layers = (
{
layerId = "BC02B84D-1250-4FEC-829E-45FBAB526404";
paths = (
{
closed = 1;
nodes = (
"1119 1456 LINE",
"624 1456 LINE SMOOTH",
"296 1453 OFFCURVE",
"103 1291 OFFCURVE",
"103 1012 CURVE SMOOTH",
"103 830 OFFCURVE",
"188 699 OFFCURVE",
"357 619 CURVE",
"32 0 LINE",
"303 0 LINE",
"584 544 LINE",
"866 544 LINE",
"866 0 LINE",
"1119 0 LINE"
);
},
{
closed = 1;
nodes = (
"355 1157 OFFCURVE",
"444 1252 OFFCURVE",
"631 1252 CURVE SMOOTH",
"866 1252 LINE",
"866 740 LINE",
"631 740 LINE SMOOTH",
"447 740 OFFCURVE",
"355 837 OFFCURVE",
"355 1001 CURVE SMOOTH"
);
}
);
width = 1271;
}
);
note = afii10049;
unicode = 042F;
},
{
glyphname = afii10066;
lastChange = "2019-02-04 10:03:05 +0000";
layers = (
{
layerId = "BC02B84D-1250-4FEC-829E-45FBAB526404";
paths = (
{
closed = 1;
nodes = (
"504 1022 OFFCURVE",
"391 972 OFFCURVE",
"294 873 CURVE",
"330 1066 OFFCURVE",
"429 1171 OFFCURVE",
"632 1214 CURVE SMOOTH",
"743 1237 OFFCURVE",
"821 1262 OFFCURVE",
"866 1289 CURVE SMOOTH",
"957 1341 OFFCURVE",
"1000 1420 OFFCURVE",
"1000 1555 CURVE",
"804 1555 LINE",
"804 1519 OFFCURVE",
"791 1491 OFFCURVE",
"764 1470 CURVE SMOOTH",
"737 1449 OFFCURVE",
"677 1429 OFFCURVE",
"585 1410 CURVE SMOOTH",
"257 1342 OFFCURVE",
"91 1068 OFFCURVE",
"91 601 CURVE SMOOTH",
"91 531 LINE SMOOTH",
"91 190 OFFCURVE",
"291 -21 OFFCURVE",
"588 -21 CURVE SMOOTH",
"893 -21 OFFCURVE",
"1084 191 OFFCURVE",
"1084 503 CURVE SMOOTH",
"1084 515 LINE SMOOTH",
"1084 827 OFFCURVE",
"906 1022 OFFCURVE",
"634 1022 CURVE SMOOTH"
);
},
{
closed = 1;
nodes = (
"750 827 OFFCURVE",
"842 711 OFFCURVE",
"842 524 CURVE SMOOTH",
"842 289 OFFCURVE",
"749 173 OFFCURVE",
"588 173 CURVE SMOOTH",
"425 173 OFFCURVE",
"334 295 OFFCURVE",
"334 503 CURVE SMOOTH",
"334 723 OFFCURVE",
"429 827 OFFCURVE",
"586 827 CURVE SMOOTH"
);
}
);
width = 1149;
}
);
note = afii10066;
unicode = 0431;
},
{
glyphname = afii10067;
lastChange = "2019-02-04 10:03:05 +0000";
layers = (
{
layerId = "BC02B84D-1250-4FEC-829E-45FBAB526404";
paths = (
{
closed = 1;
nodes = (
"929 0 OFFCURVE",
"1082 108 OFFCURVE",
"1082 309 CURVE SMOOTH",
"1082 430 OFFCURVE",
"993 527 OFFCURVE",
"852 556 CURVE",
"973 599 OFFCURVE",
"1036 682 OFFCURVE",
"1036 782 CURVE SMOOTH",
"1036 975 OFFCURVE",
"878 1082 OFFCURVE",
"582 1082 CURVE SMOOTH",
"143 1082 LINE",
"143 0 LINE",
"650 0 LINE SMOOTH"
);
},
{
closed = 1;
nodes = (
"776 461 OFFCURVE",
"839 416 OFFCURVE",
"839 326 CURVE SMOOTH",
"839 237 OFFCURVE",
"777 192 OFFCURVE",
"652 192 CURVE SMOOTH",
"386 192 LINE",
"386 461 LINE",
"649 461 LINE SMOOTH"
);
},
{
closed = 1;
nodes = (
"597 889 LINE SMOOTH",
"728 886 OFFCURVE",
"793 842 OFFCURVE",
"793 757 CURVE SMOOTH",
"793 676 OFFCURVE",
"724 635 OFFCURVE",
"586 635 CURVE SMOOTH",
"386 635 LINE",
"386 889 LINE"
);
}
);
width = 1167;
}
);
note = afii10067;
unicode = 0432;
},
{
glyphname = afii10068;
lastChange = "2019-02-04 10:03:05 +0000";
layers = (
{
layerId = "BC02B84D-1250-4FEC-829E-45FBAB526404";
paths = (
{
closed = 1;
nodes = (
"133 1082 LINE",
"133 0 LINE",
"375 0 LINE",
"375 886 LINE",
"845 886 LINE",
"845 1082 LINE"
);
}
);
width = 858;
}
);
leftKerningGroup = m;
note = afii10068;
rightKerningGroup = afii10068;
unicode = 0433;
},
{
glyphname = afii10069;
lastChange = "2019-02-04 10:03:05 +0000";
layers = (
{
layerId = "BC02B84D-1250-4FEC-829E-45FBAB526404";
paths = (
{
closed = 1;
nodes = (
"39 -322 LINE",
"285 -322 LINE",
"285 0 LINE",
"979 0 LINE",
"979 -322 LINE",
"1221 -322 LINE",
"1221 194 LINE",
"1071 194 LINE",
"1071 1082 LINE",
"320 1082 LINE",
"306 668 LINE SMOOTH",
"297 457 OFFCURVE",
"264 345 OFFCURVE",
"129 194 CURVE",
"40 194 LINE"
);
},
{
closed = 1;
nodes = (
"495 310 OFFCURVE",
"540 467 OFFCURVE",
"549 666 CURVE SMOOTH",
"556 873 LINE",
"829 873 LINE",
"829 194 LINE",
"414 194 LINE"
);
}
);
width = 1270;
}
);
note = afii10069;
unicode = 0434;
},
{
glyphname = afii10072;
lastChange = "2019-02-04 10:03:05 +0000";
layers = (
{
layerId = "BC02B84D-1250-4FEC-829E-45FBAB526404";
paths = (
{
closed = 1;
nodes = (
"1628 0 LINE",
"1267 566 LINE",
"1606 1082 LINE",
"1309 1082 LINE",
"1063 657 LINE",
"948 657 LINE",
"948 1082 LINE",
"705 1082 LINE",
"705 657 LINE",
"591 657 LINE",
"346 1082 LINE",
"49 1082 LINE",
"389 563 LINE",
"30 0 LINE",
"328 0 LINE",
"577 435 LINE",
"705 435 LINE",
"705 0 LINE",
"948 0 LINE",
"948 435 LINE",
"1077 435 LINE",
"1326 0 LINE"
);
}
);
width = 1654;
}
);
leftKerningGroup = x;
note = afii10072;
rightKerningGroup = x;
unicode = 0436;
},
{
glyphname = afii10073;
lastChange = "2019-02-04 10:03:05 +0000";
layers = (
{
layerId = "BC02B84D-1250-4FEC-829E-45FBAB526404";
paths = (
{
closed = 1;
nodes = (
"944 987 OFFCURVE",
"787 1101 OFFCURVE",
"519 1101 CURVE SMOOTH",
"272 1101 OFFCURVE",
"94 966 OFFCURVE",
"94 775 CURVE",
"336 775 LINE",
"336 855 OFFCURVE",
"419 914 OFFCURVE",
"526 914 CURVE SMOOTH",
"635 914 OFFCURVE",
"702 862 OFFCURVE",
"702 774 CURVE SMOOTH",
"702 686 OFFCURVE",
"648 641 OFFCURVE",
"539 640 CURVE SMOOTH",
"359 640 LINE",
"359 465 LINE",
"533 465 LINE SMOOTH",
"661 465 OFFCURVE",
"721 421 OFFCURVE",
"721 316 CURVE SMOOTH",
"721 227 OFFCURVE",
"646 166 OFFCURVE",
"527 166 CURVE SMOOTH",
"407 166 OFFCURVE",
"319 233 OFFCURVE",
"319 321 CURVE",
"77 321 LINE",
"77 251 OFFCURVE",
"96 191 OFFCURVE",
"134 140 CURVE SMOOTH",
"210 38 OFFCURVE",
"354 -20 OFFCURVE",
"519 -20 CURVE SMOOTH",
"790 -20 OFFCURVE",
"964 107 OFFCURVE",
"964 306 CURVE SMOOTH",
"964 430 OFFCURVE",
"902 514 OFFCURVE",
"778 557 CURVE",
"883 605 OFFCURVE",
"944 690 OFFCURVE",
"944 786 CURVE SMOOTH"
);
}
);
width = 1046;
}
);
note = afii10073;
unicode = 0437;
},
{
glyphname = afii10074;
lastChange = "2019-02-04 10:03:05 +0000";
layers = (
{
layerId = "BC02B84D-1250-4FEC-829E-45FBAB526404";
paths = (
{
closed = 1;
nodes = (
"376 1082 LINE",
"134 1082 LINE",
"134 0 LINE",
"376 0 LINE",
"800 722 LINE",
"800 0 LINE",
"1042 0 LINE",
"1042 1082 LINE",
"800 1082 LINE",
"376 360 LINE"
);
}
);
width = 1176;
}
);
leftKerningGroup = m;
note = afii10074;
unicode = 0438;
},
{
glyphname = afii10076;
lastChange = "2019-02-04 10:03:05 +0000";
layers = (
{
layerId = "BC02B84D-1250-4FEC-829E-45FBAB526404";
paths = (
{
closed = 1;
nodes = (
"1125 0 LINE",
"701 564 LINE",
"1092 1082 LINE",
"792 1082 LINE",
"493 650 LINE",
"386 650 LINE",
"386 1082 LINE",
"143 1082 LINE",
"143 0 LINE",
"386 0 LINE",
"386 428 LINE",
"509 428 LINE",
"809 0 LINE"
);
}
);
width = 1134;
}
);
leftKerningGroup = m;
note = afii10076;
unicode = 043A;
},
{
glyphname = afii10077;
lastChange = "2019-02-04 10:03:05 +0000";
layers = (
{
layerId = "BC02B84D-1250-4FEC-829E-45FBAB526404";
paths = (
{
closed = 1;
nodes = (
"246 620 LINE SMOOTH",
"239 467 OFFCURVE",
"224 362 OFFCURVE",
"200 305 CURVE SMOOTH",
"175 247 OFFCURVE",
"136 214 OFFCURVE",
"83 207 CURVE SMOOTH",
"33 202 LINE",
"34 0 LINE",
"109 0 LINE SMOOTH",
"344 0 OFFCURVE",
"450 146 OFFCURVE",
"475 509 CURVE SMOOTH",
"495 886 LINE",
"801 886 LINE",
"801 0 LINE",
"1044 0 LINE",
"1044 1082 LINE",
"266 1082 LINE"
);
}
);
width = 1178;
}
);
leftKerningGroup = afii10077;
note = afii10077;
unicode = 043B;
},
{
glyphname = afii10078;
lastChange = "2019-02-04 10:03:05 +0000";
layers = (
{
layerId = "BC02B84D-1250-4FEC-829E-45FBAB526404";
paths = (
{
closed = 1;
nodes = (
"143 1082 LINE",
"143 0 LINE",
"386 0 LINE",
"386 720 LINE",
"685 0 LINE",
"850 0 LINE",
"1148 716 LINE",
"1148 0 LINE",
"1391 0 LINE",
"1391 1082 LINE",
"1087 1082 LINE",
"767 299 LINE",
"449 1082 LINE"
);
}
);
width = 1539;
}
);
leftKerningGroup = m;
note = afii10078;
unicode = 043C;
},
{
glyphname = afii10079;
lastChange = "2019-02-04 10:03:05 +0000";
layers = (
{
layerId = "BC02B84D-1250-4FEC-829E-45FBAB526404";
paths = (
{
closed = 1;
nodes = (
"798 1082 LINE",
"798 631 LINE",
"377 631 LINE",
"377 1082 LINE",
"134 1082 LINE",
"134 0 LINE",
"377 0 LINE",
"377 437 LINE",
"798 437 LINE",
"798 0 LINE",
"1041 0 LINE",
"1041 1082 LINE"
);
}
);
width = 1175;
}
);
leftKerningGroup = m;
note = afii10079;
unicode = 043D;
},
{
glyphname = afii10081;
lastChange = "2019-02-04 10:03:05 +0000";
layers = (
{
layerId = "BC02B84D-1250-4FEC-829E-45FBAB526404";
paths = (
{
closed = 1;
nodes = (
"134 1082 LINE",
"134 0 LINE",
"377 0 LINE",
"377 886 LINE",
"799 886 LINE",
"799 0 LINE",
"1042 0 LINE",
"1042 1082 LINE"
);
}
);
width = 1176;
}
);
leftKerningGroup = m;
note = afii10081;
unicode = 043F;
},
{
glyphname = afii10084;
lastChange = "2019-02-04 10:03:05 +0000";
layers = (
{
layerId = "BC02B84D-1250-4FEC-829E-45FBAB526404";
paths = (
{
closed = 1;
nodes = (
"35 1082 LINE",
"35 889 LINE",
"382 889 LINE",
"382 0 LINE",
"625 0 LINE",
"625 889 LINE",
"976 889 LINE",
"976 1082 LINE"
);
}
);
width = 1013;
}
);
note = afii10084;
unicode = 0442;
},
{
glyphname = afii10086;
lastChange = "2019-02-04 10:03:05 +0000";
layers = (
{
layerId = "BC02B84D-1250-4FEC-829E-45FBAB526404";
paths = (
{
closed = 1;
nodes = (
"97 163 OFFCURVE",
"245 -20 OFFCURVE",
"478 -20 CURVE SMOOTH",
"531 -20 OFFCURVE",
"577 -11 OFFCURVE",
"618 6 CURVE",
"618 -416 LINE",
"860 -416 LINE",
"860 10 LINE",
"906 -10 OFFCURVE",
"957 -20 OFFCURVE",
"1012 -20 CURVE SMOOTH",
"1256 -20 OFFCURVE",
"1407 181 OFFCURVE",
"1407 505 CURVE SMOOTH",
"1407 889 OFFCURVE",
"1258 1102 OFFCURVE",
"1010 1102 CURVE SMOOTH",
"953 1102 OFFCURVE",
"903 1091 OFFCURVE",
"860 1070 CURVE",
"860 1536 LINE",
"618 1536 LINE",
"618 1074 LINE",
"577 1093 OFFCURVE",
"531 1102 OFFCURVE",
"480 1102 CURVE SMOOTH",
"231 1102 OFFCURVE",
"84 879 OFFCURVE",
"84 526 CURVE SMOOTH",
"85 466 LINE SMOOTH"
);
},
{
closed = 1;
nodes = (
"1164 291 OFFCURVE",
"1091 174 OFFCURVE",
"944 174 CURVE SMOOTH",
"910 174 OFFCURVE",
"882 177 OFFCURVE",
"860 184 CURVE",
"860 894 LINE",
"885 903 OFFCURVE",
"912 907 OFFCURVE",
"942 907 CURVE SMOOTH",
"1083 907 OFFCURVE",
"1164 769 OFFCURVE",
"1164 526 CURVE SMOOTH"
);
},
{
closed = 1;
nodes = (
"326 784 OFFCURVE",
"403 907 OFFCURVE",
"542 907 CURVE SMOOTH",
"570 907 OFFCURVE",
"595 904 OFFCURVE",
"618 897 CURVE",
"618 184 LINE",
"596 177 OFFCURVE",
"570 174 OFFCURVE",
"540 174 CURVE SMOOTH",
"399 174 OFFCURVE",
"326 289 OFFCURVE",
"326 505 CURVE SMOOTH"
);
}
);
width = 1491;
}
);
leftKerningGroup = c;
note = afii10086;
rightKerningGroup = b;
unicode = 0444;
},
{
glyphname = afii10088;
lastChange = "2019-02-04 10:03:05 +0000";
layers = (
{
layerId = "BC02B84D-1250-4FEC-829E-45FBAB526404";
paths = (
{
closed = 1;
nodes = (
"948 0 LINE",
"948 -321 LINE",
"1169 -321 LINE",
"1189 194 LINE",
"1042 194 LINE",
"1042 1082 LINE",
"799 1082 LINE",
"799 194 LINE",
"377 194 LINE",
"377 1082 LINE",
"134 1082 LINE",
"134 0 LINE"
);
}
);
width = 1235;
}
);
leftKerningGroup = m;
note = afii10088;
unicode = 0446;
},
{
glyphname = afii10089;
lastChange = "2019-02-04 10:03:05 +0000";
layers = (
{
layerId = "BC02B84D-1250-4FEC-829E-45FBAB526404";
paths = (
{
closed = 1;
nodes = (
"749 1082 LINE",
"749 558 LINE",
"682 543 OFFCURVE",
"616 535 OFFCURVE",
"551 535 CURVE SMOOTH",
"407 535 OFFCURVE",
"338 594 OFFCURVE",
"338 751 CURVE SMOOTH",
"338 1083 LINE",
"95 1083 LINE",
"95 751 LINE SMOOTH",
"95 486 OFFCURVE",
"255 339 OFFCURVE",
"551 339 CURVE SMOOTH",
"620 339 OFFCURVE",
"686 346 OFFCURVE",
"749 361 CURVE",
"749 0 LINE",
"992 0 LINE",
"992 1082 LINE"
);
}
);
width = 1126;
}
);
leftKerningGroup = afii10089;
note = afii10089;
unicode = 0447;
},
{
glyphname = afii10090;
lastChange = "2019-02-04 10:03:05 +0000";
layers = (
{
layerId = "BC02B84D-1250-4FEC-829E-45FBAB526404";
paths = (
{
closed = 1;
nodes = (
"134 0 LINE",
"1539 0 LINE",
"1539 1082 LINE",
"1297 1082 LINE",
"1297 194 LINE",
"958 194 LINE",
"958 1082 LINE",
"715 1082 LINE",
"715 194 LINE",
"377 194 LINE",
"377 1082 LINE",
"134 1082 LINE"
);
}
);
width = 1678;
}
);
leftKerningGroup = m;
note = afii10090;
unicode = 0448;
},
{
glyphname = afii10091;
lastChange = "2019-02-04 10:03:05 +0000";
layers = (
{
layerId = "BC02B84D-1250-4FEC-829E-45FBAB526404";
paths = (
{
closed = 1;
nodes = (
"126 0 LINE",
"1475 0 LINE",
"1475 -321 LINE",
"1696 -321 LINE",
"1716 194 LINE",
"1531 194 LINE",
"1531 1082 LINE",
"1289 1082 LINE",
"1289 194 LINE",
"950 194 LINE",
"950 1082 LINE",
"707 1082 LINE",
"707 194 LINE",
"369 194 LINE",
"369 1082 LINE",
"126 1082 LINE"
);
}
);
width = 1772;
}
);
leftKerningGroup = m;
note = afii10091;
unicode = 0449;
},
{
glyphname = afii10092;
lastChange = "2019-02-04 10:03:05 +0000";
layers = (
{
layerId = "BC02B84D-1250-4FEC-829E-45FBAB526404";
paths = (
{
closed = 1;
nodes = (
"31 1082 LINE",
"31 886 LINE",
"343 886 LINE",
"343 0 LINE",
"826 0 LINE SMOOTH",
"1087 1 OFFCURVE",
"1258 147 OFFCURVE",
"1258 370 CURVE SMOOTH",
"1258 443 OFFCURVE",
"1241 508 OFFCURVE",
"1207 563 CURVE SMOOTH",
"1138 674 OFFCURVE",
"1001 738 OFFCURVE",
"824 738 CURVE SMOOTH",
"586 738 LINE",
"586 1082 LINE"
);
},
{
closed = 1;
nodes = (
"943 542 OFFCURVE",
"1015 474 OFFCURVE",
"1015 365 CURVE SMOOTH",
"1015 256 OFFCURVE",
"942 194 OFFCURVE",
"823 194 CURVE SMOOTH",
"586 194 LINE",
"586 543 LINE",
"828 543 LINE SMOOTH"
);
}
);
width = 1303;
}
);
note = afii10092;
rightKerningGroup = afii10092;
unicode = 044A;
},
{
glyphname = afii10093;
lastChange = "2019-02-04 10:03:05 +0000";
layers = (
{
layerId = "BC02B84D-1250-4FEC-829E-45FBAB526404";
paths = (
{
closed = 1;
nodes = (
"143 1082 LINE",
"143 0 LINE",
"626 0 LINE SMOOTH",
"887 1 OFFCURVE",
"1058 147 OFFCURVE",
"1058 370 CURVE SMOOTH",
"1058 443 OFFCURVE",
"1041 508 OFFCURVE",
"1007 563 CURVE SMOOTH",
"938 674 OFFCURVE",
"801 738 OFFCURVE",
"624 738 CURVE SMOOTH",
"386 738 LINE",
"386 1082 LINE"
);
},
{
closed = 1;
nodes = (
"1238 1082 LINE",
"1238 0 LINE",
"1481 0 LINE",
"1481 1082 LINE"
);
},
{
closed = 1;
nodes = (
"743 542 OFFCURVE",
"815 474 OFFCURVE",
"815 365 CURVE SMOOTH",
"815 256 OFFCURVE",
"742 194 OFFCURVE",
"623 194 CURVE SMOOTH",
"386 194 LINE",
"386 543 LINE",
"628 543 LINE SMOOTH"
);
}
);
width = 1647;
}
);
note = afii10093;
unicode = 044B;
},
{
glyphname = afii10094;
lastChange = "2019-02-04 10:03:05 +0000";
layers = (
{
layerId = "BC02B84D-1250-4FEC-829E-45FBAB526404";
paths = (
{
closed = 1;
nodes = (
"143 1082 LINE",
"143 0 LINE",
"626 0 LINE SMOOTH",
"887 1 OFFCURVE",
"1058 147 OFFCURVE",
"1058 370 CURVE SMOOTH",
"1058 443 OFFCURVE",
"1041 508 OFFCURVE",
"1007 563 CURVE SMOOTH",
"938 674 OFFCURVE",
"801 738 OFFCURVE",
"624 738 CURVE SMOOTH",
"386 738 LINE",
"386 1082 LINE"
);
},
{
closed = 1;
nodes = (
"743 542 OFFCURVE",
"815 474 OFFCURVE",
"815 365 CURVE SMOOTH",
"815 256 OFFCURVE",
"742 194 OFFCURVE",
"623 194 CURVE SMOOTH",
"386 194 LINE",
"386 543 LINE",
"628 543 LINE SMOOTH"
);
}
);
width = 1128;
}
);
leftKerningGroup = m;
note = afii10094;
rightKerningGroup = afii10092;
unicode = 044C;
},
{
glyphname = afii10095;
lastChange = "2019-02-04 10:03:05 +0000";
layers = (
{
layerId = "BC02B84D-1250-4FEC-829E-45FBAB526404";
paths = (
{
closed = 1;
nodes = (
"646 907 OFFCURVE",
"734 808 OFFCURVE",
"753 632 CURVE",
"414 632 LINE",
"414 464 LINE",
"754 464 LINE",
"738 281 OFFCURVE",
"650 174 OFFCURVE",
"514 174 CURVE SMOOTH",
"399 174 OFFCURVE",
"310 262 OFFCURVE",
"310 386 CURVE",
"81 386 LINE",
"81 308 OFFCURVE",
"99 238 OFFCURVE",
"136 176 CURVE SMOOTH",
"209 52 OFFCURVE",
"350 -20 OFFCURVE",
"514 -20 CURVE SMOOTH",
"611 -20 OFFCURVE",
"696 3 OFFCURVE",
"769 48 CURVE SMOOTH",
"916 139 OFFCURVE",
"1000 316 OFFCURVE",
"1000 523 CURVE SMOOTH",
"1000 548 LINE SMOOTH",
"1000 884 OFFCURVE",
"806 1102 OFFCURVE",
"513 1102 CURVE SMOOTH",
"437 1102 OFFCURVE",
"365 1085 OFFCURVE",
"298 1050 CURVE SMOOTH",
"163 981 OFFCURVE",
"81 856 OFFCURVE",
"81 723 CURVE",
"310 723 LINE",
"310 828 OFFCURVE",
"400 907 OFFCURVE",
"513 907 CURVE SMOOTH"
);
}
);
width = 1084;
}
);
note = afii10095;
rightKerningGroup = b;
unicode = 044D;
},
{
glyphname = afii10096;
lastChange = "2019-02-04 10:03:05 +0000";
layers = (
{
layerId = "BC02B84D-1250-4FEC-829E-45FBAB526404";
paths = (
{
closed = 1;
nodes = (
"145 1082 LINE",
"145 0 LINE",
"388 0 LINE",
"388 452 LINE",
"590 452 LINE",
"618 169 OFFCURVE",
"810 -20 OFFCURVE",
"1090 -20 CURVE SMOOTH",
"1190 -20 OFFCURVE",
"1278 3 OFFCURVE",
"1355 49 CURVE SMOOTH",
"1507 141 OFFCURVE",
"1592 317 OFFCURVE",
"1592 530 CURVE",
"1591 587 LINE SMOOTH",
"1576 898 OFFCURVE",
"1380 1102 OFFCURVE",
"1088 1102 CURVE SMOOTH",
"817 1102 OFFCURVE",
"628 923 OFFCURVE",
"592 647 CURVE",
"388 647 LINE",
"388 1082 LINE"
);
},
{
closed = 1;
nodes = (
"829 781 OFFCURVE",
"929 907 OFFCURVE",
"1088 907 CURVE SMOOTH",
"1248 907 OFFCURVE",
"1349 774 OFFCURVE",
"1349 551 CURVE SMOOTH",
"1349 304 OFFCURVE",
"1254 174 OFFCURVE",
"1090 174 CURVE SMOOTH",
"926 174 OFFCURVE",
"829 307 OFFCURVE",
"829 530 CURVE SMOOTH"
);
}
);
width = 1668;
}
);
leftKerningGroup = m;
note = afii10096;
unicode = 044E;
},
{
glyphname = afii10097;
lastChange = "2019-02-04 10:03:05 +0000";
layers = (
{
layerId = "BC02B84D-1250-4FEC-829E-45FBAB526404";
paths = (
{
closed = 1;
nodes = (
"254 1079 OFFCURVE",
"87 937 OFFCURVE",
"87 736 CURVE SMOOTH",
"87 601 OFFCURVE",
"161 493 OFFCURVE",
"294 437 CURVE",
"39 0 LINE",
"291 0 LINE",
"522 397 LINE",
"749 397 LINE",
"749 0 LINE",
"991 0 LINE",
"991 1082 LINE",
"518 1082 LINE SMOOTH"
);
},
{
closed = 1;
nodes = (
"330 822 OFFCURVE",
"406 889 OFFCURVE",
"525 889 CURVE SMOOTH",
"749 889 LINE",
"749 577 LINE",
"510 577 LINE SMOOTH",
"405 577 OFFCURVE",
"330 639 OFFCURVE",
"330 730 CURVE SMOOTH"
);
}
);
width = 1136;
}
);
note = afii10097;
unicode = 044F;
},
{
glyphname = afii10099;
lastChange = "2019-02-04 10:03:05 +0000";
layers = (
{
layerId = "BC02B84D-1250-4FEC-829E-45FBAB526404";
paths = (
{
closed = 1;
nodes = (
"364 1368 LINE",
"364 1536 LINE",
"121 1536 LINE",
"121 1368 LINE",
"-37 1368 LINE",
"-37 1197 LINE",
"121 1197 LINE",
"121 0 LINE",
"364 0 LINE",
"364 773 LINE",
"412 860 OFFCURVE",
"485 903 OFFCURVE",
"582 903 CURVE SMOOTH",
"707 903 OFFCURVE",
"773 847 OFFCURVE",
"773 698 CURVE SMOOTH",
"773 -51 LINE SMOOTH",
"773 -178 OFFCURVE",
"732 -242 OFFCURVE",
"650 -242 CURVE SMOOTH",
"611 -242 OFFCURVE",
"578 -238 OFFCURVE",
"552 -229 CURVE",
"537 -420 LINE",
"576 -431 OFFCURVE",
"618 -437 OFFCURVE",
"665 -437 CURVE SMOOTH",
"886 -437 OFFCURVE",
"1016 -300 OFFCURVE",
"1016 -63 CURVE SMOOTH",
"1016 707 LINE",
"1013 970 OFFCURVE",
"896 1102 OFFCURVE",
"665 1102 CURVE SMOOTH",
"544 1102 OFFCURVE",
"443 1056 OFFCURVE",
"364 964 CURVE",
"364 1197 LINE",
"631 1197 LINE",
"631 1368 LINE"
);
}
);
width = 1137;
}
);
note = afii10099;
unicode = 0452;
},
{
glyphname = afii10101;
lastChange = "2019-02-04 10:03:05 +0000";
layers = (
{
layerId = "BC02B84D-1250-4FEC-829E-45FBAB526404";
paths = (
{
closed = 1;
nodes = (
"427 174 OFFCURVE",
"346 266 OFFCURVE",
"329 450 CURVE",
"675 450 LINE",
"675 618 LINE",
"328 618 LINE",
"341 806 OFFCURVE",
"426 907 OFFCURVE",
"573 907 CURVE SMOOTH",
"694 907 OFFCURVE",
"780 822 OFFCURVE",
"789 694 CURVE",
"1017 694 LINE",
"1012 937 OFFCURVE",
"832 1102 OFFCURVE",
"576 1102 CURVE SMOOTH",
"272 1102 OFFCURVE",
"84 887 OFFCURVE",
"84 558 CURVE SMOOTH",
"84 533 LINE SMOOTH",
"84 189 OFFCURVE",
"272 -20 OFFCURVE",
"576 -20 CURVE SMOOTH",
"653 -20 OFFCURVE",
"726 -3 OFFCURVE",
"793 30 CURVE SMOOTH",
"928 97 OFFCURVE",
"1013 222 OFFCURVE",
"1017 358 CURVE",
"789 358 LINE",
"781 251 OFFCURVE",
"693 174 OFFCURVE",
"574 174 CURVE SMOOTH"
);
}
);
width = 1084;
}
);
leftKerningGroup = c;
note = afii10101;
unicode = 0454;
},
{
glyphname = afii10106;
lastChange = "2019-02-04 10:03:05 +0000";
layers = (
{
layerId = "BC02B84D-1250-4FEC-829E-45FBAB526404";
paths = (
{
closed = 1;
nodes = (
"243 620 LINE SMOOTH",
"236 469 OFFCURVE",
"221 364 OFFCURVE",
"198 306 CURVE SMOOTH",
"174 247 OFFCURVE",
"135 214 OFFCURVE",
"80 207 CURVE SMOOTH",
"30 202 LINE",
"32 0 LINE",
"110 0 LINE SMOOTH",
"343 1 OFFCURVE",
"447 149 OFFCURVE",
"472 509 CURVE SMOOTH",
"493 886 LINE",
"775 886 LINE",
"775 0 LINE",
"1262 0 LINE SMOOTH",
"1522 3 OFFCURVE",
"1690 142 OFFCURVE",
"1690 355 CURVE SMOOTH",
"1690 567 OFFCURVE",
"1526 701 OFFCURVE",
"1266 705 CURVE SMOOTH",
"1018 705 LINE",
"1018 1082 LINE",
"263 1082 LINE"
);
},
{
closed = 1;
nodes = (
"1376 510 OFFCURVE",
"1447 453 OFFCURVE",
"1447 357 CURVE SMOOTH",
"1447 254 OFFCURVE",
"1372 192 OFFCURVE",
"1255 192 CURVE SMOOTH",
"1018 192 LINE",
"1018 511 LINE",
"1261 511 LINE SMOOTH"
);
}
);
width = 1745;
}
);
leftKerningGroup = afii10077;
note = afii10106;
rightKerningGroup = afii10092;
unicode = 0459;
},
{
glyphname = afii10107;
lastChange = "2019-02-04 10:03:05 +0000";
layers = (
{
layerId = "BC02B84D-1250-4FEC-829E-45FBAB526404";
paths = (
{
closed = 1;
nodes = (
"134 1082 LINE",
"134 0 LINE",
"377 0 LINE",
"377 477 LINE",
"798 477 LINE",
"798 0 LINE",
"1285 0 LINE SMOOTH",
"1545 3 OFFCURVE",
"1713 142 OFFCURVE",
"1713 355 CURVE SMOOTH",
"1713 567 OFFCURVE",
"1549 701 OFFCURVE",
"1289 705 CURVE SMOOTH",
"1041 705 LINE",
"1041 1082 LINE",
"798 1082 LINE",
"798 671 LINE",
"377 671 LINE",
"377 1082 LINE"
);
},
{
closed = 1;
nodes = (
"1400 511 OFFCURVE",
"1470 450 OFFCURVE",
"1470 357 CURVE SMOOTH",
"1470 257 OFFCURVE",
"1398 192 OFFCURVE",
"1278 192 CURVE SMOOTH",
"1041 192 LINE",
"1041 511 LINE",
"1279 511 LINE SMOOTH"
);
}
);
width = 1764;
}
);
leftKerningGroup = m;
note = afii10107;
rightKerningGroup = afii10092;
unicode = 045A;
},
{
glyphname = afii10108;
lastChange = "2019-02-04 10:03:05 +0000";
layers = (
{
layerId = "BC02B84D-1250-4FEC-829E-45FBAB526404";
paths = (
{
closed = 1;
nodes = (
"364 1375 LINE",
"364 1536 LINE",
"121 1536 LINE",
"121 1375 LINE",
"-18 1375 LINE",
"-18 1205 LINE",
"121 1205 LINE",
"121 0 LINE",
"364 0 LINE",
"364 773 LINE",
"412 860 OFFCURVE",
"485 903 OFFCURVE",
"582 903 CURVE SMOOTH",
"707 903 OFFCURVE",
"773 847 OFFCURVE",
"773 698 CURVE SMOOTH",
"773 0 LINE",
"1016 0 LINE",
"1016 707 LINE",
"1013 970 OFFCURVE",
"896 1102 OFFCURVE",
"665 1102 CURVE SMOOTH",
"544 1102 OFFCURVE",
"443 1056 OFFCURVE",
"364 964 CURVE",
"364 1205 LINE",
"651 1205 LINE",
"651 1375 LINE"
);
}
);
width = 1161;
}
);
note = afii10108;
unicode = 045B;
},
{
glyphname = afii10193;
lastChange = "2019-02-04 10:03:05 +0000";
layers = (
{
layerId = "BC02B84D-1250-4FEC-829E-45FBAB526404";
paths = (
{
closed = 1;
nodes = (
"134 0 LINE",
"468 0 LINE",
"468 -358 LINE",
"711 -358 LINE",
"711 0 LINE",
"1042 0 LINE",
"1042 1082 LINE",
"799 1082 LINE",
"799 194 LINE",
"377 194 LINE",
"377 1082 LINE",
"134 1082 LINE"
);
}
);
width = 1176;
}
);
note = afii10193;
unicode = 045F;
},
{
glyphname = uni0460;
lastChange = "2019-02-04 10:03:05 +0000";
layers = (
{
layerId = "BC02B84D-1250-4FEC-829E-45FBAB526404";
paths = (
{
closed = 1;
nodes = (
"1477 429 LINE SMOOTH",
"1477 268 OFFCURVE",
"1399 181 OFFCURVE",
"1270 181 CURVE SMOOTH",
"1138 181 OFFCURVE",
"1062 273 OFFCURVE",
"1062 428 CURVE SMOOTH",
"1062 1456 LINE",
"805 1456 LINE",
"805 429 LINE SMOOTH",
"805 270 OFFCURVE",
"726 181 OFFCURVE",
"586 181 CURVE SMOOTH",
"461 181 OFFCURVE",
"389 272 OFFCURVE",
"389 428 CURVE SMOOTH",
"389 1456 LINE",
"136 1456 LINE",
"136 431 LINE SMOOTH",
"136 147 OFFCURVE",
"310 -21 OFFCURVE",
"586 -21 CURVE SMOOTH",
"741 -21 OFFCURVE",
"857 34 OFFCURVE",
"932 144 CURVE",
"1005 34 OFFCURVE",
"1117 -21 OFFCURVE",
"1270 -21 CURVE SMOOTH",
"1550 -21 OFFCURVE",
"1729 146 OFFCURVE",
"1729 431 CURVE SMOOTH",
"1729 1456 LINE",
"1477 1456 LINE"
);
}
);
width = 1865;
}
);
leftKerningGroup = C;
note = uni0460;
unicode = 0460;
},
{
glyphname = uni0461;
lastChange = "2019-02-04 10:03:05 +0000";
layers = (
{
layerId = "BC02B84D-1250-4FEC-829E-45FBAB526404";
paths = (
{
closed = 1;
nodes = (
"1274 395 LINE SMOOTH",
"1274 243 OFFCURVE",
"1208 173 OFFCURVE",
"1109 173 CURVE SMOOTH",
"1004 173 OFFCURVE",
"938 243 OFFCURVE",
"938 395 CURVE SMOOTH",
"938 1082 LINE",
"694 1082 LINE",
"694 395 LINE SMOOTH",
"694 243 OFFCURVE",
"620 173 OFFCURVE",
"509 173 CURVE SMOOTH",
"416 173 OFFCURVE",
"355 243 OFFCURVE",
"355 395 CURVE SMOOTH",
"355 1082 LINE",
"112 1082 LINE",
"112 395 LINE SMOOTH",
"112 135 OFFCURVE",
"264 -21 OFFCURVE",
"509 -21 CURVE SMOOTH",
"644 -21 OFFCURVE",
"746 26 OFFCURVE",
"814 121 CURVE",
"878 26 OFFCURVE",
"976 -21 OFFCURVE",
"1109 -21 CURVE SMOOTH",
"1361 -21 OFFCURVE",
"1516 135 OFFCURVE",
"1517 392 CURVE SMOOTH",
"1517 1082 LINE",
"1274 1082 LINE"
);
}
);
width = 1615;
}
);
note = uni0461;
unicode = 0461;
},
{
glyphname = afii10194;
lastChange = "2019-02-04 10:03:05 +0000";
layers = (
{
layerId = "BC02B84D-1250-4FEC-829E-45FBAB526404";
paths = (
{
closed = 1;
nodes = (
"385 1253 LINE",
"385 1560 LINE",
"142 1560 LINE",
"142 1253 LINE",
"-32 1253 LINE",
"-32 1082 LINE",
"142 1082 LINE",
"142 0 LINE",
"636 0 LINE SMOOTH",
"892 5 OFFCURVE",
"1057 157 OFFCURVE",
"1057 388 CURVE SMOOTH",
"1057 620 OFFCURVE",
"893 767 OFFCURVE",
"632 771 CURVE SMOOTH",
"385 771 LINE",
"385 1082 LINE",
"675 1082 LINE",
"675 1253 LINE"
);
},
{
closed = 1;
nodes = (
"744 573 OFFCURVE",
"814 497 OFFCURVE",
"814 384 CURVE SMOOTH",
"814 265 OFFCURVE",
"743 194 OFFCURVE",
"622 194 CURVE SMOOTH",
"385 194 LINE",
"385 576 LINE",
"628 576 LINE SMOOTH"
);
}
);
width = 1127;
}
);
note = afii10194;
rightKerningGroup = afii10092;
unicode = 0463;
},
{
glyphname = uni0464;
lastChange = "2019-02-04 10:03:05 +0000";
layers = (
{
layerId = "BC02B84D-1250-4FEC-829E-45FBAB526404";
paths = (
{
closed = 1;
nodes = (
"152 1456 LINE",
"152 0 LINE",
"404 0 LINE",
"404 652 LINE",
"584 652 LINE",
"586 517 OFFCURVE",
"612 399 OFFCURVE",
"661 296 CURVE SMOOTH",
"759 91 OFFCURVE",
"941 -19 OFFCURVE",
"1170 -19 CURVE SMOOTH",
"1501 -19 OFFCURVE",
"1712 164 OFFCURVE",
"1741 475 CURVE",
"1489 475 LINE",
"1462 267 OFFCURVE",
"1369 185 OFFCURVE",
"1170 185 CURVE SMOOTH",
"954 185 OFFCURVE",
"841 352 OFFCURVE",
"838 652 CURVE",
"1328 652 LINE",
"1328 847 LINE",
"839 847 LINE",
"854 1119 OFFCURVE",
"967 1272 OFFCURVE",
"1182 1272 CURVE SMOOTH",
"1371 1272 OFFCURVE",
"1465 1185 OFFCURVE",
"1489 976 CURVE",
"1741 976 LINE",
"1709 1295 OFFCURVE",
"1503 1477 OFFCURVE",
"1182 1477 CURVE SMOOTH",
"1068 1477 OFFCURVE",
"967 1451 OFFCURVE",
"879 1400 CURVE SMOOTH",
"702 1296 OFFCURVE",
"600 1100 OFFCURVE",
"585 847 CURVE",
"404 847 LINE",
"404 1456 LINE"
);
}
);
width = 1832;
}
);
note = uni0464;
unicode = 0464;
},
{
glyphname = uni0465;
lastChange = "2019-02-04 10:03:05 +0000";
layers = (
{
layerId = "BC02B84D-1250-4FEC-829E-45FBAB526404";
paths = (
{
closed = 1;
nodes = (
"134 1082 LINE",
"134 0 LINE",
"377 0 LINE",
"377 454 LINE",
"535 454 LINE",
"562 161 OFFCURVE",
"744 -20 OFFCURVE",
"1025 -20 CURVE SMOOTH",
"1102 -20 OFFCURVE",
"1175 -3 OFFCURVE",
"1242 30 CURVE SMOOTH",
"1377 97 OFFCURVE",
"1462 222 OFFCURVE",
"1466 358 CURVE",
"1238 358 LINE",
"1230 251 OFFCURVE",
"1142 174 OFFCURVE",
"1023 174 CURVE SMOOTH",
"876 174 OFFCURVE",
"791 270 OFFCURVE",
"778 454 CURVE",
"1157 454 LINE",
"1157 625 LINE",
"777 625 LINE",
"794 813 OFFCURVE",
"876 907 OFFCURVE",
"1022 907 CURVE SMOOTH",
"1143 907 OFFCURVE",
"1229 822 OFFCURVE",
"1238 694 CURVE",
"1466 694 LINE",
"1461 937 OFFCURVE",
"1281 1102 OFFCURVE",
"1024 1102 CURVE SMOOTH",
"744 1102 OFFCURVE",
"561 921 OFFCURVE",
"534 625 CURVE",
"377 625 LINE",
"377 1082 LINE"
);
}
);
width = 1537;
}
);
note = uni0465;
unicode = 0465;
},
